<?xml version="1.0" encoding="utf-8"?>
<!-- Generator: Adobe Illustrator 19.2.0, SVG Export Plug-In . SVG Version: 6.00 Build 0)  -->
<!DOCTYPE svg PUBLIC "-//W3C//DTD SVG 1.0//EN" "http://www.w3.org/TR/2001/REC-SVG-20010904/DTD/svg10.dtd">
<svg version="1.0" id="Layer_1" xmlns="http://www.w3.org/2000/svg" xmlns:xlink="http://www.w3.org/1999/xlink" x="0px" y="0px"
	 width="52px" height="52.9px" viewBox="0 0 52 52.9" enable-background="new 0 0 52 52.9" xml:space="preserve">
<path fill="#203B6A" d="M26,51.5c-6.7,0-13-2.6-17.7-7.3C3.6,39.4,1,33.1,1,26.4c0-6.7,2.6-13,7.3-17.7s11-7.3,17.7-7.3
	c6.7,0,13,2.6,17.7,7.3c4.7,4.7,7.3,11,7.3,17.7s-2.6,13-7.3,17.7S32.7,51.5,26,51.5z M12.3,43.2c3.9,3.2,8.7,4.9,13.7,4.9
	c5.8,0,11.2-2.3,15.3-6.4c4.1-4.1,6.3-9.5,6.4-15.3l-26,11.7l7.4-9.9l-6.3,0.1L12.3,43.2z M7.5,37.8C8.2,38.9,9,40,9.8,40.9
	l8.8-12.4l-4.5,0.1L7.5,37.8z M5.6,19c-1.8,5-1.7,10.5,0.2,15.4l5.4-7.6L5.6,19z M34.4,26.6L32,29.9l7.7-3.5L31.8,23L34.4,26.6z
	 M47.7,26.3c0-5.7-2.3-11.1-6.4-15.2C37.2,7,31.8,4.8,26,4.8c-5.2,0-10.3,1.9-14.2,5.3l10.8,15l6.5-0.1l-7.4-10L47.7,26.3z
	 M14.2,25.2l4.4-0.1L9.4,12.4c-0.8,1-1.6,2-2.2,3.1L14.2,25.2z"/>
</svg>
