<svg id="Layer_1" data-name="Layer 1" xmlns="http://www.w3.org/2000/svg" width="122.3px" height="55px" x="0px" y="0px" viewBox="0 0 97.48 26.21"><defs><style>.cls-1{fill:#3d6294;}</style></defs><title>ba_company-27</title><path id="path3564" class="cls-1" d="M3263.2,4273.11a5.21,5.21,0,0,1,1-3.47,4,4,0,0,1,3.17-1.16,6.18,6.18,0,0,1,3.77,1.17,3.49,3.49,0,0,1,0,.45,5.18,5.18,0,0,1-.15,1,3.54,3.54,0,0,1-.42,1.11h-1.86a3.29,3.29,0,0,1-.42-1.42,2.82,2.82,0,0,0-.44,0,1.41,1.41,0,0,0-1.2.47,2.91,2.91,0,0,0-.35,1.68v0.84h3.39v2h-3.39V4282a5.05,5.05,0,0,1,2.26.86l-0.22,1.71h-6.14l-0.22-1.71a2.62,2.62,0,0,1,1.22-.75v-6.38h-1l-0.24-1.53a2,2,0,0,1,1.22-.51v-0.62Z" transform="translate(-3227.72 -4262.39)"/><path id="path3568" class="cls-1" d="M3276.91,4276.26a3.27,3.27,0,0,0-2.33.64V4282a5.23,5.23,0,0,1,2.46.93l-0.22,1.71h-6.34l-0.22-1.71a2.62,2.62,0,0,1,1.22-.75V4276a2.86,2.86,0,0,1-1.22-.75l0.22-1.71a10.4,10.4,0,0,1,2.19-.27q1,0,1.62,0v1.4a4,4,0,0,1,1.31-1,3.37,3.37,0,0,1,1.45-.39,2.46,2.46,0,0,1,.9.11l-0.07,2.88a6.62,6.62,0,0,0-1-.07" transform="translate(-3227.72 -4262.39)"/><path id="path3572" class="cls-1" d="M3282.46,4282.53a2.43,2.43,0,0,0,1.8-.67V4280h-1.55q-1.6,0-1.6,1.22a1.25,1.25,0,0,0,.34.91,1.34,1.34,0,0,0,1,.36m-4-7.36q0-.33,0-0.71a9.22,9.22,0,0,1,4.43-1.11,5.15,5.15,0,0,1,3.4.9,3.77,3.77,0,0,1,1,3V4282a5,5,0,0,1,1.22.38v1.93a7.83,7.83,0,0,1-3.24.53,8.11,8.11,0,0,1-.38-1.4q-1,1.4-3.46,1.4a3.87,3.87,0,0,1-2.54-.86,2.88,2.88,0,0,1-1.05-2.35,2.93,2.93,0,0,1,1-2.34,4.38,4.38,0,0,1,2.94-.85h2.42v-1.06a1.58,1.58,0,0,0-1.84-1.73,4,4,0,0,0-1.13.13,4.25,4.25,0,0,1-.27,1.44h-2.17a4.57,4.57,0,0,1-.38-2" transform="translate(-3227.72 -4262.39)"/><path id="path3576" class="cls-1" d="M3297.46,4284.61l-3.92-5.74,2.44-3.17a1.53,1.53,0,0,1-.53-0.47l0.22-1.71h4.88l0.22,1.71a3.39,3.39,0,0,1-1.84,1l-2.13,2.44,2.5,3.3a3.52,3.52,0,0,1,1.93,1l-0.22,1.71h-3.55Zm-8.22-15.73a10.26,10.26,0,0,1,2.3-.29q1.06,0,1.79.07v13.5a3,3,0,0,1,1.22.75l-0.22,1.71h-5.1l-0.22-1.71a2.62,2.62,0,0,1,1.22-.75v-10.81a2.86,2.86,0,0,1-1.22-.75Z" transform="translate(-3227.72 -4262.39)"/><path id="path3580" class="cls-1" d="M3305.39,4270.74v2.79h3.17v1.86h-3.17V4281a2,2,0,0,0,.2,1,1.07,1.07,0,0,0,1,.32,4.53,4.53,0,0,0,1.62-.33l0.66,1.73a7.64,7.64,0,0,1-3.49.86,3,3,0,0,1-2.42-.76,3.42,3.42,0,0,1-.63-2.23v-6.23h-1L3301,4274a3.7,3.7,0,0,1,1.46-.84,3.32,3.32,0,0,1,1.26-2.46h1.62Z" transform="translate(-3227.72 -4262.39)"/><path id="path3584" class="cls-1" d="M3311.75,4272a1.68,1.68,0,1,1,1.85-1.67,1.56,1.56,0,0,1-1.85,1.67m-2.51,1.53a10.25,10.25,0,0,1,2.3-.29q1.06,0,1.8.07v8.84a3,3,0,0,1,1.22.75l-0.22,1.71h-5.1l-0.22-1.71a2.62,2.62,0,0,1,1.22-.75V4276a2.86,2.86,0,0,1-1.22-.75Z" transform="translate(-3227.72 -4262.39)"/><path id="path3588" class="cls-1" d="M3317.75,4279q0,3.55,2.13,3.55a1.78,1.78,0,0,0,1.61-.81,5.08,5.08,0,0,0,.52-2.65q0-3.46-2.17-3.46a1.76,1.76,0,0,0-1.57.76,4.91,4.91,0,0,0-.51,2.6m2,5.81a5,5,0,0,1-3.89-1.4,7.5,7.5,0,0,1,.14-8.54,5.28,5.28,0,0,1,4-1.5,5.19,5.19,0,0,1,3.91,1.33,5.83,5.83,0,0,1,1.27,4.16,6.26,6.26,0,0,1-1.43,4.39,5.22,5.22,0,0,1-4.05,1.56" transform="translate(-3227.72 -4262.39)"/><path id="path3680" class="cls-1" d="M3242.24,4264.59h0v24l4.3-8.55-1.64.27,0.45-1.41,1.92-.32,1.21-2.4-2.38.4,0.91-2.84,2.94-.49,5.46-10.86h0a44.23,44.23,0,0,1-13.11,2.19" transform="translate(-3227.72 -4262.39)"/><path id="path3684" class="cls-1" d="M3240.87,4264.59h0v24l-4.3-8.55,1.64,0.27-0.45-1.41-1.92-.32-1.21-2.4,2.38,0.4-0.91-2.84-2.94-.49-5.46-10.86h0a44.23,44.23,0,0,0,13.11,2.19" transform="translate(-3227.72 -4262.39)"/></svg>