<?xml version="1.0" encoding="utf-8"?>
<!-- Generator: Adobe Illustrator 19.2.0, SVG Export Plug-In . SVG Version: 6.00 Build 0)  -->
<!DOCTYPE svg PUBLIC "-//W3C//DTD SVG 1.0//EN" "http://www.w3.org/TR/2001/REC-SVG-20010904/DTD/svg10.dtd">
<svg version="1.0" id="Layer_1" xmlns="http://www.w3.org/2000/svg" xmlns:xlink="http://www.w3.org/1999/xlink" x="0px" y="0px"
	 width="122.3px" height="55px" viewBox="0 0 122.3 55" enable-background="new 0 0 122.3 55" xml:space="preserve">
<g>
	<path fill="#3D6294" d="M77,22.8h3.8v13.8H77V22.8L77,22.8z"/>
	<path fill="#3D6294" d="M32.6,22.8v7.5c0,1.8-0.8,2.9-2.5,2.9l0,0c-1.7,0-2.5-1.1-2.5-2.9v-7.5h-3.8v8.4c0,3.6,2.6,5.7,6.4,5.7
		s6.4-2.1,6.4-5.7v-8.4H32.6L32.6,22.8z"/>
	<path fill="#3D6294" d="M59.2,22.8v7.5c0,1.8-0.8,2.9-2.5,2.9l0,0c-1.7,0-2.5-1.1-2.5-2.9v-7.5h-3.8v8.4c0,3.6,2.6,5.7,6.4,5.7
		c3.8,0,6.4-2.1,6.4-5.7v-8.4H59.2L59.2,22.8z"/>
	<circle fill="#3D6294" cx="78.8" cy="18.5" r="2.4"/>
	<path fill="#3D6294" d="M65.5,22.8v4.2v9.7h3.8V26.2h5.3v-3.4h-5.3H65.5z"/>
	<path fill="#3D6294" d="M105.7,32.3c-0.7,0.8-1.7,1.3-2.8,1.3h0c-2,0-3.2-1-3.7-2.5h10.7v-1.4c0-4-2.9-7.2-7.1-7.2
		c-4,0-7.2,3.2-7.2,7.2s3,7.2,7.3,7.2h0.1c2.2,0,4-0.8,5.2-2.1L105.7,32.3L105.7,32.3z M102.8,25.8c1.6,0,2.8,0.7,3.3,2.2h-6.7
		C99.9,26.7,101.2,25.8,102.8,25.8L102.8,25.8z"/>
	<path fill="#3D6294" d="M92.4,32.3c-0.6,0.6-1.5,1-2.5,1h-0.1c-2,0-3.5-1.6-3.5-3.6c0-2,1.5-3.6,3.5-3.6h0.1c1,0,1.9,0.5,2.6,1.1
		l2.6-2.6c-1.3-1.3-3.1-2.2-5.2-2.2h0c-3.9,0-7.1,3.2-7.1,7.2s3.1,7.2,7.1,7.2h0c2,0,3.8-0.8,5.1-2L92.4,32.3L92.4,32.3z"/>
	<path fill="#3D6294" d="M42.6,22.8v-5.2h-3.8v5.1v3.4v4.4c0,4.5,1.5,6,5.8,6h0.5h2.7v-3.5h-2.7c-2.3,0-2.6-0.3-2.6-2.5v-4.4h2.6
		h2.7v-0.5v-2.5v-0.4C47.9,22.8,42.6,22.8,42.6,22.8L42.6,22.8z"/>
	<path fill="#3D6294" d="M16.2,21.9c0-1.3,0.8-2.1,1.9-2.1c0.7,0,1.2,0.4,1.5,0.8l2.3-2.3c-1.2-1.7-2.8-2.2-4.3-2.2
		c-2.8,0-5.1,2.5-5.2,5.7v14.8h3.8V26.1h4.9v-3.3h-4.9V21.9L16.2,21.9z"/>
</g>
</svg>
