<?xml version="1.0" encoding="utf-8"?>
<!-- Generator: Adobe Illustrator 19.1.0, SVG Export Plug-In . SVG Version: 6.00 Build 0)  -->
<!DOCTYPE svg PUBLIC "-//W3C//DTD SVG 1.0//EN" "http://www.w3.org/TR/2001/REC-SVG-20010904/DTD/svg10.dtd">
<svg version="1.0" id="Layer_1" xmlns="http://www.w3.org/2000/svg" xmlns:xlink="http://www.w3.org/1999/xlink" x="0px" y="0px"
	 width="54.9px" height="54.9px" viewBox="0 0 54.9 54.9" enable-background="new 0 0 54.9 54.9" xml:space="preserve">
<path fill="#203B6A" d="M46.2,8.8c-5-5-11.7-7.8-18.7-7.8C20.4,1,13.7,3.8,8.7,8.8c-5,5-7.7,11.6-7.7,18.7s2.8,13.7,7.7,18.7
	c5,5,11.6,7.7,18.7,7.7s13.7-2.8,18.7-7.7c5-5,7.7-11.6,7.7-18.7S51.2,13.7,46.2,8.8z M18.7,30.2l-8,11.3c-0.6-0.7-1.1-1.4-1.6-2.2
	l6.4-9.1L18.7,30.2z M15.5,25.6l-6.8-9.4c0.5-0.8,1-1.5,1.5-2.2l8.3,11.6L15.5,25.6z M34.2,29.7l1.5-2l-1.8-2.5l5.5,2.3L34.2,29.7z
	 M24.4,30.1l5-0.1l-8.6,11.5l27.3-14.1L21,13.8l8.5,11.6l-5.2,0.1L13.6,10.6c3.9-3.2,8.8-5,13.9-5c5.8,0,11.3,2.3,15.5,6.4
	c4.1,4.1,6.4,9.6,6.4,15.5S47,38.8,42.9,42.9c-4.1,4.1-9.6,6.4-15.5,6.4c-4.9,0-9.6-1.6-13.4-4.6L24.4,30.1z M11.5,27.9l-4.7,6.6
	c-0.8-2.3-1.2-4.6-1.2-7c0-2.2,0.3-4.3,1-6.4L11.5,27.9z"/>
</svg>
