<?xml version="1.0" encoding="utf-8"?>
<!-- Generator: Adobe Illustrator 19.2.0, SVG Export Plug-In . SVG Version: 6.00 Build 0)  -->
<!DOCTYPE svg PUBLIC "-//W3C//DTD SVG 1.0//EN" "http://www.w3.org/TR/2001/REC-SVG-20010904/DTD/svg10.dtd">
<svg version="1.0" id="Layer_1" xmlns="http://www.w3.org/2000/svg" xmlns:xlink="http://www.w3.org/1999/xlink" x="0px" y="0px"
	 width="102.3px" height="102.3px" viewBox="0 0 102.3 102.3" enable-background="new 0 0 102.3 102.3" xml:space="preserve">
<g>
	<path fill="#203B6A" d="M51.3,1.5c-27,0-49,22-49,49s22,49,49,49s49-22,49-49S78.3,1.5,51.3,1.5z M56.5,93.1l0.5-0.6l-14.6-12
		l18.2,1.3L41.8,67.7l25.1,4.5L52.1,48.4l20.1,18.4l0.4-17L85,76.4l0.9-0.4C79,85.2,68.5,91.7,56.5,93.1z M88.5,72L68.2,28.3
		l-0.7,27.4L28.9,20.4l27.8,44.9L22,59.1l22,16.6l-16.9-1.2l23.1,19C27,92.9,8.3,73.8,8.3,50.5c0-23.7,19.3-43,43-43s43,19.3,43,43
		C94.3,58.3,92.2,65.7,88.5,72z"/>
</g>
</svg>
