<?xml version="1.0" encoding="utf-8"?>
<!-- Generator: Adobe Illustrator 19.1.0, SVG Export Plug-In . SVG Version: 6.00 Build 0)  -->
<!DOCTYPE svg PUBLIC "-//W3C//DTD SVG 1.0//EN" "http://www.w3.org/TR/2001/REC-SVG-20010904/DTD/svg10.dtd">
<svg version="1.0" xmlns="http://www.w3.org/2000/svg" xmlns:xlink="http://www.w3.org/1999/xlink" x="0px" y="0px" width="108.3px"
	 height="106.4px" viewBox="0 0 108.3 106.4" enable-background="new 0 0 108.3 106.4" xml:space="preserve">
<g id="Layer_1">
</g>
<g id="Layer_2">
</g>
<g id="Layer_3">
</g>
<g id="Layer_4">
</g>
<g id="Layer_5">
	<path fill="#203B6A" d="M55.1,3.1c-27,0-49,22-49,49s22,49,49,49s49-22,49-49S82.1,3.1,55.1,3.1z M33.3,15.1c1-0.6,2-1.1,3-1.6
		v42.7l18-11.8l18,11.8V12.7c1,0.4,2,0.9,3,1.4v48.1l-21-13.7l-21,13.7V15.1z M67.3,10.9v36l-13-8.5l-13,8.5V11.4
		c4.4-1.5,9-2.3,13.9-2.3C59.3,9.1,63.4,9.8,67.3,10.9z M55.1,95.1c-23.7,0-43-19.3-43-43c0-13.6,6.3-25.7,16.1-33.5v52.9l26-17
		l26,17V17.3c10.8,7.8,17.9,20.5,17.9,34.8C98.1,75.9,78.8,95.1,55.1,95.1z"/>
</g>
<g id="Layer_6">
</g>
</svg>
