<?xml version="1.0" encoding="utf-8"?>
<!-- Generator: Adobe Illustrator 19.2.0, SVG Export Plug-In . SVG Version: 6.00 Build 0)  -->
<!DOCTYPE svg PUBLIC "-//W3C//DTD SVG 1.0//EN" "http://www.w3.org/TR/2001/REC-SVG-20010904/DTD/svg10.dtd">
<svg version="1.0" id="Layer_1" xmlns="http://www.w3.org/2000/svg" xmlns:xlink="http://www.w3.org/1999/xlink" x="0px" y="0px"
	 width="122.3px" height="55px" viewBox="0 0 122.3 55" enable-background="new 0 0 122.3 55" xml:space="preserve">
<g>
	<path fill="#3D6294" d="M31.1,22.1c1,0,1.8-0.8,1.8-1.8c0-1-0.8-1.8-1.8-1.8H20.5c-1,0-1.8,0.8-1.8,1.8v14.4c0,1,0.8,1.8,1.8,1.8
		h10.6c1,0,1.8-0.8,1.8-1.8c0-1-0.8-1.8-1.8-1.8h-8.8v-3.7h7.1c1,0,1.8-0.8,1.8-1.8c0-1-0.8-1.8-1.8-1.8h-7.1v-3.7H31.1L31.1,22.1z"
		/>
	<path fill="#3D6294" d="M101.8,32.9H93v-3.7h7.1c1,0,1.8-0.8,1.8-1.8c0-1-0.8-1.8-1.8-1.8H93v-3.7h8.8c1,0,1.8-0.8,1.8-1.8
		c0-1-0.8-1.8-1.8-1.8H91.2c-1,0-1.8,0.8-1.8,1.8v14.4c0,1,0.8,1.8,1.8,1.8h10.6c1,0,1.8-0.8,1.8-1.8
		C103.6,33.7,102.8,32.9,101.8,32.9L101.8,32.9z"/>
	<path fill="#3D6294" d="M45.4,27.4l5.7-5.8c0.7-0.7,0.7-1.8,0-2.5c-0.7-0.7-1.8-0.7-2.5,0l-5.6,5.7l-5.4-5.7
		c-0.7-0.7-1.8-0.7-2.5-0.1c-0.7,0.7-0.7,1.8-0.1,2.5l5.5,5.8l-6,6.1c-0.7,0.7-0.7,1.8,0,2.5c0.3,0.3,0.8,0.5,1.2,0.5
		c0.5,0,0.9-0.2,1.3-0.5l5.9-6l5.6,6c0.3,0.4,0.8,0.6,1.3,0.6c0.4,0,0.9-0.2,1.2-0.5c0.7-0.7,0.7-1.8,0.1-2.5L45.4,27.4L45.4,27.4z"
		/>
	<g>
		<path fill="#3D6294" d="M60.4,33.2c-3.1,0-5.7-2.5-5.7-5.7c0-3.1,2.5-5.7,5.7-5.7c3.1,0,5.7,2.5,5.7,5.7
			C66,30.6,63.5,33.2,60.4,33.2L60.4,33.2z M60.4,18.3c-5.1,0-9.2,4.1-9.2,9.2c0,5.1,4.1,9.2,9.2,9.2c5.1,0,9.2-4.1,9.2-9.2
			C69.6,22.4,65.4,18.3,60.4,18.3L60.4,18.3z"/>
		<path fill="#3D6294" d="M86.8,18.7c-0.9-0.5-1.9-0.1-2.4,0.7l-6,11.4l-6-11.4c-0.5-0.9-1.5-1.2-2.4-0.7c-0.9,0.5-1.2,1.5-0.7,2.4
			l7.6,14.4c0,0,0,0,0,0c0,0.1,0.1,0.1,0.1,0.2c0,0,0,0,0,0c0,0,0.1,0.1,0.1,0.1c0,0,0,0,0,0c0,0.1,0.1,0.1,0.2,0.1c0,0,0,0,0,0
			c0,0,0.1,0.1,0.1,0.1c0,0,0,0,0.1,0c0,0,0,0,0,0c0,0,0,0,0.1,0c0,0,0.1,0,0.1,0c0,0,0.1,0,0.1,0c0,0,0,0,0.1,0c0.1,0,0.1,0,0.2,0
			c0,0,0,0,0,0c0.1,0,0.2,0,0.2,0c0,0,0,0,0,0c0,0,0,0,0,0c0.1,0,0.1,0,0.2,0c0,0,0,0,0.1,0c0.1,0,0.1,0,0.2,0c0,0,0.1,0,0.1,0
			c0,0,0.1,0,0.1,0c0,0,0.1,0,0.1,0c0,0,0,0,0.1,0c0,0,0,0,0,0c0,0,0,0,0.1,0c0,0,0.1-0.1,0.1-0.1c0,0,0,0,0,0
			c0.1,0,0.1-0.1,0.2-0.1c0,0,0,0,0,0c0,0,0.1-0.1,0.1-0.1c0,0,0,0,0,0c0-0.1,0.1-0.1,0.1-0.2c0,0,0,0,0,0l7.5-14.4
			C88,20.3,87.7,19.2,86.8,18.7L86.8,18.7z"/>
	</g>
</g>
</svg>
