<?xml version="1.0" encoding="utf-8"?>
<!-- Generator: Adobe Illustrator 19.1.0, SVG Export Plug-In . SVG Version: 6.00 Build 0)  -->
<!DOCTYPE svg PUBLIC "-//W3C//DTD SVG 1.0//EN" "http://www.w3.org/TR/2001/REC-SVG-20010904/DTD/svg10.dtd">
<svg version="1.0" xmlns="http://www.w3.org/2000/svg" xmlns:xlink="http://www.w3.org/1999/xlink" x="0px" y="0px" width="108.3px"
	 height="106.4px" viewBox="0 0 108.3 106.4" enable-background="new 0 0 108.3 106.4" xml:space="preserve">
<g id="Layer_1">
</g>
<g id="Layer_2">
</g>
<g id="Layer_3">
</g>
<g id="Layer_4">
</g>
<g id="Layer_5">
	<g>
		<path fill="#203B6A" d="M60.2,24.1c-3.4,0-6.1,2.8-6.1,6.1s2.8,6.1,6.1,6.1c3.4,0,6.1-2.8,6.1-6.1S63.6,24.1,60.2,24.1z
			 M60.2,31.4c-0.6,0-1.1-0.5-1.1-1.1s0.5-1.1,1.1-1.1c0.6,0,1.1,0.5,1.1,1.1S60.8,31.4,60.2,31.4z"/>
		<path fill="#203B6A" d="M56.6,19.3c0-3.4-2.8-6.1-6.1-6.1s-6.1,2.8-6.1,6.1c0,3.4,2.8,6.1,6.1,6.1S56.6,22.7,56.6,19.3z
			 M49.3,19.3c0-0.6,0.5-1.1,1.1-1.1s1.1,0.5,1.1,1.1s-0.5,1.1-1.1,1.1S49.3,19.9,49.3,19.3z"/>
		<path fill="#203B6A" d="M48.7,28.3c-1.4,0-2.5,1.1-2.5,2.5s1.2,2.5,2.5,2.5c1.4,0,2.5-1.2,2.5-2.5S50.1,28.3,48.7,28.3z"/>
		<path fill="#203B6A" d="M54.9,3.5c-27,0-49,22-49,49s22,49,49,49s49-22,49-49S81.9,3.5,54.9,3.5z M47.3,44h16.1c0,0,0,16.5,0,16.5
			c0,7.6-5.2,18.8-8.1,18.8s-8.1-11.2-8.1-18.8V44z M58.3,95.4V83.5c2.5-1.4,4.7-4.5,6.7-9.1c2-4.6,3.3-10.4,3.3-13.9c0,0,0,0,0,0
			c0,0,0,0,0,0V41.2c0-1.4-0.9-2.2-2.3-2.2H44.3c-1.4,0-2,0.8-2,2.2v19.2c0,0,0,0,0,0c0,0,0,0,0,0c0,3.5,1.1,9.2,3.1,13.9
			c2.1,4.8,4.2,7.9,6.9,9.2v11.8c-22.5-1.3-40.4-20.1-40.4-42.9c0-23.7,19.3-43,43-43s43,19.3,43,43C97.9,75.1,80.4,93.6,58.3,95.4z
			"/>
	</g>
</g>
<g id="Layer_6">
</g>
</svg>
