<?xml version="1.0" encoding="utf-8"?>
<!-- Generator: Adobe Illustrator 19.2.0, SVG Export Plug-In . SVG Version: 6.00 Build 0)  -->
<!DOCTYPE svg PUBLIC "-//W3C//DTD SVG 1.0//EN" "http://www.w3.org/TR/2001/REC-SVG-20010904/DTD/svg10.dtd">
<svg version="1.0" id="Layer_1" xmlns="http://www.w3.org/2000/svg" xmlns:xlink="http://www.w3.org/1999/xlink" x="0px" y="0px"
	 width="122.3px" height="55px" viewBox="0 0 122.3 55" enable-background="new 0 0 122.3 55" xml:space="preserve">
<g>
	<g>
		<path fill="#3D6294" d="M34.1,36.8c0,3.6-2.7,4.4-5.9,4.4c-3.1,0-5.6-0.5-5.4-4.4h2c0,2.6,1.2,2.7,3.4,2.7c2.4,0,3.9-0.3,3.9-2.9
			v-3.1h-0.1c-0.6,1.6-2.7,1.8-4.3,1.8c-4.4,0-5.3-2.3-5.3-6.9c0-4.5,0.7-6.9,5.3-6.9c1.9,0,3.5,0.3,4.3,1.9l0.1,0v-1.7h2V36.8
			L34.1,36.8z M32.1,28.5c0-3.7-0.3-5.2-3.9-5.2c-3.7,0-3.7,1.7-3.7,5.2c0,3.2-0.2,5.2,3.7,5.2C32.1,33.7,32.1,31.5,32.1,28.5"/>
	</g>
	<path fill="#3D6294" d="M43.1,21.6c5,0,6,1.2,6,6.9c0,5.7-1,6.9-6,6.9c-5,0-6-1.2-6-6.9C37.1,22.8,38.1,21.6,43.1,21.6L43.1,21.6z
		 M43.1,33.7c3.6,0,3.9-0.6,3.9-5.2c0-4.7-0.3-5.2-3.9-5.2c-3.6,0-3.9,0.6-3.9,5.2C39.2,33.1,39.5,33.7,43.1,33.7"/>
	<path fill="#3D6294" d="M58.2,21.8v1.6h-3.6v11.8h-2V23.4h-2v-1.6h2v-1.6c0-3.3,1-4.3,4.3-4.3c0.4,0,0.8,0,1.3,0.1v1.6
		c-0.4,0-0.8-0.1-1.3-0.1c-2,0-2.3,0.7-2.3,2.5v1.8H58.2"/>
	<path fill="#3D6294" d="M65.4,21.6c5,0,6,1.2,6,6.9c0,5.7-1,6.9-6,6.9c-5,0-6-1.2-6-6.9C59.4,22.8,60.4,21.6,65.4,21.6L65.4,21.6z
		 M65.4,33.7c3.6,0,3.9-0.6,3.9-5.2c0-4.7-0.3-5.2-3.9-5.2c-3.6,0-3.9,0.6-3.9,5.2C61.5,33.1,61.8,33.7,65.4,33.7"/>
	<path fill="#3D6294" d="M76.2,21.8l-0.1,1.7l0.1,0.1c0.7-1.5,2.3-1.9,3.8-1.9c2.6,0,3.7,1.3,3.7,3.8v1h-1.9v-0.9
		c0-1.7-0.6-2.2-2.3-2.2c-2.5,0-3.3,1.2-3.3,3.6v8.4h-2V21.8H76.2"/>
	<path fill="#3D6294" d="M97,34.1l-0.4,0.2c0.1,0,0.1,0,0.2,0C97,34.3,97,34.2,97,34.1"/>
	<polyline fill="#3D6294" points="96.3,34.5 96.3,34.5 96.2,34.5 96.3,34.5 	"/>
	<path fill="#3D6294" d="M95.7,34.8c0.1,0,0.2-0.1,0.3-0.2C96,34.7,95.8,34.7,95.7,34.8"/>
	<path fill="#3D6294" d="M96.3,34.6c-0.1,0-0.1,0,0-0.1l0,0l-0.2,0.1C96.1,34.6,96.2,34.6,96.3,34.6"/>
	<path fill="#3D6294" d="M96.3,34.6c0.1,0,0.1,0,0.2,0L96.3,34.6"/>
	<path fill="#3D6294" d="M96.5,35.5c-0.1,0.1-0.1-0.2-0.3-0.1c-0.3,0.2-0.6,0.4-0.9,0.5c-0.1,0.1-0.4-0.1-0.6,0
		c-0.3,0.2-1.2,0.7-0.6,0.6c0.8-0.2,1.3-0.4,2-0.7c0.5-0.3,1-0.7,1.4-1.1c0.1-0.1,0.3-0.2,0.4-0.2c-0.2,0.1-0.4,0.1-0.6,0.2
		C97.1,34.8,96.9,35.3,96.5,35.5"/>
	<path fill="#3D6294" d="M99.5,32.5c0,0.1-0.1,0.2-0.1,0.2c-0.4,0.1-0.6,0.3-0.8,0.6l0.2,0c0.1-0.1,0.1-0.2-0.1-0.1
		c0.4-0.1,0.7-0.4,1-0.6C99.7,32.5,99.6,32.4,99.5,32.5"/>
	<polyline fill="#3D6294" points="99.9,32.4 99.7,32.5 99.8,32.5 99.9,32.4 99.9,32.4 	"/>
	<path fill="#3D6294" d="M94.4,35.5c-0.9,0.2-1.8,0.3-2.7,0.1c-0.1,0-0.1,0.1-0.2,0c-0.1-0.1-0.1-0.1-0.2-0.1l-0.4-0.1l-0.1,0l0,0
		c-0.1,0-0.1,0,0,0.1l0.1,0.1c0,0-0.1-0.1-0.1-0.1c0-0.1-0.1-0.1-0.2-0.1c-0.1,0-0.2-0.1-0.3-0.1c0.1,0,0.3,0.1,0.3,0.1l0.2,0l0.1,0
		c-0.3-0.1-0.5-0.2-0.8-0.3L89.9,35c-0.2-0.1-0.4-0.2-0.4-0.3l-0.1-0.1l0,0l0-0.1c-0.2-0.1-0.3-0.3-0.5-0.4
		c-0.1-0.1-0.3-0.1-0.4-0.2c0,0,0-0.1,0-0.2c-0.1,0-0.2,0-0.2-0.1c0,0.1,0,0.3,0,0.4c0,0.2,0.4,0.1,0.4,0.4c0-0.3-0.4-0.2-0.4-0.4
		c0-0.1,0-0.2,0-0.4c-0.2-0.1-0.3-0.4-0.2-0.7c0.2,0.2,0.2,0.4,0.2,0.7c0.1,0.1,0.2,0.1,0.2,0.1c0,0.1,0,0.2,0,0.2
		c0.1,0.1,0.3,0.2,0.4,0.2c-0.3-0.3-0.5-0.7-0.7-1c-0.6-1.2-0.6-2.6-0.5-3.9c0.1-1.4,0.5-2.6,1.3-3.8c0.8-1.3,2-2.5,3.1-2.7
		c0.5-0.1,0.7,0,1,0.3c0.1,0.1,0.1,0.1-0.2,0.7c-0.7,0.9-1.9,1.8-3.3,2.4c-1,0.5-2.8,1.7-3.7,2.2c-1,1,0,1.7,0.1,1.7
		c1.3,0.4,1.7-0.4,3.6-1c-1.3,0.4,0.5-1,1.9-1.2c1-0.2,2-0.8,2.9-1.9c0.4-0.6,0.9-1.1,1.1-2.2c0.1-0.5,0.1-1.2-0.2-1.8
		c-0.3-0.6-0.7-0.8-1-1.1c-0.7-0.6-2.1-0.8-3-0.4c-2.4,0.9-3.3,2.6-4.3,4.2c-0.4,0.7-0.9,1.9-1,2.8c-0.2,0.9-0.3,1.9-0.3,2.9
		c0,1.1,0.4,2.1,0.9,2.9c0.3,0.6,0.6,1.4,1,1.8c0.6,0.7,1.4,1.1,2.1,1.3c-0.8-0.3-1.3-0.6-2-1.3c-0.4-0.5,0.5,0.1,0.9,0.3
		c0.2,0.1,0.2,0.5,0.4,0.5c0.3,0.2,0.7,0.3,1.1,0.3c0.2,0,0.1,0.2,0.2,0.2c0.5,0.1,1-0.1,1.3,0c0.2,0.1,0.5,0.1,0.7,0.2
		c0.1,0,0.3,0,0.4,0l0.3-0.1c-0.1-0.1-0.1-0.2-0.1-0.3c0.1,0,0.3,0.1,0.4,0.1c-0.1,0-0.3,0-0.4-0.1c0,0.1,0.1,0.2,0.1,0.3
		c0.7-0.2,1.4-0.4,2-0.7l0,0c-0.4,0.1-0.8,0.2-1.2,0.1c0.2,0,0.2,0.1,0,0.1l-0.2-0.1c0.3-0.1,0.6-0.2,1-0.1c0,0,0.1-0.1,0.2-0.1
		c0.1,0,0.1,0.1,0.2,0.1l0.2-0.1C94.9,35.5,94.4,35.5,94.4,35.5"/>
	<path fill="#3D6294" d="M90.5,35.4l0.2,0c-0.2-0.1-0.5-0.2-0.7-0.3C90.1,35.3,90.3,35.3,90.5,35.4"/>
	<path fill="#3D6294" d="M89.2,29c1.5-0.5,3.1-1.1,4.3-2.2c0.2-0.2-0.1-0.5-0.3-0.3c-1.2,1.1-2.7,1.6-4.2,2.2
		C88.7,28.7,88.9,29.1,89.2,29"/>
</g>
</svg>
