<?xml version="1.0" encoding="utf-8"?>
<!-- Generator: Adobe Illustrator 19.2.0, SVG Export Plug-In . SVG Version: 6.00 Build 0)  -->
<!DOCTYPE svg PUBLIC "-//W3C//DTD SVG 1.0//EN" "http://www.w3.org/TR/2001/REC-SVG-20010904/DTD/svg10.dtd">
<svg version="1.0" id="Layer_1" xmlns="http://www.w3.org/2000/svg" xmlns:xlink="http://www.w3.org/1999/xlink" x="0px" y="0px"
	 width="122px" height="55px" viewBox="0 0 122 55" enable-background="new 0 0 122 55" xml:space="preserve">
<g>
	<g>
		<g>
			<path fill="#2B4D7E" d="M71.3,19.9c-4.7,0-8.6,3.9-8.6,8.6s3.9,8.6,8.6,8.6c4.7,0,8.6-3.9,8.6-8.6S76.1,19.9,71.3,19.9
				 M71.3,33.7c-2.8,0-5.2-2.3-5.2-5.2c0-2.8,2.3-5.2,5.2-5.2c2.8,0,5.2,2.3,5.2,5.2C76.5,31.3,74.2,33.7,71.3,33.7 M36.6,19.9
				c-4.7,0-8.6,3.9-8.6,8.6s3.9,8.6,8.6,8.6s8.6-3.9,8.6-8.6S41.3,19.9,36.6,19.9 M36.6,33.7c-2.8,0-5.2-2.3-5.2-5.2
				c0-2.8,2.3-5.2,5.2-5.2c2.8,0,5.2,2.3,5.2,5.2C41.7,31.3,39.4,33.7,36.6,33.7 M48.6,36.6H52v-6.4h7.5v-3.4H52v-2.9h7.7v-3.4H48.6
				V36.6z M111.3,23.9v-3.4h-11.2v16.1h11.2v-3.4h-7.7v-2.9h7.4v-3.4h-7.4v-2.9H111.3z M96.2,26.4c0-3.3-2.7-6-6.1-6h-6.8v16.1h3.4
				v-4.1h2.9l2.5,4.1h4l-3-4.9c0.5-0.3,0.9-0.6,1.3-1C95.6,29.5,96.3,28,96.2,26.4 M92.1,28.3c-0.5,0.5-1.1,0.8-1.8,0.8h-3.4v-5.2
				h3.4c1.4,0,2.6,1.1,2.6,2.6C92.8,27.1,92.6,27.8,92.1,28.3 M22.3,30.9h-0.5v1.3c-1,0.9-2.2,1.4-3.5,1.4c-1.4,0-2.7-0.5-3.6-1.5
				c-1-1-1.5-2.3-1.5-3.6c0-1.4,0.5-2.7,1.5-3.6c1-1,2.3-1.5,3.6-1.5c1.4,0,2.7,0.5,3.6,1.5l2.4-2.4c-1.6-1.6-3.8-2.5-6.1-2.5
				c-2.3,0-4.5,0.9-6.1,2.5c-1.6,1.6-2.5,3.8-2.5,6.1c0,2.3,0.9,4.5,2.5,6.1c1.6,1.6,3.8,2.5,6.1,2.5c2.3,0,4.5-0.9,6.1-2.5
				c0.2-0.2,0.4-0.4,0.6-0.7C24.9,32.9,24.4,30.9,22.3,30.9 M21.9,26.6h-4.1V30h4.6c1.3,0,2.3,0.6,2.9,1.6v-1.2c0-1.1-0.3-2-0.8-2.7
				C23.8,27,22.9,26.6,21.9,26.6"/>
		</g>
	</g>
</g>
</svg>
