<?xml version="1.0" encoding="utf-8"?>
<!-- Generator: Adobe Illustrator 19.2.0, SVG Export Plug-In . SVG Version: 6.00 Build 0)  -->
<!DOCTYPE svg PUBLIC "-//W3C//DTD SVG 1.0//EN" "http://www.w3.org/TR/2001/REC-SVG-20010904/DTD/svg10.dtd">
<svg version="1.0" id="Layer_1" xmlns="http://www.w3.org/2000/svg" xmlns:xlink="http://www.w3.org/1999/xlink" x="0px" y="0px"
	 width="122.3px" height="55px" viewBox="0 0 122.3 55" enable-background="new 0 0 122.3 55" xml:space="preserve">
<g>
	<g>
		<g>
			<path fill="#3D6294" d="M82.6,24.5h1.6v7.6h-1.6V24.5z M70.5,27.3l3.7,4.9h1.4v-7.6H74v4.7l-3.6-4.7h-1.5v7.6h1.7V27.3z
				 M17.4,29.1h3.1v3.1h1.7v-7.6h-1.7v3h-3.1v-3h-1.7v7.6h1.7V29.1z M105.3,32.2h1.8v-1.7h-1.8V32.2z M99.5,32.3
				c1.5,0,2.3-0.5,3.1-1.4l-1.1-1.1c-0.6,0.5-1.1,0.9-2,0.9c-1.3,0-2.2-1.1-2.2-2.4v0c0-1.3,0.9-2.4,2.2-2.4c0.8,0,1.4,0.3,1.9,0.9
				l1.1-1.2c-0.7-0.7-1.6-1.2-3-1.2c-2.3,0-4,1.8-4,4v0C95.6,30.6,97.2,32.3,99.5,32.3z M88.4,27.3l3.7,4.9h1.4v-7.6h-1.7v4.7
				l-3.6-4.7h-1.5v7.6h1.7V27.3z M9.6,19.3h103.2v18.5H9.6V19.3z M11.2,36.1h99.9V20.9H11.2V36.1z M37.9,32.3c2.1,0,3.4-1.1,3.4-3.4
				v-4.3h-1.7v4.4c0,1.2-0.6,1.8-1.6,1.8c-1,0-1.6-0.6-1.6-1.9v-4.3h-1.7v4.4C34.6,31.1,35.8,32.3,37.9,32.3z M24.3,28.4L24.3,28.4
				c0-2.2,1.7-4,4.1-4s4,1.8,4.1,3.9v0c0,2.2-1.7,4-4.1,4S24.3,30.6,24.3,28.4z M26,28.4c0,1.3,1,2.4,2.3,2.4c1.4,0,2.3-1.1,2.3-2.4
				v0c0-1.3-1-2.4-2.3-2.4C27,26,26,27,26,28.4L26,28.4z M46.6,30.8c-0.9,0-1.6-0.4-2.3-0.9l-1,1.2c0.9,0.8,2.1,1.2,3.2,1.2
				c1.7,0,2.8-0.9,2.8-2.4v0c0-1.3-0.9-1.9-2.4-2.3c-1.3-0.3-1.6-0.5-1.6-1v0c0-0.4,0.3-0.7,1-0.7c0.6,0,1.3,0.3,2,0.8l0.9-1.3
				c-0.8-0.6-1.7-1-2.8-1c-1.6,0-2.7,0.9-2.7,2.3v0c0,1.5,1,1.9,2.5,2.3c1.3,0.3,1.5,0.5,1.5,1v0C47.7,30.5,47.3,30.8,46.6,30.8z
				 M58.5,28.4L58.5,28.4c0-2.2,1.7-4,4.1-4c2.4,0,4.1,1.8,4.1,3.9v0c0,2.2-1.7,4-4.1,4C60.2,32.3,58.5,30.6,58.5,28.4z M60.3,28.4
				c0,1.3,1,2.4,2.3,2.4c1.4,0,2.3-1.1,2.3-2.4v0c0-1.3-1-2.4-2.3-2.4C61.3,26,60.3,27,60.3,28.4L60.3,28.4z M53.1,26.1v6.1h1.7
				v-6.1h2.3v-1.6h-6.3v1.6H53.1z"/>
		</g>
	</g>
</g>
</svg>
