<?xml version="1.0" encoding="UTF-8" standalone="no"?>
<svg width="51px" height="51px" viewBox="0 0 51 51" version="1.1" xmlns="http://www.w3.org/2000/svg" xmlns:xlink="http://www.w3.org/1999/xlink" xmlns:sketch="http://www.bohemiancoding.com/sketch/ns">
    <!-- Generator: Sketch 3.5.1 (25234) - http://www.bohemiancoding.com/sketch -->
    <title>LinkedIn</title>
    <desc>Created with Sketch.</desc>
    <defs></defs>
    <g id="Page-1" stroke="none" stroke-width="1" fill="none" fill-rule="evenodd" sketch:type="MSPage">
        <g id="Some-icons" sketch:type="MSArtboardGroup" transform="translate(-2.000000, -2.000000)">
            <g id="LinkedIn" sketch:type="MSLayerGroup">
                <g id="Group">
                    <g id="Layer_1"></g>
                    <g id="Layer_2"></g>
                    <g id="Layer_3"></g>
                    <g id="Layer_4"></g>
                    <g id="Layer_5" transform="translate(2.000000, 2.000000)" fill="#203B6A" sketch:type="MSShapeGroup">
                        <path d="M25.3,3.4 C31.2,3.4 36.7,5.7 40.9,9.8 C45.1,14 47.3,19.5 47.3,25.4 C47.3,31.3 45,36.8 40.9,41 C36.7,45.2 31.2,47.4 25.3,47.4 C19.4,47.4 13.9,45.1 9.7,41 C5.5,36.8 3.3,31.3 3.3,25.4 C3.3,19.5 5.6,14 9.7,9.8 C13.9,5.7 19.4,3.4 25.3,3.4 L25.3,3.4 Z M25.3,0.4 C18.6,0.4 12.3,3 7.6,7.7 C2.9,12.4 0.3,18.7 0.3,25.4 C0.3,32.1 2.9,38.4 7.6,43.1 C12.3,47.8 18.6,50.4 25.3,50.4 C32,50.4 38.3,47.8 43,43.1 C47.7,38.4 50.3,32.1 50.3,25.4 C50.3,18.7 47.7,12.4 43,7.7 C38.3,3 32,0.4 25.3,0.4 L25.3,0.4 L25.3,0.4 Z" id="Shape"></path>
                    </g>
                    <g id="Layer_6"></g>
                </g>
                <path d="M22.924,35 L22.924,21.308 L18.668,21.308 L18.668,35 L22.924,35 Z M20.824,15.372 C19.452,15.372 18.556,16.296 18.556,17.5 C18.556,18.676 19.424,19.628 20.768,19.628 C22.196,19.628 23.064,18.676 23.064,17.5 C23.036,16.296 22.196,15.372 20.824,15.372 L20.824,15.372 Z M25.34,35 L29.596,35 L29.596,27.104 C29.596,26.712 29.624,26.32 29.736,26.04 C30.044,25.256 30.744,24.444 31.92,24.444 C33.46,24.444 34.076,25.648 34.076,27.412 L34.076,35 L38.332,35 L38.332,26.908 C38.332,22.876 36.232,21 33.432,21 C31.136,21 29.764,22.316 29.204,23.212 L29.12,23.212 L28.924,21.308 L25.228,21.308 C25.284,22.54 25.34,23.968 25.34,25.676 L25.34,35 Z" id="in" fill="#203B6A" sketch:type="MSShapeGroup"></path>
            </g>
        </g>
    </g>
</svg>