<?xml version="1.0" encoding="UTF-8" standalone="no"?>
<svg width="99px" height="99px" viewBox="0 0 99 99" version="1.1" xmlns="http://www.w3.org/2000/svg" xmlns:xlink="http://www.w3.org/1999/xlink" xmlns:sketch="http://www.bohemiancoding.com/sketch/ns">
    <!-- Generator: Sketch 3.5.1 (25234) - http://www.bohemiancoding.com/sketch -->
    <title>finalists</title>
    <desc>Created with Sketch.</desc>
    <defs></defs>
    <g id="UI" stroke="none" stroke-width="1" fill="none" fill-rule="evenodd" sketch:type="MSPage">
        <g id="Icons" sketch:type="MSArtboardGroup" transform="translate(-6.000000, -3.000000)" fill="#213B6B">
            <g id="finalists" sketch:type="MSLayerGroup" transform="translate(6.000000, 3.000000)">
                <path d="M49.5,0 C22.162,0 0,22.162 0,49.5 C0,76.838 22.162,99 49.5,99 C76.838,99 99,76.838 99,49.5 C99,22.162 76.838,0 49.5,0 M49.5,6 C73.486,6 93,25.514 93,49.5 C93,73.486 73.486,93 49.5,93 C25.514,93 6,73.486 6,49.5 C6,25.514 25.514,6 49.5,6" id="Fill-1" sketch:type="MSShapeGroup"></path>
                <path d="M49.5,15.9791 L39.584,36.0711 L17.41,39.2931 L33.455,54.9331 L29.668,77.0171 L49.5,66.5911 L69.332,77.0171 L65.545,54.9331 L81.59,39.2931 L59.416,36.0711 L49.5,15.9791 Z M49.5,25.0171 L55.829,37.8421 L56.76,39.7271 L58.841,40.0301 L72.994,42.0861 L62.753,52.0691 L61.247,53.5371 L61.602,55.6091 L64.02,69.7051 L51.361,63.0501 L49.5,62.0711 L47.639,63.0501 L34.98,69.7051 L37.398,55.6091 L37.753,53.5371 L36.247,52.0691 L26.006,42.0861 L40.159,40.0301 L42.24,39.7271 L43.171,37.8421 L49.5,25.0171 Z" id="Fill-3" sketch:type="MSShapeGroup"></path>
            </g>
        </g>
    </g>
</svg>