<?xml version="1.0" encoding="UTF-8" standalone="no"?>
<svg width="99px" height="99px" viewBox="0 0 99 99" version="1.1" xmlns="http://www.w3.org/2000/svg" xmlns:xlink="http://www.w3.org/1999/xlink" xmlns:sketch="http://www.bohemiancoding.com/sketch/ns">
    <!-- Generator: Sketch 3.5.1 (25234) - http://www.bohemiancoding.com/sketch -->
    <title>venue</title>
    <desc>Created with Sketch.</desc>
    <defs></defs>
    <g id="UI" stroke="none" stroke-width="1" fill="none" fill-rule="evenodd" sketch:type="MSPage">
        <g id="Icons" sketch:type="MSArtboardGroup" transform="translate(-5.000000, -4.000000)" fill="#213B6B">
            <g id="venue" sketch:type="MSLayerGroup" transform="translate(5.000000, 4.000000)">
                <path d="M49.5,0 C22.162,0 0,22.162 0,49.5 C0,76.838 22.162,99 49.5,99 C76.838,99 99,76.838 99,49.5 C99,22.162 76.838,0 49.5,0 M49.5,6 C73.486,6 93,25.514 93,49.5 C93,73.486 73.486,93 49.5,93 C25.514,93 6,73.486 6,49.5 C6,25.514 25.514,6 49.5,6" id="Fill-1" sketch:type="MSShapeGroup"></path>
                <path d="M49.2956,21.1403 C37.8806,21.1403 28.6266,30.3943 28.6266,41.8093 C28.6266,53.2243 49.2956,78.6693 49.2956,78.6693 C49.2956,78.6693 69.9646,53.2243 69.9646,41.8093 C69.9646,30.3943 60.7106,21.1403 49.2956,21.1403 M49.2956,25.1403 C58.4866,25.1403 65.9646,32.6183 65.9646,41.8093 C65.9646,48.1563 56.7276,62.4043 49.2946,72.1883 C41.8626,62.4083 32.6266,48.1633 32.6266,41.8093 C32.6266,32.6183 40.1046,25.1403 49.2956,25.1403" id="Fill-3" sketch:type="MSShapeGroup"></path>
                <path d="M49.1624,34.3886 C45.5314,34.3886 42.5764,37.3436 42.5764,40.9746 C42.5764,44.6066 45.5314,47.5606 49.1624,47.5606 C52.7934,47.5606 55.7484,44.6066 55.7484,40.9746 C55.7484,37.3436 52.7934,34.3886 49.1624,34.3886 M49.1624,51.5606 C43.3254,51.5606 38.5764,46.8116 38.5764,40.9746 C38.5764,35.1376 43.3254,30.3886 49.1624,30.3886 C54.9994,30.3886 59.7484,35.1376 59.7484,40.9746 C59.7484,46.8116 54.9994,51.5606 49.1624,51.5606" id="Fill-5" sketch:type="MSShapeGroup"></path>
            </g>
        </g>
    </g>
</svg>