<?xml version="1.0" encoding="UTF-8" standalone="no"?>
<svg width="51px" height="51px" viewBox="0 0 51 51" version="1.1" xmlns="http://www.w3.org/2000/svg" xmlns:xlink="http://www.w3.org/1999/xlink" xmlns:sketch="http://www.bohemiancoding.com/sketch/ns">
    <!-- Generator: Sketch 3.5.1 (25234) - http://www.bohemiancoding.com/sketch -->
    <title>FB</title>
    <desc>Created with Sketch.</desc>
    <defs></defs>
    <g id="Page-1" stroke="none" stroke-width="1" fill="none" fill-rule="evenodd" sketch:type="MSPage">
        <g id="Some-icons" sketch:type="MSArtboardGroup" transform="translate(-2.000000, -2.000000)">
            <g id="FB" sketch:type="MSLayerGroup">
                <g id="Layer_1"></g>
                <g id="Layer_2"></g>
                <g id="Layer_3"></g>
                <g id="Layer_4"></g>
                <g id="Layer_5" transform="translate(2.000000, 2.000000)" fill="#203B6A" sketch:type="MSShapeGroup">
                    <path d="M25.3,3.4 C31.2,3.4 36.7,5.7 40.9,9.8 C45.1,14 47.3,19.5 47.3,25.4 C47.3,31.3 45,36.8 40.9,41 C36.7,45.2 31.2,47.4 25.3,47.4 C19.4,47.4 13.9,45.1 9.7,41 C5.5,36.8 3.3,31.3 3.3,25.4 C3.3,19.5 5.6,14 9.7,9.8 C13.9,5.7 19.4,3.4 25.3,3.4 L25.3,3.4 Z M25.3,0.4 C18.6,0.4 12.3,3 7.6,7.7 C2.9,12.4 0.3,18.7 0.3,25.4 C0.3,32.1 2.9,38.4 7.6,43.1 C12.3,47.8 18.6,50.4 25.3,50.4 C32,50.4 38.3,47.8 43,43.1 C47.7,38.4 50.3,32.1 50.3,25.4 C50.3,18.7 47.7,12.4 43,7.7 C38.3,3 32,0.4 25.3,0.4 L25.3,0.4 L25.3,0.4 Z" id="Shape"></path>
                    <path d="M30.9,20 L27,20 L27,17.6 C27,16.4 26.8,16 28.5,16 L31,16 L31,11 L27.1,11 C22.5,11 21,13.2 21,17.1 L21,20 L18,20 L18,25 L21,25 L21,39 L27,39 L27,25 L30.4,25 L30.9,20 L30.9,20 Z" id="Shape"></path>
                </g>
                <g id="Layer_6"></g>
            </g>
        </g>
    </g>
</svg>