<?xml version="1.0" encoding="UTF-8" standalone="no"?>
<svg width="51px" height="51px" viewBox="0 0 51 51" version="1.1" xmlns="http://www.w3.org/2000/svg" xmlns:xlink="http://www.w3.org/1999/xlink" xmlns:sketch="http://www.bohemiancoding.com/sketch/ns">
    <!-- Generator: Sketch 3.5.1 (25234) - http://www.bohemiancoding.com/sketch -->
    <title>Twitter</title>
    <desc>Created with Sketch.</desc>
    <defs></defs>
    <g id="Page-1" stroke="none" stroke-width="1" fill="none" fill-rule="evenodd" sketch:type="MSPage">
        <g id="Some-icons" sketch:type="MSArtboardGroup" transform="translate(-2.000000, -2.000000)">
            <g id="Twitter" sketch:type="MSLayerGroup">
                <g id="Group">
                    <g id="Layer_1"></g>
                    <g id="Layer_2"></g>
                    <g id="Layer_3"></g>
                    <g id="Layer_4"></g>
                    <g id="Layer_5" transform="translate(2.000000, 2.000000)" fill="#203B6A" sketch:type="MSShapeGroup">
                        <path d="M25.3,3.4 C31.2,3.4 36.7,5.7 40.9,9.8 C45.1,14 47.3,19.5 47.3,25.4 C47.3,31.3 45,36.8 40.9,41 C36.7,45.2 31.2,47.4 25.3,47.4 C19.4,47.4 13.9,45.1 9.7,41 C5.5,36.8 3.3,31.3 3.3,25.4 C3.3,19.5 5.6,14 9.7,9.8 C13.9,5.7 19.4,3.4 25.3,3.4 L25.3,3.4 Z M25.3,0.4 C18.6,0.4 12.3,3 7.6,7.7 C2.9,12.4 0.3,18.7 0.3,25.4 C0.3,32.1 2.9,38.4 7.6,43.1 C12.3,47.8 18.6,50.4 25.3,50.4 C32,50.4 38.3,47.8 43,43.1 C47.7,38.4 50.3,32.1 50.3,25.4 C50.3,18.7 47.7,12.4 43,7.7 C38.3,3 32,0.4 25.3,0.4 L25.3,0.4 L25.3,0.4 Z" id="Shape"></path>
                        <path d="M34.8,19.7 C35.8,19.1 36.5,18.2 36.8,17.2 C35.9,17.7 34.9,18.1 33.9,18.3 C33.1,17.4 31.9,16.9 30.6,16.9 C28.1,16.9 26,18.9 26,21.5 C26,21.8 26,22.2 26.1,22.5 C22.3,22.3 18.9,20.5 16.7,17.7 C16.3,18.4 16,19.2 16,20 C16,21.6 16.7,23 18,23.8 C17.2,23.8 16.5,23.6 15.8,23.2 L15.8,23.2 C15.8,25.4 17.5,27.3 19.6,27.7 C19.2,27.8 18.9,27.9 18.5,27.9 C18.2,27.9 17.9,27.9 17.7,27.8 C18.3,29.6 20,30.9 22,31 C20.4,32.2 18.5,33 16.3,33 C15.9,33 15.6,33 15.2,32.9 C17.2,34.2 19.6,34.9 22.2,34.9 C30.6,34.9 35.2,27.9 35.2,21.9 L35.2,21.3 C36.1,20.7 36.9,19.9 37.5,18.9 C36.6,19.4 35.7,19.6 34.8,19.7 L34.8,19.7 Z" id="Shape"></path>
                    </g>
                    <g id="Layer_6"></g>
                </g>
            </g>
        </g>
    </g>
</svg>