<?xml version="1.0" encoding="UTF-8" standalone="no"?>
<svg width="99px" height="100px" viewBox="0 0 99 100" version="1.1" xmlns="http://www.w3.org/2000/svg" xmlns:xlink="http://www.w3.org/1999/xlink" xmlns:sketch="http://www.bohemiancoding.com/sketch/ns">
    <!-- Generator: Sketch 3.5.1 (25234) - http://www.bohemiancoding.com/sketch -->
    <title>tickets</title>
    <desc>Created with Sketch.</desc>
    <defs>
        <path id="path-1" d="M0.632,44.178 C0.632,68.305 20.19,87.862 44.316,87.862 L44.316,87.862 C68.442,87.862 88,68.305 88,44.178 L88,44.178 C88,20.053 68.442,0.495 44.316,0.495 L44.316,0.495 C20.19,0.495 0.632,20.053 0.632,44.178 L0.632,44.178 Z"></path>
    </defs>
    <g id="UI" stroke="none" stroke-width="1" fill="none" fill-rule="evenodd" sketch:type="MSPage">
        <g id="Icons" sketch:type="MSArtboardGroup" transform="translate(-6.000000, -2.000000)">
            <g id="tickets" sketch:type="MSLayerGroup" transform="translate(6.000000, 2.000000)">
                <g id="Group-17" fill="#213B6B" sketch:type="MSShapeGroup">
                    <path d="M49.5,0.8623 C22.162,0.8623 0,23.0243 0,50.3623 C0,77.7003 22.162,99.8623 49.5,99.8623 C76.838,99.8623 99,77.7003 99,50.3623 C99,23.0243 76.838,0.8623 49.5,0.8623 M49.5,6.8623 C73.486,6.8623 93,26.3763 93,50.3623 C93,74.3483 73.486,93.8623 49.5,93.8623 C25.514,93.8623 6,74.3483 6,50.3623 C6,26.3763 25.514,6.8623 49.5,6.8623" id="Fill-1"></path>
                    <path d="M24.4543,55.7407 C25.1163,55.0787 26.0733,55.0417 26.7163,55.6857 C27.3603,56.3287 27.3233,57.2477 26.6423,57.9287 C25.9813,58.5907 25.0433,58.6457 24.3633,57.9657 C23.7383,57.3407 23.7923,56.4027 24.4543,55.7407" id="Fill-3"></path>
                    <path d="M28.2605,59.5469 C28.9225,58.8849 29.8785,58.8469 30.5225,59.4909 C31.1655,60.1349 31.1285,61.0539 30.4485,61.7349 C29.7865,62.3959 28.8485,62.4509 28.1685,61.7709 C27.5435,61.1459 27.5985,60.2089 28.2605,59.5469" id="Fill-5"></path>
                    <path d="M32.0654,63.3518 C32.7274,62.6898 33.6844,62.6528 34.3274,63.2968 C34.9714,63.9398 34.9344,64.8588 34.2534,65.5398 C33.5924,66.2018 32.6544,66.2568 31.9744,65.5768 C31.3494,64.9518 31.4034,64.0138 32.0654,63.3518" id="Fill-7"></path>
                    <path d="M35.8702,67.1566 C36.5322,66.4946 37.4892,66.4576 38.1322,67.1016 C38.7762,67.7446 38.7392,68.6636 38.0582,69.3446 C37.3972,70.0066 36.4592,70.0616 35.7792,69.3816 C35.1542,68.7566 35.2082,67.8186 35.8702,67.1566" id="Fill-9"></path>
                    <path d="M39.6765,70.9628 C40.3385,70.3008 41.2945,70.2628 41.9385,70.9068 C42.5815,71.5508 42.5445,72.4698 41.8645,73.1508 C41.2025,73.8118 40.2645,73.8668 39.5845,73.1868 C38.9595,72.5618 39.0145,71.6248 39.6765,70.9628" id="Fill-11"></path>
                    <path d="M43.4813,74.7677 C44.1433,74.1057 45.1003,74.0687 45.7433,74.7127 C46.3873,75.3557 46.3503,76.2747 45.6693,76.9557 C45.0083,77.6177 44.0703,77.6727 43.3903,76.9927 C42.7653,76.3677 42.8193,75.4297 43.4813,74.7677" id="Fill-13"></path>
                    <path d="M47.2875,78.5739 C47.9495,77.9119 48.9055,77.8739 49.5495,78.5179 C50.1925,79.1619 50.1555,80.0809 49.4755,80.7619 C48.8135,81.4229 47.8755,81.4779 47.1955,80.7979 C46.5705,80.1729 46.6255,79.2359 47.2875,78.5739" id="Fill-15"></path>
                </g>
                <g id="Group-20" transform="translate(5.000000, 6.000000)">
                    <mask id="mask-2" sketch:name="Clip 19" fill="white">
                        <use xlink:href="#path-1"></use>
                    </mask>
                    <g id="Clip-19"></g>
                    <path d="M29.3867,98 L-4.0233,64.59 L37.3417,23.224 L46.1867,32.069 L44.6257,33.619 C42.5797,35.668 41.4227,38.461 41.4227,41.433 C41.4227,44.404 42.5797,47.198 44.6817,49.3 C49.0077,53.624 56.0367,53.638 60.3767,49.337 C60.4087,49.3 60.4407,49.266 60.4737,49.232 L61.8867,47.77 L70.7517,56.635 L29.3867,98 Z M1.6327,64.59 L29.3867,92.344 L65.0957,56.635 L61.8337,53.373 C55.9057,57.991 47.3007,57.576 41.8537,52.128 C38.9957,49.271 37.4227,45.473 37.4227,41.433 C37.4227,38.025 38.5417,34.79 40.6077,32.146 L37.3417,28.881 L1.6327,64.59 Z" id="Fill-18" fill="#213B6B" sketch:type="MSShapeGroup" mask="url(#mask-2)"></path>
                </g>
            </g>
        </g>
    </g>
</svg>