<?xml version="1.0" encoding="utf-8"?>
<!-- Generator: Adobe Illustrator 19.1.0, SVG Export Plug-In . SVG Version: 6.00 Build 0)  -->
<!DOCTYPE svg PUBLIC "-//W3C//DTD SVG 1.0//EN" "http://www.w3.org/TR/2001/REC-SVG-20010904/DTD/svg10.dtd">
<svg version="1.0" xmlns="http://www.w3.org/2000/svg" xmlns:xlink="http://www.w3.org/1999/xlink" x="0px" y="0px" width="108.3px"
	 height="106.4px" viewBox="0 0 108.3 106.4" enable-background="new 0 0 108.3 106.4" xml:space="preserve">
<g id="Layer_1">
</g>
<g id="Layer_2">
</g>
<g id="Layer_3">
</g>
<g id="Layer_4">
</g>
<g id="Layer_5">
	<g>
		<path fill="#203B6A" d="M54.9,3.5c-27,0-49,22-49,49s22,49,49,49c27,0,49-22,49-49S81.9,3.5,54.9,3.5z M49.9,56.9
			c-0.7-0.9-0.7-2.2,0.1-3l4.7-4.7c0.9-0.9,2.3-0.9,3.1,0l4.7,4.7h0c0.4,0.4,0.6,1,0.6,1.6c0,0.6-0.2,1.1-0.6,1.6l-4.7,4.7
			c-0.7,0.7-1.8,0.8-2.7,0.3l-1.8-1.1l-1.4,1.6c-0.5,0.6-1,1.2-1.6,1.8c-1.2,1.4-2.6,3-4.4,4.9c-1.6,1.8-3.3,3.6-4.8,5.2
			C39.7,76,31.7,84.1,29,86.8c-1.3-1-2.6-2.1-3.8-3.2c2.4-2.4,11.1-11,12.7-12.5c1.5-1.4,3.4-3.1,5.2-4.8c2-1.8,3.5-3.2,4.9-4.4
			c0.6-0.5,1.1-0.9,1.6-1.4l2-1.7L49.9,56.9z M54.9,95.5c-7.9,0-15.3-2.1-21.7-5.9c3.2-3.2,10.2-10.3,11.6-11.8
			c1.5-1.6,3.2-3.4,4.9-5.2c1.8-2,3.2-3.6,4.4-5c0.1-0.2,0.3-0.3,0.4-0.5c2.4,0.6,5-0.1,6.8-1.9l4.7-4.7c1.4-1.4,2.1-3.2,2.1-5.1
			c0-1.9-0.7-3.7-2.1-5.1l-4.7-4.7c-2.8-2.8-7.4-2.8-10.2,0l-4.7,4.7c-2,2-2.6,5-1.6,7.6c-0.1,0.1-0.1,0.1-0.2,0.2
			c-1.4,1.2-3,2.6-5,4.4c-1.9,1.7-3.7,3.4-5.3,4.9c-1.6,1.6-10.1,9.9-12.6,12.5c-6.2-7.4-9.9-17-9.9-27.4c0-23.7,19.3-43,43-43
			c23.7,0,43,19.3,43,43S78.6,95.5,54.9,95.5z"/>
		<path fill="#203B6A" d="M69.8,58.6L59.7,68.7c-1.1,1.1-1.7,2.5-1.7,4c0,1.5,0.6,2.9,1.7,4c1.1,1.1,2.5,1.6,4,1.6s2.9-0.5,4-1.6
			l10.1-10.1c2.2-2.2,2.2-5.8,0-8S72,56.4,69.8,58.6z M74.3,63L64.2,73.1c-0.2,0.2-0.7,0.2-0.9,0c-0.2-0.2-0.2-0.3-0.2-0.4
			s0-0.3,0.2-0.4l10.1-10.1c0.1-0.1,0.3-0.2,0.4-0.2s0.3,0.1,0.4,0.2C74.5,62.4,74.5,62.8,74.3,63z"/>
		<path fill="#203B6A" d="M45.1,33.9L35,44c-2.2,2.2-2.2,5.8,0,8c1.1,1.1,2.5,1.7,4,1.7c1.5,0,2.9-0.6,4-1.7l10.1-10.1
			c2.2-2.2,2.2-5.8,0-8S47.3,31.7,45.1,33.9z M49.6,38.4L39.5,48.5c-0.2,0.2-0.3,0.2-0.4,0.2s-0.3,0-0.4-0.2c-0.2-0.2-0.2-0.7,0-0.9
			l10.1-10.1c0.1-0.1,0.3-0.2,0.4-0.2s0.3,0.1,0.4,0.2C49.8,37.7,49.8,38.1,49.6,38.4z"/>
	</g>
</g>
<g id="Layer_6">
</g>
</svg>
