<?xml version="1.0" encoding="utf-8"?>
<!-- Generator: Adobe Illustrator 19.1.0, SVG Export Plug-In . SVG Version: 6.00 Build 0)  -->
<svg version="1.1" id="Layer_1" xmlns="http://www.w3.org/2000/svg" xmlns:xlink="http://www.w3.org/1999/xlink" x="0px" y="0px"
	 viewBox="4 443.3 122.3 55" style="enable-background:new 4 443.3 122.3 55;" xml:space="preserve">
<style type="text/css">
	.st0{fill:#3D6294;}
	.st1{fill:none;}
	.st2{clip-path:url(#SVGID_2_);}
</style>
<title>Nitor Logo Light Background BW - export</title>
<path class="st0" d="M73.5,474.2c-3.8,3.2-3.9,8.5-0.3,11.7c3.5,3.2,9.3,3.3,12.9,0.2c3.8-3.2,3.8-8.4,0.2-11.7
	C82.8,471.3,77.1,471.2,73.5,474.2 M82.8,484.2c-2.6,1.3-6.1,0.8-7.6-1.5c-1.5-2.1-0.6-5.1,1.9-6.4c2.5-1.3,6-0.8,7.5,1.5
	C86,479.9,85.2,482.9,82.8,484.2"/>
<path class="st0" d="M104.5,481.7c1.6-0.3,4.4-1.2,4.4-4.5c0-4.7-5.5-4.7-5.5-4.7H92.1v15.5H96v-6.1h3.5l5.2,6.1h5.1L104.5,481.7z
	 M96,478.6v-2.9h6.5c0,0,2.6,0,2.6,1.4s-2.6,1.5-2.6,1.5H96z"/>
<path class="st0" d="M68.2,472.2C68.2,472.2,68.2,472.3,68.2,472.2L68.2,472.2c-0.1,0.1-0.1,0.1-0.1,0.1l0,0c0,0,0,0,0,0l0,0l0,0
	l0,0l-0.1,0l-0.1,0l-0.1,0l-0.1,0l-0.1,0l-0.1,0l-0.1,0l-0.1,0l-0.1,0l-0.1,0l-0.1,0l-0.1,0l-0.2,0.1l0,0l-0.2,0l-0.1,0
	c-0.1,0-0.2,0-0.3,0.1l0,0c-0.1,0-0.3,0-0.4,0.1h0l-0.4,0l-0.1,0l-0.4,0h0l-0.3,0l-0.1,0l-0.4,0h-0.1c-0.2,0-0.3,0-0.5,0h-0.1
	l-0.5,0h-0.2l-0.2,0h-0.2H62h-0.2h-0.1h-0.3H61h-0.3h0h-0.3h-0.1H60h-0.1h-0.2h-0.2l-0.3,0h0l-0.3,0h-0.1l-0.2,0l-0.1,0l-0.2,0
	l-0.2,0l-0.1,0l-0.2,0l-0.1,0l-0.2,0l-0.2,0l-0.2,0l-0.1,0l-0.2,0l-0.1,0l-0.3,0l-0.1,0l-0.3,0l-0.1,0l-0.1,0l-0.1,0l-0.1,0l-0.2,0
	h0l-0.2,0l-0.1,0l-0.1,0l-0.1,0l-0.1,0l-0.1,0l-0.1,0l-0.1,0l-0.1,0l0,0l-0.1,0l0,0l-0.1,0l0,0c0,0-0.1,0-0.1,0l0,0l-0.1,0l0,0
	c0,0,0,0,0,0l0,0l0,0l0,0c0,0,0,0,0,0c0,0,0,0,0,0c0,0,0,0,0,0c0,0,0,0,0,0c0,0,0,0,0-0.1v3.4c0,0,0,0,0,0.1c0,0,0,0,0,0
	c0,0,0,0,0,0c0,0,0,0,0,0c0,0,0,0,0,0l0,0l0,0c0,0,0,0,0,0l0,0l0,0l0.1,0l0,0l0.1,0l0,0l0.1,0l0,0l0.1,0l0.1,0l0.1,0l0.1,0l0.1,0
	l0.1,0l0.1,0l0.1,0l0.1,0l0.1,0l0.1,0l0.1,0h0l0.1,0l0.1,0l0.1,0l0.1,0h0h0l0.3,0h0h0l0.3,0.1h0l0.1,0l0.2,0h0.1h0.1l0.2,0l0.1,0h0
	l0.2,0h0.1h0l0.3,0h0.1h0l0.3,0h0.1l0,0c0.2,0,0.4,0,0.6,0h0v11.3h3.9v-11.3h0.1h0.1c0.2,0,0.3,0,0.5,0h0l0.4,0h0.1h0.1l0.4,0h0
	l0.4,0h0h0c0.1,0,0.3,0,0.4,0h0h0l0.4-0.1h0h0l0.3-0.1h0h0l0.2,0l0,0h0c0.1,0,0.2,0,0.2-0.1h0l0,0l0.2,0l0,0l0,0l0.1,0l0,0l0,0
	l0.1,0l0,0l0,0l0.1-0.1l0,0l0,0l0.1,0l0,0l0,0l0.1,0l0,0l0,0l0.1,0l0,0h0c0,0,0,0,0,0l0,0l0,0c0,0,0,0,0,0l0,0l0,0
	c0,0,0-0.1,0.1-0.1L68.2,472.2C68.2,472.2,68.2,472.2,68.2,472.2L68.2,472.2"/>
<rect x="44.9" y="472.5" class="st0" width="4.2" height="15.5"/>
<polygon class="st0" points="34.7,483.1 24.3,472.5 20.5,472.5 20.5,487.9 24.3,487.9 24.3,477.5 34.7,487.9 38.5,487.9 38.5,472.5 
	34.7,472.5 "/>
<path class="st0" d="M65.9,462.1c1.6,2.7-1.8,4.8-2.6,6.5c-0.6,1.1-0.5,1.9-0.4,2.6c0.3-0.8,0.9-1.8,2.1-2.7
	C66.6,467.4,68.2,465.3,65.9,462.1"/>
<path class="st0" d="M63.9,459.4c0.5,0.8,0.9,1.7,0.9,3c0,2.7-3.4,4.3-3.6,6.6c0,0.3,0,0.6,0.2,0.8c-0.6-0.6-1.1-2-0.8-3.2
	c0.6-2.3,3.9-4.1,3.5-6.4C64.1,460,64,459.7,63.9,459.4"/>
<rect x="-359.9" y="270.8" class="st1" width="850" height="400"/>
<path class="st0" d="M59.9,458c-1.1,2.3-2.8,3.3-3.9,5.7c-0.4,0.8-0.7,1.9-0.6,2.8c0.1,0.9,0.4,1.9,0.9,2.6c1,1.3,2.7,2.3,4.4,2.7
	c-0.6-0.4-1.2-1-1.6-1.6c-0.8-1.5-0.9-3.2-0.1-4.7c0.7-1.5,1.9-2.5,2.8-3.9c0.5-0.7,1.1-1.7,1-2.7c-0.2-2.2-1.8-4.3-3.2-5.6
	C61,454.6,60.4,457,59.9,458"/>
<g>
	<defs>
		<path id="SVGID_1_" d="M59.9,458c-1.1,2.3-2.8,3.3-3.9,5.7c-0.4,0.8-0.7,1.9-0.6,2.8c0.1,0.9,0.4,1.9,0.9,2.6
			c1,1.3,2.7,2.3,4.4,2.7c-0.6-0.4-1.2-1-1.6-1.6c-0.8-1.5-0.9-3.2-0.1-4.7c0.7-1.5,1.9-2.5,2.8-3.9c0.5-0.7,1.1-1.7,1-2.7
			c-0.2-2.2-1.8-4.3-3.2-5.6C61,454.6,60.4,457,59.9,458"/>
	</defs>
	<use xlink:href="#SVGID_1_"  style="overflow:visible;fill:#3D6294;"/>
	<clipPath id="SVGID_2_">
		<use xlink:href="#SVGID_1_"  style="overflow:visible;"/>
	</clipPath>
	<g class="st2">
		
			<rect x="50.8" y="452.6" transform="matrix(-0.8192 0.5736 -0.5736 -0.8192 372.9827 807.2809)" class="st0" width="16.9" height="19.6"/>
	</g>
</g>
</svg>
