<?xml version="1.0" encoding="utf-8"?>
<!-- Generator: Adobe Illustrator 19.2.0, SVG Export Plug-In . SVG Version: 6.00 Build 0)  -->
<!DOCTYPE svg PUBLIC "-//W3C//DTD SVG 1.0//EN" "http://www.w3.org/TR/2001/REC-SVG-20010904/DTD/svg10.dtd">
<svg version="1.0" id="Layer_1" xmlns="http://www.w3.org/2000/svg" xmlns:xlink="http://www.w3.org/1999/xlink" x="0px" y="0px"
	 width="122.3px" height="55px" viewBox="0 0 122.3 55" enable-background="new 0 0 122.3 55" xml:space="preserve">
<g>
	<path fill="#3D6294" d="M28.3,24.3c0,1.1-0.8,1.8-2.3,1.8h-2.3v-3.6h2.3C27.5,22.5,28.3,23.2,28.3,24.3 M33.1,35.3l-4-6.7
		c1.6-0.8,2.8-2.2,2.8-4.5c0-3.3-2.7-5.2-5.8-5.2h-6v16.3h3.6v-5.9h1.9l3.5,5.9H33.1z M42,28.2h-5.2c0.2-1,1.1-2.1,2.6-2.1
		C40.9,26.1,41.9,27.2,42,28.2 M45.2,30.6c0-0.3,0.1-0.8,0.1-1.2c0-3.3-2.4-6.1-6-6.1c-3.5,0-6,2.7-6,6.1c0,3.9,2.9,6.2,6.1,6.2
		c2.1,0,4.1-1.1,5.2-2.8L42,31.4c-0.6,0.7-1.4,1.2-2.5,1.2c-1.4,0-2.4-0.8-2.6-2H45.2z M54.6,30.8c0,0.3,0,0.5-0.2,0.8
		c-0.4,0.8-1.7,1.2-2.5,1.2c-0.9,0-1.7-0.3-1.7-1.1c0-1.1,1.3-1.3,2.2-1.5c1.1-0.2,1.5-0.3,2.2-0.4V30.8z M54.5,35.3h3.3V28
		c0-2.4-1.6-4.8-5.2-4.8c-3.3,0-5,1.9-5.4,3.3l3.1,0.6c0.3-0.5,1-1.1,2.1-1.1c1.3,0,2.1,0.7,2.1,1.4c-0.7,0.1-3.4,0.5-4.1,0.7
		c-2.1,0.4-3.7,1.6-3.7,3.8c0,2,1.8,3.6,4.1,3.6c1.6,0,2.7-0.6,3.6-1.5h0.2V35.3z M67.4,28.3l4.3-4.7h-4.2l-3.7,4v-8.5h-3.4v16.2
		h3.4v-3.1l1.3-1.4l0,0l4.3,7.2h4L67.4,28.3z M77,35.6c1.4,0,2.6-0.3,2.9-0.5v-2.9c-0.2,0.1-1.1,0.2-1.9,0.2c-1.1,0-1.6-0.7-1.6-1.8
		v-4.3h3.3v-2.8h-3.3v-3h-3.4v11C73.1,34,74.8,35.6,77,35.6 M90.2,29.3c0,2-1.3,3.2-2.9,3.2s-2.9-1.3-2.9-3.2c0-2,1.4-3.2,2.9-3.2
		C88.8,26.2,90.2,27.4,90.2,29.3 M93.5,29.3c0-3.4-2.7-6.1-6.1-6.1c-3.4,0-6.1,2.7-6.1,6.1c0,3.9,3,6.2,6.1,6.2
		C90.5,35.6,93.5,33.2,93.5,29.3 M102.3,26.7v-3.5c-1.6,0-3.1,1-3.5,1.7v-1.4h-3.4v11.7h3.4v-5.7C98.7,27.7,100.2,26.7,102.3,26.7"
		/>
</g>
</svg>
