<?xml version="1.0" encoding="utf-8"?>
<!-- Generator: Adobe Illustrator 19.1.0, SVG Export Plug-In . SVG Version: 6.00 Build 0)  -->
<!DOCTYPE svg PUBLIC "-//W3C//DTD SVG 1.0//EN" "http://www.w3.org/TR/2001/REC-SVG-20010904/DTD/svg10.dtd">
<svg version="1.0" xmlns="http://www.w3.org/2000/svg" xmlns:xlink="http://www.w3.org/1999/xlink" x="0px" y="0px" width="108.3px"
	 height="106.4px" viewBox="0 0 108.3 106.4" enable-background="new 0 0 108.3 106.4" xml:space="preserve">
<g id="Layer_1">
</g>
<g id="Layer_2">
</g>
<g id="Layer_3">
</g>
<g id="Layer_4">
</g>
<g id="Layer_5">
	<g>
		<g>
			<path fill="#203B6A" d="M54.9,86c-18.4,0-33.5-15-33.5-33.5s15-33.5,33.5-33.5c18.4,0,33.5,15,33.5,33.5S73.3,86,54.9,86z
				 M54.9,24.1c-15.7,0-28.5,12.8-28.5,28.5S39.2,81,54.9,81s28.5-12.8,28.5-28.5S70.5,24.1,54.9,24.1z"/>
		</g>
		<g>
			<polygon fill="#203B6A" points="66.5,70.3 51.4,53.3 59.2,38.7 63.6,41.1 57.4,52.6 70.2,67 			"/>
		</g>
	</g>
	<g id="XMLID_56_">
		<path fill="#203B6A" d="M54.9,101.5c-27,0-49-22-49-49s22-49,49-49s49,22,49,49S81.9,101.5,54.9,101.5z M54.9,9.5
			c-23.7,0-43,19.3-43,43s19.3,43,43,43s43-19.3,43-43S78.6,9.5,54.9,9.5z"/>
	</g>
</g>
<g id="Layer_6">
</g>
</svg>
