<?xml version="1.0" encoding="utf-8"?>
<!-- Generator: Adobe Illustrator 19.2.0, SVG Export Plug-In . SVG Version: 6.00 Build 0)  -->
<!DOCTYPE svg PUBLIC "-//W3C//DTD SVG 1.0//EN" "http://www.w3.org/TR/2001/REC-SVG-20010904/DTD/svg10.dtd">
<svg version="1.0" id="Layer_1" xmlns="http://www.w3.org/2000/svg" xmlns:xlink="http://www.w3.org/1999/xlink" x="0px" y="0px"
	 width="122.3px" height="55px" viewBox="0 0 122.3 55" enable-background="new 0 0 122.3 55" xml:space="preserve">
<g>
	<path fill="#3D6294" d="M49.8,28.6c0,4.9-2.8,6.1-5.9,6.1c-3.1,0-5.9-1.2-5.9-6.1c0-4.9,2.8-6.1,5.9-6.1S49.8,23.6,49.8,28.6
		 M52.8,28.6c0-5.3-3.3-8.5-8.9-8.5S35,23.3,35,28.6c0.1,5.3,3.3,8.5,8.9,8.5S52.8,33.9,52.8,28.6"/>
	<path fill="#3D6294" d="M71.3,36.9V22.2c0-1.9-1.4-1.9-2.9-1.9c0,7.6-0.1,16.6-0.1,16.6H71.3z"/>
	<path fill="#3D6294" d="M87.8,35.6c-0.4,1-0.9,1.3-2,1.3h-1.4l7.1-16.5h3.8l7.1,16.4c0,0-1.3-0.1-1.3-0.1c-1.3,0-1.8-0.2-2.2-1.3
		l-5.4-12.9h-0.3L87.8,35.6z"/>
	<path fill="#3D6294" d="M57.8,34.6h6.8c1.9,0,1.8,2,1.8,2h-8.7h-2.9V20.2c1.5,0,3,0,3,1.9V34.6z"/>
	<path fill="#3D6294" d="M33.5,31.9c0-3.7-4.1-4.1-7.3-4.9c-1.5-0.4-3-1-3-2.5c0-2,2.2-2.4,4.2-2.4c0.8,0,1.7,0.2,2.6,0.3
		c1.6,0.4,2-1.6,2-1.6c-0.6-0.3-2.6-0.7-4.5-0.7c-4.1,0-7.1,1.4-7.1,4.6c0,4,3.8,4.3,7.2,5.2c1.5,0.4,3,0.9,3,2.5
		c0,1.8-1.7,2.5-4,2.5c-1.5,0-2.5-0.1-4-0.7c-1.8-0.7-2.8,1.5-2.8,1.5c1.5,0.9,3.7,1.5,6.1,1.5C32.1,37.1,33.5,33.9,33.5,31.9"/>
	<path fill="#3D6294" d="M78.1,22.7h-3.3c-1.9,0-1.8-2.2-1.8-2.2h5h2.8h5c0,0,0.2,2.2-1.8,2.2h-3.3V37H78L78.1,22.7z"/>
</g>
</svg>
