<?xml version="1.0" encoding="utf-8"?>
<!-- Generator: Adobe Illustrator 19.1.0, SVG Export Plug-In . SVG Version: 6.00 Build 0)  -->
<!DOCTYPE svg PUBLIC "-//W3C//DTD SVG 1.0//EN" "http://www.w3.org/TR/2001/REC-SVG-20010904/DTD/svg10.dtd">
<svg version="1.0" xmlns="http://www.w3.org/2000/svg" xmlns:xlink="http://www.w3.org/1999/xlink" x="0px" y="0px" width="5px"
	 height="77px" viewBox="0 0 5 77" enable-background="new 0 0 5 77" xml:space="preserve">
<g id="Layer_1">
</g>
<g id="Layer_2">
</g>
<g id="Layer_3">
</g>
<g id="Layer_4">
</g>
<g id="Layer_5">
	<rect x="2.2" y="0" fill="#203B6A" width="3.1" height="77"/>
	<path fill="#FFFFFF" d="M5,77c0-2-1.7-2.8-2.8-3.4c-0.4-0.2-1.1-0.5-1.2-0.8c0.1-0.2,0.8-0.6,1.2-0.8C3.3,71.5,5,70.6,5,68.6
		c0-2-1.7-2.9-2.8-3.5C1.8,65,1.1,64.6,1,64.3c0.1-0.2,0.8-0.6,1.2-0.8C3.3,62.9,5,62,5,60.1s-1.7-2.9-2.8-3.5
		C1.8,56.4,1.1,56,1,55.8c0.1-0.2,0.8-0.6,1.2-0.8C3.3,54.4,5,53.5,5,51.5S3.3,48.6,2.2,48c-0.4-0.2-1.1-0.6-1.2-0.8
		c0.1-0.2,0.8-0.6,1.2-0.8C3.3,45.8,5,44.9,5,42.9S3.3,40,2.2,39.5c-0.4-0.2-1.1-0.6-1.2-0.8c0.1-0.2,0.8-0.6,1.2-0.8
		C3.3,37.2,5,36.3,5,34.3s-1.7-2.9-2.8-3.5c-0.4-0.2-1.1-0.6-1.2-0.8c0.1-0.2,0.8-0.6,1.2-0.8C3.3,28.7,5,27.8,5,25.8
		c0-2-1.7-2.9-2.8-3.5c-0.4-0.2-1.1-0.6-1.2-0.8c0.1-0.2,0.8-0.6,1.2-0.8C3.3,20.1,5,19.2,5,17.2s-1.7-2.9-2.8-3.5
		c-0.4-0.2-1.1-0.6-1.2-0.8c0.1-0.2,0.8-0.6,1.2-0.8C3.3,11.5,5,10.6,5,8.6S3.3,5.8,2.2,5.2C1.8,5,1.1,4.6,1,4.4
		c0.1-0.2,0.8-0.6,1.2-0.8C3.3,2.9,5,2,5,0H0v77H5z"/>
	<rect fill="#FFFFFF" width="2.5" height="77"/>
</g>
<g id="Layer_6">
</g>
</svg>
