<?xml version="1.0" encoding="utf-8"?>
<!-- Generator: Adobe Illustrator 19.2.0, SVG Export Plug-In . SVG Version: 6.00 Build 0)  -->
<!DOCTYPE svg PUBLIC "-//W3C//DTD SVG 1.0//EN" "http://www.w3.org/TR/2001/REC-SVG-20010904/DTD/svg10.dtd">
<svg version="1.0" id="Layer_1" xmlns="http://www.w3.org/2000/svg" xmlns:xlink="http://www.w3.org/1999/xlink" x="0px" y="0px"
	 width="52px" height="52px" viewBox="0 0 52 52" enable-background="new 0 0 52 52" xml:space="preserve">
<g>
	<path fill="#203B6A" d="M26.3,4.4c5.9,0,11.4,2.3,15.6,6.4c4.2,4.2,6.4,9.7,6.4,15.6S46,37.8,41.9,42c-4.2,4.2-9.7,6.4-15.6,6.4
		c-5.9,0-11.4-2.3-15.6-6.4c-4.2-4.2-6.4-9.7-6.4-15.6c0-5.9,2.3-11.4,6.4-15.6C14.9,6.7,20.4,4.4,26.3,4.4 M26.3,1.4
		c-6.7,0-13,2.6-17.7,7.3c-4.7,4.7-7.3,11-7.3,17.7c0,6.7,2.6,13,7.3,17.7c4.7,4.7,11,7.3,17.7,7.3c6.7,0,13-2.6,17.7-7.3
		c4.7-4.7,7.3-11,7.3-17.7s-2.6-13-7.3-17.7C39.3,4,33,1.4,26.3,1.4L26.3,1.4z"/>
</g>
<path fill="#203B6A" d="M35.8,20.7c1-0.6,1.7-1.5,2-2.5c-0.9,0.5-1.9,0.9-2.9,1.1c-0.8-0.9-2-1.4-3.3-1.4c-2.5,0-4.6,2-4.6,4.6
	c0,0.3,0,0.7,0.1,1c-3.8-0.2-7.2-2-9.4-4.8C17.3,19.4,17,20.2,17,21c0,1.6,0.7,3,2,3.8c-0.8,0-1.5-0.2-2.2-0.6c0,0,0,0,0,0
	c0,2.2,1.7,4.1,3.8,4.5c-0.4,0.1-0.7,0.2-1.1,0.2c-0.3,0-0.6,0-0.8-0.1c0.6,1.8,2.3,3.1,4.3,3.2c-1.6,1.2-3.5,2-5.7,2
	c-0.4,0-0.7,0-1.1-0.1c2,1.3,4.4,2,7,2c8.4,0,13-7,13-13c0-0.2,0-0.4,0-0.6c0.9-0.6,1.7-1.4,2.3-2.4C37.6,20.4,36.7,20.6,35.8,20.7z
	"/>
</svg>
