<?xml version="1.0" encoding="utf-8"?>
<!-- Generator: Adobe Illustrator 19.2.0, SVG Export Plug-In . SVG Version: 6.00 Build 0)  -->
<!DOCTYPE svg PUBLIC "-//W3C//DTD SVG 1.0//EN" "http://www.w3.org/TR/2001/REC-SVG-20010904/DTD/svg10.dtd">
<svg version="1.0" id="Layer_1" xmlns="http://www.w3.org/2000/svg" xmlns:xlink="http://www.w3.org/1999/xlink" x="0px" y="0px"
	 width="122.3px" height="55px" viewBox="0 0 122.3 55" enable-background="new 0 0 122.3 55" xml:space="preserve">
<g>
	<polygon fill="#3D6294" points="38.4,37.7 43.4,37.7 43.4,18.2 38.4,18.2 38.4,37.7 	"/>
	<polygon fill="#3D6294" points="106,18.2 91.2,18.2 91.2,18.2 91.2,21.8 91.2,23.1 96.2,23.1 96.2,37.7 101.1,37.7 101.1,23.1 
		106,23.1 106,18.2 	"/>
	<polygon fill="#3D6294" points="26.6,28 21.9,18.2 16.3,18.2 26.6,37.7 37.2,18.2 31.7,18.2 26.6,28 	"/>
	<g>
		<polygon fill="#3D6294" points="56.9,28 45.8,18.2 45.8,37.7 50.7,37.7 50.7,29.1 61.8,38.8 61.8,18.2 56.9,18.2 56.9,28 		"/>
		<path fill="#3D6294" d="M77.5,30.4c-0.8,1.3-2.1,2.2-3.7,2.4c-2.7,0.3-5-1.7-5.3-4.3c-0.3-2.7,1.7-5,4.3-5.3
			c1.6-0.2,3.1,0.5,4.1,1.6l3.6-3.3c-2-2.2-5-3.5-8.2-3.1c-5.4,0.5-9.3,5.3-8.7,10.7c0.5,5.4,5.3,9.3,10.7,8.7
			c3.2-0.3,5.9-2.1,7.4-4.7L77.5,30.4L77.5,30.4z"/>
	</g>
	<polygon fill="#3D6294" points="83.9,37.7 88.8,37.7 88.8,18.2 83.9,18.2 83.9,37.7 	"/>
</g>
</svg>
