<?xml version="1.0" encoding="utf-8"?>
<!-- Generator: Adobe Illustrator 19.2.0, SVG Export Plug-In . SVG Version: 6.00 Build 0)  -->
<!DOCTYPE svg PUBLIC "-//W3C//DTD SVG 1.0//EN" "http://www.w3.org/TR/2001/REC-SVG-20010904/DTD/svg10.dtd">
<svg version="1.0" id="Layer_1" xmlns="http://www.w3.org/2000/svg" xmlns:xlink="http://www.w3.org/1999/xlink" x="0px" y="0px"
	 width="383px" height="29px" viewBox="0 0 383 29" enable-background="new 0 0 383 29" xml:space="preserve">
<g>
	<path fill="none" stroke="#203B6A" stroke-width="11" stroke-linecap="round" stroke-miterlimit="10" d="M376.1,20.3
		c-10.3,0-10.3-12-20.5-12c-10.3,0-10.3,12-20.5,12c-10.3,0-10.3-12-20.5-12c-10.3,0-10.3,12-20.5,12c-10.3,0-10.3-12-20.5-12
		c-10.3,0-10.3,12-20.5,12c-10.3,0-10.3-12-20.5-12c-10.3,0-10.3,12-20.5,12c-10.3,0-10.3-12-20.5-12c-10.3,0-10.3,12-20.5,12
		c-10.3,0-10.3-12-20.5-12c-10.3,0-10.3,12-20.5,12c-10.3,0-10.3-12-20.5-12c-10.3,0-10.3,12-20.5,12c-10.3,0-10.3-12-20.5-12
		c-10.3,0-10.3,12-20.5,12c-10.3,0-10.3-12-20.5-12s-10.3,12-20.5,12"/>
</g>
</svg>
