<?xml version="1.0" encoding="utf-8"?>
<!-- Generator: Adobe Illustrator 19.1.0, SVG Export Plug-In . SVG Version: 6.00 Build 0)  -->
<!DOCTYPE svg PUBLIC "-//W3C//DTD SVG 1.0//EN" "http://www.w3.org/TR/2001/REC-SVG-20010904/DTD/svg10.dtd">
<svg version="1.0" id="Layer_1" xmlns="http://www.w3.org/2000/svg" xmlns:xlink="http://www.w3.org/1999/xlink" x="0px" y="0px"
	 width="389.2px" height="24.5px" viewBox="0 0 389.2 24.5" enable-background="new 0 0 389.2 24.5" xml:space="preserve">
<g>
	<path fill="none" stroke="#203B6A" stroke-width="11" stroke-linecap="round" stroke-miterlimit="10" d="M382.4,18.3
		c-10.4,0-10.4-12-20.9-12c-10.4,0-10.4,12-20.9,12c-10.4,0-10.4-12-20.9-12c-10.4,0-10.4,12-20.9,12c-10.4,0-10.4-12-20.9-12
		c-10.4,0-10.4,12-20.9,12c-10.4,0-10.4-12-20.9-12c-10.4,0-10.4,12-20.9,12c-10.4,0-10.4-12-20.9-12c-10.4,0-10.4,12-20.9,12
		c-10.4,0-10.4-12-20.9-12c-10.4,0-10.4,12-20.9,12c-10.4,0-10.4-12-20.9-12c-10.4,0-10.4,12-20.9,12c-10.4,0-10.4-12-20.9-12
		c-10.4,0-10.4,12-20.9,12c-10.4,0-10.4-12-20.9-12s-10.4,12-20.9,12"/>
</g>
</svg>
