<?xml version="1.0" encoding="UTF-8" standalone="no"?>
<svg width="792px" height="14px" viewBox="0 0 792 14" version="1.1" xmlns="http://www.w3.org/2000/svg" xmlns:xlink="http://www.w3.org/1999/xlink" xmlns:sketch="http://www.bohemiancoding.com/sketch/ns">
    <!-- Generator: Sketch 3.4.4 (17249) - http://www.bohemiancoding.com/sketch -->
    <title>Shape</title>
    <desc>Created with Sketch.</desc>
    <defs></defs>
    <g id="UI" stroke="none" stroke-width="1" fill="none" fill-rule="evenodd" sketch:type="MSPage">
        <g id="Categories" sketch:type="MSArtboardGroup" transform="translate(-243.000000, -2192.000000)" fill="#1F3B6A">
            <path d="M1033.70612,2204 C1027.65181,2204 1024.67581,2202.58886 1019.14184,2198.21543 C1013.28757,2193.58886 1009.93677,2192 1003.33749,2192 C996.737718,2192 993.386518,2193.58894 987.532141,2198.21542 C987.531926,2198.21559 987.531926,2198.21559 987.531711,2198.21576 C981.997921,2202.58889 979.021832,2204 972.967703,2204 C966.913366,2204 963.937224,2202.58878 958.403581,2198.21544 C958.403366,2198.21527 958.403366,2198.21527 958.403151,2198.2151 C952.549486,2193.58884 949.198825,2192 942.600214,2192 C936.000445,2192 932.649245,2193.58894 926.794868,2198.21542 C926.794653,2198.21559 926.794653,2198.21559 926.794438,2198.21576 C921.260648,2202.58889 918.284559,2204 912.23043,2204 C906.175122,2204 903.198635,2202.58884 897.663799,2198.21538 C891.808676,2193.58884 888.457408,2192 881.857206,2192 C875.257465,2192 871.906429,2193.58885 866.051732,2198.21541 C860.51733,2202.58885 857.541089,2204 851.486276,2204 C845.432147,2204 842.456058,2202.58889 836.922268,2198.21576 C836.922053,2198.21559 836.922053,2198.21559 836.921838,2198.21542 C831.067461,2193.58894 827.716261,2192 821.116492,2192 C814.517421,2192 811.166527,2193.58883 805.312437,2198.21508 C805.312222,2198.21525 805.312222,2198.21525 805.312007,2198.21542 C799.77793,2202.58877 796.801543,2204 790.746709,2204 C784.691896,2204 781.715655,2202.58885 776.181253,2198.21541 C770.326556,2193.58885 766.97552,2192 760.375779,2192 C753.776247,2192 750.425121,2193.58882 744.570605,2198.21505 C744.57039,2198.21522 744.57039,2198.21522 744.570175,2198.21539 C739.035664,2202.58876 736.059031,2204 730.003701,2204 C723.948581,2204 720.972001,2202.58887 715.437342,2198.21571 C715.437127,2198.21554 715.437127,2198.21554 715.436912,2198.21537 C709.581684,2193.58892 706.230019,2192 699.62933,2192 C693.029102,2192 689.677669,2193.58893 683.822867,2198.21539 C683.822652,2198.21556 683.822652,2198.21556 683.822436,2198.21573 C678.288212,2202.58888 675.311878,2204 669.257253,2204 C663.202133,2204 660.225553,2202.58887 654.690894,2198.21571 C654.690679,2198.21554 654.690679,2198.21554 654.690464,2198.21537 C648.835235,2193.58892 645.48357,2192 638.882882,2192 C632.28335,2192 628.932225,2193.58882 623.077708,2198.21505 C623.077493,2198.21522 623.077493,2198.21522 623.077278,2198.21539 C617.542767,2202.58876 614.566134,2204 608.510805,2204 C602.455496,2204 599.479009,2202.58884 593.944173,2198.21538 C588.08905,2193.58884 584.737782,2192 578.13758,2192 C571.537589,2192 568.186231,2193.58881 562.331289,2198.21503 C562.331074,2198.2152 562.331074,2198.2152 562.330859,2198.21537 C556.795913,2202.58875 553.819035,2204 547.763209,2204 C541.708089,2204 538.731509,2202.58887 533.19685,2198.21571 C533.196635,2198.21554 533.196635,2198.21554 533.19642,2198.21537 C527.341192,2193.58892 523.989527,2192 517.388838,2192 C510.789557,2192 507.438753,2193.58886 501.584482,2198.21543 C496.050515,2202.58886 493.074519,2204 487.020202,2204 C480.964893,2204 477.988406,2202.58884 472.45357,2198.21538 C466.598447,2193.58884 463.247179,2192 456.646978,2192 C450.046776,2192 446.695508,2193.58884 440.840385,2198.21538 C435.305549,2202.58884 432.329062,2204 426.273753,2204 C420.218137,2204 417.241312,2202.58886 411.706218,2198.21569 C411.706003,2198.21552 411.706003,2198.21552 411.705788,2198.21535 C405.850134,2193.58891 402.498237,2192 395.897088,2192 C389.296637,2192 385.945046,2193.5888 380.089679,2198.21501 C380.089464,2198.21518 380.089464,2198.21518 380.089249,2198.21535 C374.553868,2202.58874 371.576744,2204 365.520423,2204 C359.464102,2204 356.486978,2202.58874 350.951598,2198.21535 C350.951383,2198.21518 350.951383,2198.21518 350.951168,2198.21501 C345.0958,2193.5888 341.74421,2192 335.143758,2192 C328.54215,2192 325.19002,2193.5889 319.33394,2198.21533 C319.333725,2198.2155 319.333725,2198.2155 319.33351,2198.21567 C313.797983,2202.58885 310.820912,2204 304.764799,2204 C298.707507,2204 295.730038,2202.5888 290.193465,2198.21529 C284.336638,2193.5888 280.984441,2192 274.3824,2192 C267.780358,2192 264.428161,2193.5888 258.571335,2198.21529 C253.034761,2202.5888 250.057292,2204 244,2204 C243.447715,2204 243,2204.44772 243,2205 C243,2205.55228 243.447715,2206 244,2206 C250.602041,2206 253.954239,2204.4112 259.811065,2199.78471 C265.347639,2195.4112 268.325108,2194 274.3824,2194 C280.439692,2194 283.417161,2195.4112 288.953734,2199.78471 C294.810561,2204.4112 298.162758,2206 304.764799,2206 C311.365711,2206 314.717534,2204.41121 320.573327,2199.78501 C320.573542,2199.78484 320.573542,2199.78484 320.573757,2199.78467 C326.109572,2195.41127 329.086941,2194 335.143758,2194 C341.199375,2194 344.1762,2195.41114 349.711293,2199.78431 C349.711508,2199.78448 349.711508,2199.78448 349.711723,2199.78465 C355.567378,2204.41109 358.919275,2206 365.520423,2206 C372.121572,2206 375.473469,2204.41109 381.329123,2199.78465 C381.329338,2199.78448 381.329338,2199.78448 381.329553,2199.78431 C386.864647,2195.41114 389.841472,2194 395.897088,2194 C401.953409,2194 404.930533,2195.41126 410.465914,2199.78465 C410.466129,2199.78482 410.466129,2199.78482 410.466344,2199.78499 C416.321711,2204.4112 419.673302,2206 426.273753,2206 C432.873955,2206 436.225223,2204.41116 442.080346,2199.78462 C447.615182,2195.41116 450.591669,2194 456.646978,2194 C462.702286,2194 465.678773,2195.41116 471.213609,2199.78462 C477.068732,2204.41116 480.42,2206 487.020202,2206 C493.619483,2206 496.970286,2204.41114 502.824558,2199.78457 C508.358525,2195.41114 511.334521,2194 517.388838,2194 C523.444663,2194 526.421542,2195.41125 531.956488,2199.78463 C531.956703,2199.7848 531.956703,2199.7848 531.956918,2199.78497 C537.81186,2204.41119 541.163218,2206 547.763209,2206 C554.363898,2206 557.715563,2204.41108 563.570791,2199.78463 C563.571006,2199.78446 563.571006,2199.78446 563.571221,2199.78429 C569.10588,2195.41113 572.08246,2194 578.13758,2194 C584.192889,2194 587.169376,2195.41116 592.704212,2199.78462 C598.559335,2204.41116 601.910603,2206 608.510805,2206 C615.111033,2206 618.462466,2204.41107 624.317268,2199.78461 C624.317484,2199.78444 624.317484,2199.78444 624.317699,2199.78427 C629.851923,2195.41112 632.828257,2194 638.882882,2194 C644.938707,2194 647.915586,2195.41125 653.450531,2199.78463 C653.450746,2199.7848 653.450746,2199.7848 653.450961,2199.78497 C659.305903,2204.41119 662.657262,2206 669.257253,2206 C675.856785,2206 679.20791,2204.41118 685.062427,2199.78495 C685.062642,2199.78478 685.062642,2199.78478 685.062857,2199.78461 C690.597368,2195.41124 693.574001,2194 699.62933,2194 C705.685156,2194 708.662034,2195.41125 714.19698,2199.78463 C714.197195,2199.7848 714.197195,2199.7848 714.19741,2199.78497 C720.052352,2204.41119 723.40371,2206 730.003701,2206 C736.60393,2206 739.955363,2204.41107 745.810165,2199.78461 C745.81038,2199.78444 745.81038,2199.78444 745.810595,2199.78427 C751.34482,2195.41112 754.321154,2194 760.375779,2194 C766.430591,2194 769.406833,2195.41115 774.941234,2199.78459 C780.795932,2204.41115 784.146967,2206 790.746709,2206 C797.346478,2206 800.697678,2204.41106 806.552055,2199.78458 C806.55227,2199.78441 806.55227,2199.78441 806.552485,2199.78424 C812.086275,2195.41111 815.062364,2194 821.116492,2194 C827.171326,2194 830.147713,2195.41123 835.68179,2199.78458 C835.682005,2199.78475 835.682005,2199.78475 835.68222,2199.78492 C841.536311,2204.41117 844.887204,2206 851.486276,2206 C858.086017,2206 861.437053,2204.41115 867.29175,2199.78459 C872.826152,2195.41115 875.802393,2194 881.857206,2194 C887.912515,2194 890.889002,2195.41116 896.423838,2199.78462 C902.278961,2204.41116 905.630229,2206 912.23043,2206 C918.829502,2206 922.180395,2204.41117 928.034486,2199.78492 C928.034701,2199.78475 928.034701,2199.78475 928.034916,2199.78458 C933.568993,2195.41123 936.54538,2194 942.600214,2194 C948.653847,2194 951.62969,2195.4111 957.163046,2199.78422 C957.163261,2199.78439 957.163261,2199.78439 957.163476,2199.78456 C963.017427,2204.41105 966.368395,2206 972.967703,2206 C979.566775,2206 982.917668,2204.41117 988.771759,2199.78492 C988.771974,2199.78475 988.771974,2199.78475 988.772189,2199.78458 C994.306266,2195.41123 997.282653,2194 1003.33749,2194 C1009.3918,2194 1012.3678,2195.41114 1017.90177,2199.78457 C1023.75604,2204.41114 1027.10684,2206 1033.70612,2206 C1034.25841,2206 1034.70612,2205.55228 1034.70612,2205 C1034.70612,2204.44772 1034.25841,2204 1033.70612,2204 L1033.70612,2204 Z" id="Shape" sketch:type="MSShapeGroup"></path>
        </g>
    </g>
</svg>