<?xml version="1.0" encoding="utf-8"?>
<!-- Generator: Adobe Illustrator 19.2.0, SVG Export Plug-In . SVG Version: 6.00 Build 0)  -->
<!DOCTYPE svg PUBLIC "-//W3C//DTD SVG 1.0//EN" "http://www.w3.org/TR/2001/REC-SVG-20010904/DTD/svg10.dtd">
<svg version="1.0" id="Layer_1" xmlns="http://www.w3.org/2000/svg" xmlns:xlink="http://www.w3.org/1999/xlink" x="0px" y="0px"
	 width="102.3px" height="102.3px" viewBox="0 0 102.3 102.3" enable-background="new 0 0 102.3 102.3" xml:space="preserve">
<g>
	<path fill="#203B6A" d="M100.1,51.4c0-27-22-49-49-49s-49,22-49,49c0,25.8,20,46.9,45.3,48.8c0.7,0.2,1.5,0.3,2.3,0.3
		c0.6,0,1.2-0.1,1.7-0.2C78.3,100.2,100.1,78.3,100.1,51.4z M48.7,94.4c-0.8-0.4-1.4-1.2-1.4-2.2c0-1.3,1.1-2.4,2.4-2.4
		s2.4,1.1,2.4,2.4c0,1-0.6,1.9-1.5,2.3C50,94.4,49.3,94.4,48.7,94.4z M49.7,83.7c-4.7,0-8.4,3.8-8.4,8.4c0,0.4,0,0.8,0.1,1.1
		c-19-4.4-33.2-21.5-33.2-41.9c0-23.7,19.3-43,43-43s43,19.3,43,43c0,21.4-15.7,39.1-36.1,42.4c0.1-0.6,0.2-1.1,0.2-1.7
		C58.2,87.5,54.4,83.7,49.7,83.7z"/>
	<path fill="#203B6A" d="M71.5,46.8c0-5-4.9-18.9-20.6-18.9c-12.7,0-18.8,10.7-20.2,16.3l4.8,1.2c0.1-0.5,3.4-12.6,15.4-12.6
		c12.7,0,15.6,11.7,15.6,13.8c0,13.8-9.7,16.6-17.7,16.6h-2.5v14h5v-8.9C64.2,67.5,71.5,59.7,71.5,46.8z"/>
</g>
</svg>
