<svg width="80" height="108" viewBox="0 0 80 108" xmlns="http://www.w3.org/2000/svg"><title>header-logo</title><defs><linearGradient x1="21.464%" y1="18.364%" x2="74.528%" y2="74.165%" id="a"><stop offset="0%"/><stop stop-opacity="0" offset="100%"/></linearGradient></defs><g fill="none" fill-rule="evenodd"><path d="M45.48 39c7.884 10.21 6.628 24.759-2.889 33.467-9.517 8.708-24.12 8.67-33.591-.087l34.94 34.78 35.19-34.68L45.48 39z" fill-opacity=".15" fill="url(#a)"/><path d="M25.978 79.003c-11.926-.012-22.184-8.446-24.5-20.146-2.316-11.699 3.955-23.405 14.977-27.96 11.022-4.554 23.727-.689 30.345 9.232 6.618 9.922 5.307 23.136-3.132 31.564a24.85 24.85 0 0 1-17.69 7.31zm-13.68-8.21a21.68 21.68 0 0 0 35.4-16.73l-26 11.71 7.41-9.94-6.3.11-10.51 14.85zm-4.74-5.41a21.53 21.53 0 0 0 2.3 3.08l8.8-12.45-4.53.08-6.57 9.29zm-1.95-18.76a21.91 21.91 0 0 0 .22 15.43l5.4-7.63-5.62-7.8zm28.83 7.61l-2.44 3.23 7.68-3.46-7.94-3.49 2.7 3.72zm13.22-.31a21.69 21.69 0 0 0-35.86-16.3l10.82 15 6.46-.11-7.36-10 25.94 11.41zm-33.49-1.16l4.39-.07-9.14-12.69a21.57 21.57 0 0 0-2.2 3.12l6.95 9.64z" fill="#FFF"/></g></svg>