<svg width="30" height="30" viewBox="0 0 30 30" xmlns="http://www.w3.org/2000/svg"><title>header-icon-news</title><path d="M15.072 29.201a14.1 14.1 0 1 1 10-4.13 14 14 0 0 1-10 4.13zm-7.75-4.63a12.24 12.24 0 0 0 20-9.44l-14.69 6.61 4.18-5.61-3.56.06-5.93 8.38zm-2.62-3.06c.38.618.815 1.2 1.3 1.74l5-7h-2.56l-3.74 5.26zm-1.08-10.62a12.37 12.37 0 0 0 .12 8.71l3-4.31-3.12-4.4zm16.28 4.3l-1.38 1.85 4.34-2-4.48-2 1.52 2.15zm7.47-.18a12.25 12.25 0 0 0-20.25-9.19l6.11 8.48 3.65-.06-4.18-5.67 14.67 6.44zm-18.97-.63h2.48l-5.18-7.2a12.17 12.17 0 0 0-1.24 1.76l3.94 5.44z" fill="#929292" fill-rule="evenodd"/></svg>
