<?xml version="1.0" encoding="UTF-8"?>
<svg width="30px" height="30px" viewBox="0 0 30 30" version="1.1" xmlns="http://www.w3.org/2000/svg" xmlns:xlink="http://www.w3.org/1999/xlink">
    <!-- Generator: Sketch 41.2 (35397) - http://www.bohemiancoding.com/sketch -->
    <title>header-icon-categories</title>
    <desc>Created with Sketch.</desc>
    <defs></defs>
    <g id="export" stroke="none" stroke-width="1" fill="none" fill-rule="evenodd">
        <g id="header-icon-categories" fill="#FFFFFF">
            <path d="M15.09,1 C7.30830787,1 1,7.30830787 1,15.09 C1,22.8716921 7.30830787,29.18 15.09,29.18 C22.8716921,29.18 29.18,22.8716921 29.18,15.09 C29.1744846,7.31059356 22.8694064,1.00551536 15.09,1 L15.09,1 Z M8.9,4.45 C9.18666667,4.28333333 9.47333333,4.12666667 9.76,3.98 L9.76,16.25 L14.94,12.85 L20.12,16.25 L20.12,3.75 C20.4066667,3.87666667 20.6933333,4.01666667 20.98,4.17 L20.98,18.01 L14.98,14.07 L8.98,18.01 L8.9,4.45 Z M18.68,3.23 L18.68,13.59 L14.94,11.14 L11.2,13.59 L11.2,3.39 C12.4854726,2.94166798 13.8386379,2.71839569 15.2,2.73 C16.3815607,2.73459747 17.5565319,2.90629813 18.69,3.24 L18.68,3.23 Z M15.11,27.46 C9.86487949,27.4515702 5.19920861,24.1257531 3.48053249,19.1701994 C1.76185636,14.2146457 3.36641814,8.71419798 7.48,5.46 L7.48,20.66 L14.96,15.78 L22.43,20.66 L22.43,5.07 C25.5519538,7.46179811 27.4233139,11.1383406 27.52,15.07 C27.4869968,21.9020341 21.9421116,27.4245788 15.11,27.43 L15.11,27.46 Z" id="Shape"></path>
        </g>
    </g>
</svg>