<svg width="30" height="30" viewBox="0 0 30 30" xmlns="http://www.w3.org/2000/svg"><title>header-icon-categories</title><path d="M15.09 1C7.308 1 1 7.308 1 15.09s6.308 14.09 14.09 14.09 14.09-6.308 14.09-14.09C29.174 7.31 22.87 1.006 15.09 1zM8.9 4.45c.287-.167.573-.323.86-.47v12.27l5.18-3.4 5.18 3.4V3.75c.287.127.573.267.86.42v13.84l-6-3.94-6 3.94L8.9 4.45zm9.78-1.22v10.36l-3.74-2.45-3.74 2.45V3.39a11.84 11.84 0 0 1 4-.66 12.53 12.53 0 0 1 3.49.51l-.01-.01zm-3.57 24.23a12.33 12.33 0 0 1-7.63-22v15.2l7.48-4.88 7.47 4.88V5.07a13 13 0 0 1 5.09 10c-.033 6.832-5.578 12.355-12.41 12.36v.03z" fill="#FFF" fill-rule="evenodd"/></svg>