<svg width="30" height="30" viewBox="0 0 30 30" xmlns="http://www.w3.org/2000/svg"><title>header-icon-manifesto</title><g fill="#929292" fill-rule="evenodd"><path d="M28.99 15.67c.027-7.649-6.054-13.922-13.7-14.134C7.644 1.324 1.225 7.252.829 14.891.433 22.529 6.203 29.089 13.83 29.67a2.4 2.4 0 0 0 .67.09 2.34 2.34 0 0 0 .5-.05c7.74-.055 13.99-6.34 14-14.08M14.19 28a.7.7 0 1 1 .57 0h-.57m.3-3.06a2.43 2.43 0 0 0-2.43 2.43 2.4 2.4 0 0 0 0 .33 12.36 12.36 0 1 1 4.78.17A2.44 2.44 0 0 0 14.5 25"/><path d="M20.81 14.33a5.83 5.83 0 0 0-6-5.42 6.15 6.15 0 0 0-5.82 4.69l1.39.35c0-.15 1-3.61 4.42-3.61a4.42 4.42 0 0 1 4.49 4c0 4-2.78 4.77-5.11 4.77h-.63v4h1.44v-2.56c3.74-.25 5.78-2.48 5.78-6.21"/></g></svg>
