<?xml version="1.0" encoding="utf-8"?>
<!-- Generator: Adobe Illustrator 21.0.2, SVG Export Plug-In . SVG Version: 6.00 Build 0)  -->
<svg version="1.1" id="Layer_1" xmlns="http://www.w3.org/2000/svg" xmlns:xlink="http://www.w3.org/1999/xlink" x="0px" y="0px"
	 viewBox="0 0 30 30" style="enable-background:new 0 0 30 30;" xml:space="preserve">
<style type="text/css">
	.st0{fill:#929292;}
</style>
<title>header-icon-manifesto</title>
<g>
	<path class="st0" d="M30,15c0-8.1-6.4-14.8-14.6-15C7.3-0.2,0.4,6.1,0,14.2c-0.4,8.1,5.7,15.1,13.8,15.7c0.2,0.1,0.5,0.1,0.7,0.1
		c0.2,0,0.4,0,0.5-0.1C23.3,29.9,30,23.2,30,15 M14.2,28.1c-0.4-0.2-0.5-0.6-0.4-1c0.2-0.4,0.6-0.5,1-0.4c0.4,0.2,0.5,0.6,0.4,1
		c-0.1,0.2-0.2,0.3-0.4,0.4H14.2 M14.6,24.9c-1.4,0-2.6,1.2-2.6,2.6l0,0c0,0.1,0,0.2,0,0.4C4.9,26.2,0.5,19.1,2.2,12
		S10.9,0.6,18,2.2S29.4,11,27.8,18c-1.2,5.2-5.5,9.1-10.7,10c0.3-1.4-0.7-2.8-2.1-3C14.8,25,14.7,24.9,14.6,24.9"/>
	<path class="st0" d="M21.3,13.6c-0.2-3.3-3.1-5.9-6.4-5.8c-3,0.1-5.5,2.1-6.2,5l1.5,0.4c0-0.2,1.1-3.8,4.7-3.8
		c2.5-0.1,4.5,1.8,4.8,4.3c0,4.3-3,5.1-5.4,5.1h-0.7v4.3h1.5v-2.7C19.1,19.9,21.2,17.6,21.3,13.6"/>
</g>
</svg>
