<?xml version="1.0" encoding="utf-8"?>
<!-- Generator: Adobe Illustrator 21.0.2, SVG Export Plug-In . SVG Version: 6.00 Build 0)  -->
<svg version="1.1" id="Layer_1" xmlns="http://www.w3.org/2000/svg" xmlns:xlink="http://www.w3.org/1999/xlink" x="0px" y="0px"
	 viewBox="0 0 30 30" style="enable-background:new 0 0 30 30;" xml:space="preserve">
<style type="text/css">
	.st0{fill:#929292;}
</style>
<title>header-icon-categories</title>
<path class="st0" d="M15,0C6.7,0,0,6.7,0,15s6.7,15,15,15s15-6.7,15-15C30,6.7,23.3,0,15,0z M8.4,3.7C8.7,3.5,9,3.3,9.3,3.2v13.1
	l5.5-3.6l5.5,3.6V2.9c0.3,0.1,0.6,0.3,0.9,0.4v14.7l-6.4-4.2l-6.4,4.2L8.4,3.7z M18.8,2.4v11l-4-2.6l-4,2.6V2.5
	c1.4-0.5,2.8-0.7,4.3-0.7C16.4,1.8,17.6,2,18.8,2.4C18.8,2.4,18.8,2.4,18.8,2.4z M15,28.2C7.8,28.2,1.9,22.3,1.9,15
	c0-4,1.8-7.8,5-10.3v16.2l8-5.2l8,5.2V4.3c3.3,2.5,5.3,6.5,5.4,10.6C28.2,22.3,22.3,28.1,15,28.2C15,28.1,15,28.2,15,28.2z"/>
</svg>
