<svg width="30" height="30" viewBox="0 0 30 30" xmlns="http://www.w3.org/2000/svg"><title>header-icon-blog</title><g fill="#FFF" fill-rule="evenodd"><path d="M1.22 15.7c0-7.776 6.3-14.083 14.077-14.09 7.776-.007 14.088 6.287 14.103 14.063.015 7.777-6.274 14.095-14.05 14.117A14.11 14.11 0 0 1 1.22 15.7m26.45 0a12.36 12.36 0 1 0-12.32 12.36c6.806-.033 12.31-5.554 12.32-12.36"/><path d="M15 7.47h.25a8.19 8.19 0 0 1 8.17 7.9h1.44A9.62 9.62 0 0 0 15.25 6H15v1.47z"/><path d="M15 11h.25a4.62 4.62 0 0 1 4.6 4.35h1.41a6 6 0 0 0-6-5.74h-.25L15 11zM13 14.52A3.48 3.48 0 1 0 16.48 18 3.49 3.49 0 0 0 13 14.52zm0 5.79a2.31 2.31 0 1 1 .08-4.62 2.31 2.31 0 0 1-.08 4.62z"/></g></svg>