<?xml version="1.0" encoding="utf-8"?>
<!-- Generator: Adobe Illustrator 21.0.2, SVG Export Plug-In . SVG Version: 6.00 Build 0)  -->
<svg version="1.1" id="Layer_1" xmlns="http://www.w3.org/2000/svg" xmlns:xlink="http://www.w3.org/1999/xlink" x="0px" y="0px"
	 viewBox="0 0 30 30" style="enable-background:new 0 0 30 30;" xml:space="preserve">
<style type="text/css">
	.st0{fill:#929292;}
</style>
<title>header-icon-blog</title>
<g>
	<path class="st0" d="M0,15C0,6.7,6.7,0,15,0c8.3,0,15,6.7,15,15c0,8.3-6.7,15-15,15C6.7,30,0,23.3,0,15C0,15,0,15,0,15 M28.2,15
		c0-7.3-5.9-13.2-13.2-13.2C7.7,1.8,1.8,7.7,1.8,15c0,7.3,5.9,13.2,13.2,13.2c0,0,0,0,0,0C22.3,28.1,28.1,22.2,28.2,15"/>
	<path class="st0" d="M14.7,6.2h0.3c4.7,0,8.5,3.7,8.7,8.4h1.5c-0.1-5.5-4.7-10-10.2-10h-0.3C14.7,4.7,14.7,6.2,14.7,6.2z"/>
	<path class="st0" d="M14.7,10h0.3c2.6,0,4.7,2,4.9,4.6h1.5c-0.1-3.4-3-6.1-6.4-6.1h-0.3L14.7,10z M12.5,13.7c-2,0-3.7,1.7-3.7,3.7
		s1.7,3.7,3.7,3.7s3.7-1.7,3.7-3.7l0,0C16.2,15.4,14.6,13.7,12.5,13.7z M12.5,19.9c-1.4,0-2.4-1.1-2.4-2.5c0-1.4,1.1-2.4,2.5-2.4
		c1.4,0,2.4,1.1,2.4,2.5C15,18.8,13.9,19.9,12.5,19.9z"/>
</g>
</svg>
