<svg xmlns="http://www.w3.org/2000/svg" viewBox="0 0 30 30"><defs><style>.cls-1{fill:#929292;}</style></defs><title>header-icon-champagne</title><path class="cls-1" d="M15,0A15,15,0,1,0,30,15,15,15,0,0,0,15,0M12.45,12.51h5s0,5,0,5.06c0,2.32-1.67,5.75-2.54,5.75s-2.54-3.43-2.55-5.75V12.51m3.61,15.62V24.59a6.61,6.61,0,0,0,2.06-2.78,12.42,12.42,0,0,0,1-4.25h0V11.64a.72.72,0,0,0-.8-.67H11.68c-.42,0-.53.24-.53.67v5.89h0a12.28,12.28,0,0,0,1,4.25c.63,1.47,1.18,2.43,2.1,2.83v3.49a13.14,13.14,0,1,1,1.84,0"/><path class="cls-1" d="M16.55,6.41a1.88,1.88,0,1,0,1.88,1.88,1.88,1.88,0,0,0-1.88-1.88m0,2.23a.35.35,0,1,1,.35-.35.35.35,0,0,1-.35.35"/><path class="cls-1" d="M15.44,4.95a1.88,1.88,0,1,0-1.88,1.88,1.88,1.88,0,0,0,1.88-1.88m-2.23,0a.35.35,0,1,1,.35.35.35.35,0,0,1-.35-.35"/><path class="cls-1" d="M13,7.69a.77.77,0,1,0,.77.77A.78.78,0,0,0,13,7.69"/></svg>
