<?xml version="1.0" encoding="utf-8"?>
<!-- Generator: Adobe Illustrator 21.0.2, SVG Export Plug-In . SVG Version: 6.00 Build 0)  -->
<svg version="1.1" id="Layer_1" xmlns="http://www.w3.org/2000/svg" xmlns:xlink="http://www.w3.org/1999/xlink" x="0px" y="0px"
	 viewBox="0 0 30 30" style="enable-background:new 0 0 30 30;" xml:space="preserve">
<style type="text/css">
	.st0{fill:#929292;}
</style>
<title>header-icon-news</title>
<path class="st0" d="M15,30C6.7,30,0,23.3,0,15S6.7,0,15,0s15,6.7,15,15c0,4-1.6,7.8-4.4,10.6C22.8,28.4,19,30,15,30z M6.7,25.1
	c5.6,4.6,13.8,3.7,18.3-1.8C27,20.9,28,18,28,15l-15.6,7l4.4-6L13,16.2C13,16.2,6.7,25.1,6.7,25.1z M3.9,21.8
	c0.4,0.7,0.9,1.3,1.4,1.9l5.3-7.4H7.9L3.9,21.8z M2.8,10.5c-1.1,3-1,6.3,0.1,9.3l3.2-4.6C6.1,15.2,2.8,10.5,2.8,10.5z M20.1,15.1
	l-1.5,2l4.6-2.1l-4.8-2.1C18.5,12.8,20.1,15.1,20.1,15.1z M28.1,14.9C28,7.7,22.1,1.9,14.9,2c-3.1,0-6.1,1.1-8.4,3.2l6.5,9l3.9-0.1
	l-4.4-6L28.1,14.9z M7.9,14.2h2.6L5,6.6C4.5,7.2,4.1,7.8,3.7,8.4C3.7,8.4,7.9,14.2,7.9,14.2z"/>
</svg>
