<svg xmlns="http://www.w3.org/2000/svg" width="80" height="108" viewBox="0 0 80 108"><defs><linearGradient id="a" x1="21.464%" x2="74.528%" y1="18.364%" y2="74.165%"><stop stop-color="#000000" offset="0%"/><stop stop-color="#000000" stop-opacity="0" offset="100%"/></linearGradient></defs><g fill="none" fill-rule="evenodd"><path fill="url(#a)" fill-opacity=".17" d="M45.48,39 C53.3641241,49.2102118 52.1084054,63.7587867 42.5913856,72.4670685 C33.0743658,81.1753503 18.4717487,81.1375005 9,72.38 L43.94,107.16 L79.13,72.48 L45.48,39 Z"/><path fill="#58ADC3" d="M25.9778047,79.0025605 C14.0516328,78.9907978 3.79437248,70.5565592 1.47838255,58.857418 C-0.837607376,47.1582768 5.43263104,35.4522151 16.45482,30.8975401 C27.477009,26.3428651 40.1816843,30.2079647 46.7998823,40.1293138 C53.4180803,50.050663 52.1067622,63.2653599 43.6678047,71.6925605 C38.9837598,76.3935504 32.6139969,79.0257136 25.9778047,79.0025605 L25.9778047,79.0025605 Z M12.2978047,70.7925605 C18.7744576,76.0861522 27.7186916,77.181589 35.2814109,73.6074564 C42.8441301,70.0333238 47.6760582,62.4272885 47.6978047,54.0625605 L21.6978047,65.7725605 L29.1078047,55.8325605 L22.8078047,55.9425605 L12.2978047,70.7925605 Z M7.55780471,65.3825605 C8.23110294,66.4757515 9.00083674,67.5065255 9.85780471,68.4625605 L18.6578047,56.0125605 L14.1278047,56.0925605 L7.55780471,65.3825605 Z M5.60780471,46.6225605 C3.80751087,51.6223825 3.88569735,57.1060974 5.82780471,62.0525605 L11.2278047,54.4225605 L5.60780471,46.6225605 Z M34.4378047,54.2325605 L31.9978047,57.4625605 L39.6778047,54.0025605 L31.7378047,50.5125605 L34.4378047,54.2325605 Z M47.6578047,53.9225605 C47.610501,45.460997 42.6467737,37.7994406 34.9435295,34.297966 C27.2402853,30.7964914 18.2040591,32.0944325 11.7978047,37.6225605 L22.6178047,52.6225605 L29.0778047,52.5125605 L21.7178047,42.5125605 L47.6578047,53.9225605 Z M14.1678047,52.7625605 L18.5578047,52.6925605 L9.41780471,40.0025605 C8.59369781,40.975493 7.85748172,42.0195813 7.21780471,43.1225605 L14.1678047,52.7625605 Z"/></g></svg>