<svg xmlns="http://www.w3.org/2000/svg" width="156" height="156" viewBox="0 0 156 156"><defs><linearGradient id="a" x1="21.464%" x2="74.528%" y1="18.364%" y2="74.165%"><stop stop-color="#000000" offset="0%"/><stop stop-color="#000000" stop-opacity="0" offset="100%"/></linearGradient></defs><g fill="none" fill-rule="evenodd"><path fill="url(#a)" fill-opacity=".17" d="M101.647532,59.1124026 C111.300201,71.8165762 109.678675,89.7838636 97.9074282,100.554555 C86.1361811,111.325246 68.0958868,111.348524 56.2968831,100.608247 L99.7579221,143.842532 L143.502403,100.727922 L101.647532,59.1124026 Z"/><path fill="#FFFFFF" d="M78.2352597,108.834351 C61.1897441,108.834351 47.3716234,95.01623 47.3716234,77.9707143 C47.3716234,60.9251986 61.1897441,47.1070779 78.2352597,47.1070779 C95.2807754,47.1070779 109.098896,60.9251986 109.098896,77.9707143 C109.078073,95.0075972 95.2721427,108.813527 78.2352597,108.834351 L78.2352597,108.834351 Z M78.2352597,50.8862987 C67.2806362,50.8862987 57.4046755,57.4852047 53.2125225,67.6059572 C49.0203696,77.7267096 51.3375972,89.3761996 59.0836858,97.1222882 C66.8297744,104.868377 78.4792644,107.185604 88.6000169,102.993451 C98.7207693,98.8012986 105.319675,88.9253378 105.319675,77.9707143 C105.319675,63.0124046 93.1935694,50.8862987 78.2352597,50.8862987 Z"/><polygon fill="#FFFFFF" points="79.829 106.913 62.999 93.069 73.656 93.825 59.786 83.381 81.649 87.312 64.151 59.043 88.458 81.271 88.88 64 102.315 92.974 99.462 94.297 91.702 77.561 91.437 88.263 78.777 76.686 88.049 91.658 72.245 88.823 84.068 97.723 72.623 96.905 81.832 104.482"/></g></svg>