<svg xmlns="http://www.w3.org/2000/svg" width="52" height="52" viewBox="0 0 52 52"><g fill="#FFFFFF" fill-rule="evenodd"><path d="M25.9978076,4.00009006 C36.491911,4.00357363 45.5226254,11.4185088 47.5684112,21.7112722 C49.614197,32.0040356 44.1054493,42.3088288 34.4103144,46.3251179 C24.7151795,50.3414069 13.5330591,46.9509425 7.70090064,38.2267149 C1.86874221,29.5024874 3.01038474,17.8735701 10.4278076,10.4500901 C14.5477399,6.3064069 20.1545479,3.98374075 25.9978076,4.00009006 M25.9978076,1.00009006 C14.0724083,1.00231478 3.80884798,9.42727361 1.482686,21.1236032 C-0.843475972,32.8199328 5.41546224,44.5308804 16.4325306,49.0958951 C27.449599,53.6609099 40.1571798,49.8088987 46.78534,39.8951382 C53.4135003,29.9813777 52.1166799,16.7662781 43.6878076,8.33009006 C39.0070619,3.62176319 32.6368892,0.982228684 25.9978076,1.00009006"/><path d="M35.5378076,20.3600901 C36.491118,19.7801532 37.201726,18.874128 37.5378076,17.8100901 C36.6356449,18.3454552 35.6477914,18.7209748 34.6178076,18.9200901 C33.3342167,17.5544178 31.3469036,17.1109105 29.6044702,17.8012671 C27.8620368,18.4916236 26.7177487,20.1758792 26.7178076,22.0500901 C26.7134868,22.3866653 26.7504288,22.7225018 26.8278076,23.0500901 C23.1441126,22.8648736 19.7124882,21.123615 17.3878076,18.2600901 C16.9788965,18.9615314 16.7616313,19.7581703 16.7578076,20.5700901 C16.7347289,22.0971974 17.4877878,23.5317746 18.7578076,24.3800901 C17.9993238,24.3443169 17.2567296,24.1501524 16.5778076,23.8100901 L16.5778076,23.8100901 C16.6175206,26.0033745 18.1846485,27.8705908 20.3378076,28.2900901 C19.9783018,28.4015603 19.6041964,28.4588557 19.2278076,28.4600901 C18.9425551,28.4523889 18.6583479,28.4222964 18.3778076,28.3700901 C18.9807861,30.2297617 20.6933404,31.5051534 22.6478076,31.5500901 C21.0324435,32.8350624 19.0318916,33.5394821 16.9678076,33.5500901 C16.603595,33.5521639 16.2395922,33.5321271 15.8778076,33.4900901 C19.886551,36.051757 24.9743857,36.2191419 29.1428314,33.9264968 C33.311277,31.6338517 35.8944949,27.2473879 35.8778076,22.4900901 C35.8889952,22.2935825 35.8889952,22.0965976 35.8778076,21.9000901 C36.783892,21.2617159 37.5609107,20.4575524 38.1678076,19.5300901 C37.330535,19.8998554 36.4450507,20.1490031 35.5378076,20.2700901"/></g></svg>