<?xml version="1.0" encoding="UTF-8"?>
<svg width="156px" height="156px" viewBox="0 0 156 156" version="1.1" xmlns="http://www.w3.org/2000/svg" xmlns:xlink="http://www.w3.org/1999/xlink">
    <!-- Generator: Sketch 41.2 (35397) - http://www.bohemiancoding.com/sketch -->
    <title>icon-large-champagne</title>
    <desc>Created with Sketch.</desc>
    <defs>
        <linearGradient x1="21.4644831%" y1="18.3644712%" x2="74.5279881%" y2="74.1654815%" id="linearGradient-1">
            <stop stop-color="#000000" offset="0%"></stop>
            <stop stop-color="#000000" stop-opacity="0" offset="100%"></stop>
        </linearGradient>
    </defs>
    <g id="export" stroke="none" stroke-width="1" fill="none" fill-rule="evenodd">
        <g id="icon-large-champagne">
            <path d="M88.76,20.23 C104.084856,40.3995128 101.510474,68.9248968 82.8221025,86.0247568 C64.1337309,103.124617 35.4924389,103.161574 16.76,86.11 L85.76,154.75 L155.21,86.3 L88.76,20.23 Z" id="Shape" fill-opacity="0.15" fill="url(#linearGradient-1)"></path>
            <path d="M50.59,99.08 C23.5280473,99.08 1.59,77.1419527 1.59,50.08 C1.59,23.0180473 23.5280473,1.08 50.59,1.08 C77.6519527,1.08 99.59,23.0180473 99.59,50.08 C99.5569404,77.1282472 77.6382472,99.0469404 50.59,99.08 Z M50.59,7.08 C26.8417558,7.08 7.59,26.3317558 7.59,50.08 C7.59,73.8282442 26.8417558,93.08 50.59,93.08 C74.3382442,93.08 93.59,73.8282442 93.59,50.08 C93.59,26.3317558 74.3382442,7.08 50.59,7.08 Z" id="Shape" fill="#FFFFFF"></path>
            <path d="M50.59,82.26 C41.99,82.26 37.26,64.35 37.26,58.42 L37.26,39.11 C37.26,37.7292881 38.3792881,36.61 39.76,36.61 L61.42,36.61 C62.8007119,36.61 63.92,37.7292881 63.92,39.11 L63.92,58.42 C63.92,64.36 59.2,82.26 50.59,82.26 Z M42.26,58.48 C42.26,64.98 47.26,77.26 50.59,77.26 C53.92,77.26 58.89,64.99 58.92,58.48 L58.92,58.35 L58.92,58.21 L58.92,41.62 L42.26,41.62 L42.26,58.21 L42.26,58.35 L42.26,58.49 L42.26,58.48 Z" id="Shape" fill="#FFFFFF"></path>
            <path d="M55.66,34.3 C52.2689716,34.3 49.52,31.5510284 49.52,28.16 C49.52,24.7689716 52.2689716,22.02 55.66,22.02 C59.0510284,22.02 61.8,24.7689716 61.8,28.16 C61.7944943,31.5487452 59.0487452,34.2944943 55.66,34.3 L55.66,34.3 Z M55.66,27.02 C55.0303954,27.02 54.52,27.5303954 54.52,28.16 C54.52,28.7896046 55.0303954,29.3 55.66,29.3 C56.2896046,29.3 56.8,28.7896046 56.8,28.16 C56.8053657,27.8542029 56.6876318,27.5590748 56.473256,27.340938 C56.2588802,27.1228013 55.9658441,26.9999529 55.66,27 L55.66,27.02 Z" id="Shape" fill="#FFFFFF"></path>
            <path d="M45.89,23.38 C42.4989716,23.38 39.75,20.6310284 39.75,17.24 C39.75,13.8489716 42.4989716,11.1 45.89,11.1 C49.2810284,11.1 52.03,13.8489716 52.03,17.24 C52.0244943,20.6287452 49.2787452,23.3744943 45.89,23.38 Z M45.89,16.1 C45.2603954,16.1 44.75,16.6103954 44.75,17.24 C44.75,17.8696046 45.2603954,18.38 45.89,18.38 C46.5196046,18.38 47.03,17.8696046 47.03,17.24 C47.0245112,16.6143041 46.51572,16.1099759 45.89,16.11 L45.89,16.1 Z" id="Shape" fill="#FFFFFF"></path>
            <path d="M44.16,31.27 C43.1367105,31.27 42.2141807,30.6535853 41.8225848,29.7081891 C41.4309889,28.7627929 41.6474449,27.6745948 42.3710198,26.9510198 C43.0945948,26.2274449 44.1827929,26.0109889 45.1281891,26.4025848 C46.0735853,26.7941807 46.69,27.7167105 46.69,28.74 C46.6791187,30.1327483 45.5527483,31.2591187 44.16,31.27 Z" id="Shape" fill="#FFFFFF"></path>
            <rect id="Rectangle-path" fill="#FFFFFF" x="48.05" y="80" width="5" height="17"></rect>
        </g>
    </g>
</svg>