<svg xmlns="http://www.w3.org/2000/svg" width="156" height="156" viewBox="0 0 156 156"><defs><linearGradient id="a" x1="21.464%" x2="74.528%" y1="18.364%" y2="74.165%"><stop stop-color="#000000" offset="0%"/><stop stop-color="#000000" stop-opacity="0" offset="100%"/></linearGradient></defs><g fill="none" fill-rule="evenodd"><path fill="url(#a)" fill-opacity=".17" d="M102.486968,59.1124026 C112.176231,71.8165762 110.548558,89.7838636 98.7326841,100.554555 C86.9168105,111.325246 68.8081227,111.348524 56.9643871,100.608247 L100.590194,143.842532 L144.500516,100.727922 L102.486968,59.1124026 Z"/><path fill="#FFFFFF" d="M78.3536774,108.777662 C61.2435396,108.777662 47.3730323,94.9595417 47.3730323,77.914026 C47.3730323,60.8685103 61.2435396,47.0503896 78.3536774,47.0503896 C95.4638153,47.0503896 109.334323,60.8685103 109.334323,77.914026 C109.31342,94.9509089 95.4551498,108.756839 78.3536774,108.777662 Z M78.3536774,50.8296104 C63.3386585,50.8296104 51.1665806,62.9557163 51.1665806,77.914026 C51.1665806,92.8723357 63.3386585,104.998442 78.3536774,104.998442 C93.3686964,104.998442 105.540774,92.8723357 105.540774,77.914026 C105.540774,62.9557163 93.3686964,50.8296104 78.3536774,50.8296104 Z"/><path fill="#FFFFFF" d="M78.3536774 98.1832468C72.9162581 98.1832468 69.9256774 86.9022727 69.9256774 83.1671429L69.9256774 71.0043506C69.9256774 70.1346815 70.6333564 69.4296753 71.5063226 69.4296753L85.2010323 69.4296753C86.0739985 69.4296753 86.7816774 70.1346815 86.7816774 71.0043506L86.7816774 83.1671429C86.7816774 86.9085714 83.7974194 98.1832468 78.3536774 98.1832468zM73.0869677 83.2049351C73.0869677 87.2990909 76.2482581 95.0338961 78.3536774 95.0338961 80.4590968 95.0338961 83.6014194 87.3053896 83.6203871 83.2049351L83.6203871 83.1230519 83.6203871 83.0348701 83.6203871 72.5853247 73.0869677 72.5853247 73.0869677 83.0348701 73.0869677 83.1230519 73.0869677 83.2112338 73.0869677 83.2049351zM81.5592258 67.9746753C79.4152208 67.9746753 77.6771613 66.2431802 77.6771613 64.1072727 77.6771613 61.9713653 79.4152208 60.2398701 81.5592258 60.2398701 83.7032308 60.2398701 85.4412903 61.9713653 85.4412903 64.1072727 85.4378093 66.2417421 83.7017873 67.9712075 81.5592258 67.9746753L81.5592258 67.9746753zM81.5592258 63.3892208C81.1611532 63.3892208 80.8384516 63.7107036 80.8384516 64.1072727 80.8384516 64.5038419 81.1611532 64.8253247 81.5592258 64.8253247 81.9572984 64.8253247 82.28 64.5038419 82.28 64.1072727 82.2833925 63.9146603 82.2089543 63.7287679 82.0734135 63.5913701 81.9378727 63.4539722 81.7525982 63.3765937 81.5592258 63.3766234L81.5592258 63.3892208zM75.3820645 61.0964935C73.2380595 61.0964935 71.5 59.3649984 71.5 57.2290909 71.5 55.0931834 73.2380595 53.3616883 75.3820645 53.3616883 77.5260695 53.3616883 79.264129 55.0931834 79.264129 57.2290909 79.260648 59.3635603 77.524626 61.0930256 75.3820645 61.0964935zM75.3820645 56.511039C74.9839919 56.511039 74.6612903 56.8325218 74.6612903 57.2290909 74.6612903 57.62566 74.9839919 57.9471429 75.3820645 57.9471429 75.7801371 57.9471429 76.1028387 57.62566 76.1028387 57.2290909 76.0993684 56.8349838 75.777681 56.5173225 75.3820645 56.5173377L75.3820645 56.511039zM74.2882581 66.0661688C73.641275 66.0661688 73.0579981 65.6779076 72.8104084 65.0824308 72.5628188 64.486954 72.6996748 63.8015305 73.1571609 63.3457722 73.614647 62.890014 74.302669 62.7536748 74.9004034 63.0003294 75.4981378 63.246984 75.887871 63.8280579 75.887871 64.4725974 75.8809912 65.349848 75.1688344 66.059315 74.2882581 66.0661688z"/><rect width="3.161" height="10.708" x="76.748" y="96.76" fill="#FFFFFF"/></g></svg>