<?xml version="1.0" encoding="UTF-8"?>
<svg width="156px" height="156px" viewBox="0 0 156 156" version="1.1" xmlns="http://www.w3.org/2000/svg" xmlns:xlink="http://www.w3.org/1999/xlink">
    <!-- Generator: Sketch 41.2 (35397) - http://www.bohemiancoding.com/sketch -->
    <title>icon-large-clock</title>
    <desc>Created with Sketch.</desc>
    <defs>
        <linearGradient x1="21.4644831%" y1="18.3644712%" x2="74.5279881%" y2="74.1654815%" id="linearGradient-1">
            <stop stop-color="#000000" offset="0%"></stop>
            <stop stop-color="#000000" stop-opacity="0" offset="100%"></stop>
        </linearGradient>
    </defs>
    <g id="export" stroke="none" stroke-width="1" fill="none" fill-rule="evenodd">
        <g id="icon-large-clock">
            <path d="M88.76,20.23 C104.084856,40.3995128 101.510474,68.9248968 82.8221025,86.0247568 C64.1337309,103.124617 35.4924389,103.161574 16.76,86.11 L85.76,154.75 L155.21,86.3 L88.76,20.23 Z" id="Shape" fill-opacity="0.15" fill="url(#linearGradient-1)"></path>
            <path d="M50.59,99.34 C23.5280473,99.34 1.59,77.4019527 1.59,50.34 C1.59,23.2780473 23.5280473,1.34 50.59,1.34 C77.6519527,1.34 99.59,23.2780473 99.59,50.34 C99.5569404,77.3882472 77.6382472,99.3069404 50.59,99.34 Z M50.59,7.34 C26.8417558,7.34 7.59,26.5917558 7.59,50.34 C7.59,74.0882442 26.8417558,93.34 50.59,93.34 C74.3382442,93.34 93.59,74.0882442 93.59,50.34 C93.59,26.5917558 74.3382442,7.34 50.59,7.34 Z" id="Shape" fill="#FFFFFF"></path>
            <path d="M50.35,84 C36.8166933,84 24.6159631,75.8477327 19.4369908,63.3445876 C14.2580186,50.8414426 17.1207142,36.4497 26.6902071,26.8802071 C36.2597,17.3107142 50.6514426,14.4480186 63.1545876,19.6269908 C75.6577327,24.8059631 83.81,37.0066933 83.81,50.54 C83.787959,69.0103104 68.8203104,83.977959 50.35,84 Z M50.35,22.08 C34.631976,22.08 21.89,34.821976 21.89,50.54 C21.89,66.258024 34.631976,79 50.35,79 C66.068024,79 78.81,66.258024 78.81,50.54 C78.7934648,34.8288302 66.0611698,22.0965352 50.35,22.08 Z" id="Shape" fill="#FFFFFF"></path>
            <polygon id="Shape" fill="#FFFFFF" points="62.04 68.34 46.93 51.34 54.73 36.72 59.14 39.07 52.98 50.62 65.78 65.01"></polygon>
        </g>
    </g>
</svg>