<svg xmlns="http://www.w3.org/2000/svg" width="156" height="156" viewBox="0 0 156 156"><defs><linearGradient id="a" x1="21.464%" x2="74.528%" y1="18.364%" y2="74.165%"><stop stop-color="#000000" offset="0%"/><stop stop-color="#000000" stop-opacity="0" offset="100%"/></linearGradient></defs><g fill="none" fill-rule="evenodd"><path fill="url(#a)" fill-opacity=".17" d="M105.486968,58.7905806 C115.176231,71.5429178 113.548558,89.5783218 101.732684,100.389846 C89.9168105,111.201371 71.8081227,111.224737 59.9643871,100.443742 L103.590194,143.841935 L147.500516,100.563871 L105.486968,58.7905806 Z"/><path fill="#FFFFFF" d="M81.480129,108.524 C64.3699912,108.524 50.4994839,94.6534927 50.4994839,77.5433548 C50.4994839,60.433217 64.3699912,46.5627097 81.480129,46.5627097 C98.5902669,46.5627097 112.460774,60.433217 112.460774,77.5433548 C112.439872,94.6448272 98.5816014,108.503098 81.480129,108.524 Z M81.480129,50.3562581 C70.4839748,50.3562581 60.5705728,56.9801815 56.3625268,67.1393033 C52.1544807,77.2984251 54.4804933,88.9920801 62.2559485,96.7675353 C70.0314037,104.542991 81.7250587,106.869003 91.8841805,102.660957 C102.043302,98.4529111 108.667226,88.539509 108.667226,77.5433548 C108.649805,62.5355577 96.4879262,50.3736786 81.480129,50.3562581 L81.480129,50.3562581 Z"/><path fill="#FFFFFF" d="M94.9345806,65.132129 C94.8966452,65.132129 91.1852903,63.4756129 81.4927742,63.4756129 C71.8002581,63.4756129 68.1647742,65.1068387 68.1268387,65.1258065 L66.7485161,62.2806452 C66.9129032,62.1984516 70.9277419,60.3143226 81.4864516,60.3143226 C92.0451613,60.3143226 96.1105806,62.2110968 96.2749677,62.2743226 L94.9345806,65.132129 Z"/><path fill="#FFFFFF" d="M95.0736774 73.8193548C91.7732903 73.8193548 91.4002581 69.6843871 91.280129 68.3313548 91.2485161 67.9583226 91.2042581 67.5979355 91.16 67.2501935 90.9450323 65.4292903 90.5783226 62.3754839 93.5689032 61.8696774 93.7945571 61.8319086 94.0229492 61.8128759 94.2517419 61.8127742 97.1610901 61.9875744 99.5240311 64.2278344 99.8535484 67.1237419 100.157032 70.4051613 98.3298065 73.319871 95.6996129 73.7624516 95.49294 73.798994 95.2835518 73.8180293 95.0736774 73.8193548L95.0736774 73.8193548zM94.1695484 64.9677419C94.1565732 65.6024716 94.1988835 66.2371259 94.296 66.8645161 94.3402581 67.2375484 94.3845161 67.6295484 94.4224516 68.027871 94.6310968 70.2976774 95.0547097 70.6454194 95.0863226 70.6580645L95.0863226 70.6580645 95.1874839 70.6580645C96.0347097 70.5126452 96.8692903 69.1027097 96.7112258 67.4272258 96.5594839 65.9287742 95.0483871 64.9171613 94.1632258 64.9993548L94.1695484 64.9677419zM67.9624516 73.8193548C67.7506632 73.819998 67.5391861 73.8030798 67.3301935 73.7687742 64.7 73.3261935 62.9043871 70.4114839 63.1762581 67.1300645 63.5028748 64.2351584 65.863744 61.9943334 68.7717419 61.8190968 69.0005396 61.8190822 69.2289413 61.8381156 69.4545806 61.876 72.4451613 62.3754839 72.0847742 65.4292903 71.8698065 67.2501935 71.8255484 67.5979355 71.7876129 67.9646452 71.7496774 68.3313548 71.6421935 69.7096774 71.2628387 73.8193548 67.9624516 73.8193548zM68.7907097 64.9677419C67.5092086 65.1206244 66.4970516 66.1275642 66.3375484 67.4082581 66.1858065 69.0837419 67.0140645 70.4936774 67.8676129 70.6390968L67.9624516 70.6390968 67.9624516 70.6390968C67.9624516 70.6390968 68.3860645 70.2850323 68.5947097 68.027871 68.6326452 67.6232258 68.6769032 67.2375484 68.7211613 66.8581935 68.8183416 66.2308104 68.8606522 65.5961505 68.8476129 64.9614194L68.7907097 64.9677419zM81.480129 89.5309677C78.6517185 89.5309677 76.3588387 87.238088 76.3588387 84.4096774 76.3588387 81.5812669 78.6517185 79.2883871 81.480129 79.2883871 84.3085396 79.2883871 86.6014194 81.5812669 86.6014194 84.4096774 86.5979357 87.2366437 84.3070954 89.5274841 81.480129 89.5309677L81.480129 89.5309677zM81.480129 82.4433548C80.3984752 82.4433605 79.5212997 83.3196009 79.5201404 84.4012541 79.518981 85.4829073 80.3942762 86.3610261 81.4759276 86.3633503 82.5575789 86.3656746 83.4366398 85.4913256 83.440129 84.4096774 83.4401346 83.3261718 82.5636291 82.4468388 81.480129 82.4433548L81.480129 82.4433548zM87.9354839 77.8531613L75.0247742 77.8531613C74.47873 77.8536668 73.957728 77.6241505 73.5895484 77.2209032 73.2108964 76.8010287 73.0272 76.2407546 73.0837419 75.6781935L73.9183226 66.7886452C74.0035602 65.7791693 74.8462911 65.0023197 75.8593548 64.9993548L87.1009032 64.9993548C88.1070975 65.0049858 88.9444511 65.7739281 89.0356129 66.776L89.8701935 75.6908387C89.9238776 76.2492534 89.7403213 76.8045112 89.3643871 77.2209032 88.9976923 77.6225267 88.4793266 77.8518921 87.9354839 77.8531613zM76.3525161 74.691871L86.6077419 74.691871 85.9754839 68.148 76.9658065 68.148 76.3525161 74.691871z"/><path fill="#FFFFFF" d="M94.8903226,94.1021935 L68.0699355,94.1021935 C67.3973576,94.1028098 66.7581671,93.8091785 66.320459,93.298519 C65.8827509,92.7878596 65.6903326,92.1112807 65.7938065,91.4467097 L68.0952258,76.651871 C68.2648356,75.527455 69.2342369,74.6980784 70.3713548,74.7045161 L92.5825806,74.7045161 C93.7196986,74.6980784 94.6890999,75.527455 94.8587097,76.651871 L97.160129,91.4403871 C97.2636029,92.1049581 97.0711846,92.781537 96.6334765,93.2921964 C96.1957684,93.8028559 95.5565779,94.0964872 94.884,94.095871 L94.8903226,94.1021935 Z M69.0689032,90.9409032 L93.8850323,90.9409032 L91.8491613,77.8658065 L71.0858065,77.8658065 L69.0689032,90.9409032 Z"/></g></svg>