<svg xmlns="http://www.w3.org/2000/svg" width="52" height="52" viewBox="0 0 52 52"><g fill="#FFFFFF" fill-rule="evenodd"><path d="M25.9978076,4.00009006 C36.491911,4.00357363 45.5226254,11.4185088 47.5684112,21.7112722 C49.614197,32.0040356 44.1054493,42.3088288 34.4103144,46.3251179 C24.7151795,50.3414069 13.5330591,46.9509425 7.70090064,38.2267149 C1.86874221,29.5024874 3.01038474,17.8735701 10.4278076,10.4500901 C14.5477399,6.3064069 20.1545479,3.98374075 25.9978076,4.00009006 M25.9978076,1.00009006 C14.0724083,1.00231478 3.80884798,9.42727361 1.482686,21.1236032 C-0.843475972,32.8199328 5.41546224,44.5308804 16.4325306,49.0958951 C27.449599,53.6609099 40.1571798,49.8088987 46.78534,39.8951382 C53.4135003,29.9813777 52.1166799,16.7662781 43.6878076,8.33009006 C39.0070619,3.62176319 32.6368892,0.982228684 25.9978076,1.00009006"/><path d="M26.9858537,38.9162692 L26.9858537,27.0996705 L30.9342436,27.0996705 L31.5273806,22.5152868 L26.9858537,22.5152868 L26.9858537,19.5764585 C26.9858537,18.2446144 27.3425645,17.3370518 29.2522601,17.3370518 L31.6878076,17.3377661 L31.6878076,13.2216635 C31.2663832,13.1656641 29.8208259,13.0515223 28.1386995,13.0515223 C24.6271625,13.0515223 22.2250431,15.1840729 22.2250431,19.1210343 L22.2250431,22.5152868 L18.2366536,22.5152868 L18.2366536,27.0996705 L22.2240431,27.0996705 L22.2240431,38.9162692 L26.9858537,38.9162692 Z"/></g></svg>