<svg xmlns="http://www.w3.org/2000/svg" width="52" height="52" viewBox="0 0 52 52"><g fill="#FFFFFF" fill-rule="evenodd"><path d="M26.83,4.9 C32.6695486,4.89757061 38.2746837,7.19711322 42.43,11.3 C46.5722912,15.429151 48.8788564,21.0514038 48.83,26.9 C48.833511,32.7397615 46.5338063,38.3452917 42.43,42.5 C38.3014881,46.6432494 32.6788142,48.9499874 26.83,48.9 C20.9904514,48.9024294 15.3853163,46.6028868 11.23,42.5 C7.08675059,38.3714881 4.78001257,32.7488142 4.83,26.9 C4.7897206,21.0529821 7.0946343,15.4337625 11.2291984,11.2991984 C15.3637625,7.1646343 20.9829821,4.8597206 26.83,4.9 L26.83,4.9 Z M26.83,1.9 C14.9432742,1.93506793 4.73466134,10.3574641 2.44175178,22.020999 C0.148842226,33.6845339 6.40948903,45.3445869 17.3983586,49.8767196 C28.3872282,54.4088522 41.0473816,50.5522931 47.6433067,40.6634482 C54.2392317,30.7746033 52.9360409,17.6044011 44.53,9.2 C39.839973,4.50304179 33.4675551,1.87486946 26.83,1.9 L26.83,1.9 Z"/><path d="M22.45,35.034021 L22.45,21.344021 L18.19,21.344021 L18.19,35.034021 L22.45,35.034021 Z M20.35,15.404021 C19.1898528,15.4640158 18.2917429,16.4425584 18.3312329,17.6035844 C18.3707229,18.7646104 19.3332466,19.6798673 20.4947891,19.6608945 C21.6563315,19.6419217 22.5884498,18.6957173 22.59,17.534021 C22.5966744,16.9476795 22.3590508,16.385005 21.9341155,15.9809371 C21.5091802,15.5768692 20.9352631,15.3678553 20.35,15.404021 L20.35,15.404021 Z M24.87,35.034021 L29.13,35.034021 L29.13,27.144021 C29.1140969,26.7852096 29.1614869,26.4264 29.27,26.084021 C29.5811952,25.1404322 30.4565177,24.4979936 31.45,24.484021 C32.99,24.484021 33.61,25.684021 33.61,27.484021 L33.61,35.074021 L37.87,35.074021 L37.87,26.984021 C37.87,22.984021 35.77,21.074021 32.97,21.074021 C31.273183,21.0317189 29.674392,21.867021 28.74,23.284021 L28.66,23.284021 L28.46,21.384021 L24.76,21.384021 C24.82,22.614021 24.87,24.044021 24.87,25.754021 L24.87,35.034021 Z"/></g></svg>