<svg width="156" height="156" viewBox="0 0 156 156" xmlns="http://www.w3.org/2000/svg"><title>icon-large-champagne</title><defs><linearGradient x1="21.464%" y1="18.364%" x2="74.528%" y2="74.165%" id="a"><stop offset="0%"/><stop stop-opacity="0" offset="100%"/></linearGradient></defs><g fill="none" fill-rule="evenodd"><path d="M88.76 20.23c15.325 20.17 12.75 48.695-5.938 65.795s-47.33 17.137-66.062.085l69 68.64 69.45-68.45-66.45-66.07z" fill-opacity=".15" fill="url(#a)"/><path d="M50.59 99.08c-27.062 0-49-21.938-49-49s21.938-49 49-49 49 21.938 49 49c-.033 27.048-21.952 48.967-49 49zm0-92c-23.748 0-43 19.252-43 43s19.252 43 43 43 43-19.252 43-43-19.252-43-43-43z" fill="#FFF"/><path d="M50.59 82.26c-8.6 0-13.33-17.91-13.33-23.84V39.11a2.5 2.5 0 0 1 2.5-2.5h21.66a2.5 2.5 0 0 1 2.5 2.5v19.31c0 5.94-4.72 23.84-13.33 23.84zm-8.33-23.78c0 6.5 5 18.78 8.33 18.78s8.3-12.27 8.33-18.78V41.62H42.26v16.87-.01zM55.66 34.3a6.14 6.14 0 1 1 6.14-6.14 6.15 6.15 0 0 1-6.14 6.14zm0-7.28a1.14 1.14 0 1 0 1.14 1.14A1.14 1.14 0 0 0 55.66 27v.02zM45.89 23.38a6.14 6.14 0 1 1 6.14-6.14 6.15 6.15 0 0 1-6.14 6.14zm0-7.28a1.14 1.14 0 1 0 1.14 1.14 1.14 1.14 0 0 0-1.14-1.13v-.01zM44.16 31.27a2.53 2.53 0 1 1 2.53-2.53 2.55 2.55 0 0 1-2.53 2.53z" fill="#FFF"/><path fill="#FFF" d="M48.05 80h5v17h-5z"/></g></svg>