<svg xmlns="http://www.w3.org/2000/svg" width="156" height="156" viewBox="0 0 156 156"><defs><linearGradient id="a" x1="21.464%" x2="74.528%" y1="18.364%" y2="74.165%"><stop stop-color="#000000" offset="0%"/><stop stop-color="#000000" stop-opacity="0" offset="100%"/></linearGradient></defs><g fill="none" fill-rule="evenodd"><path fill="url(#a)" fill-opacity=".17" d="M101.905779,58.8982468 C111.558448,71.6024204 109.936922,89.5697077 98.1656749,100.340399 C86.3944279,111.11109 68.3541336,111.134368 56.5551299,100.394091 L100.016169,143.628377 L143.760649,100.513766 L101.905779,58.8982468 Z"/><path fill="#FFFFFF" d="M77.8636364,108.727273 C60.8181207,108.727273 47,94.9091521 47,77.8636364 C47,60.8181207 60.8181207,47 77.8636364,47 C94.9091521,47 108.727273,60.8181207 108.727273,77.8636364 C108.706449,94.9005193 94.9005193,108.706449 77.8636364,108.727273 Z M77.8636364,50.7792208 C62.9053267,50.7792208 50.7792208,62.9053267 50.7792208,77.8636364 C50.7792208,92.821946 62.9053267,104.948052 77.8636364,104.948052 C92.821946,104.948052 104.948052,92.821946 104.948052,77.8636364 C104.948052,62.9053267 92.821946,50.7792208 77.8636364,50.7792208 Z"/><path fill="#FFFFFF" d="M77.7124675,99.0650649 C69.1882419,99.0650649 61.5033664,93.9301953 58.2412864,86.0548377 C54.9792065,78.1794801 56.7823329,69.1145513 62.8098707,63.0870136 C68.8374085,57.0594758 77.9023372,55.2563494 85.7776948,58.5184293 C93.6530524,61.7805092 98.7879221,69.4653847 98.7879221,77.9896104 C98.7740391,89.6235072 89.3463643,99.051182 77.7124675,99.0650649 Z M77.7124675,60.0635065 C67.8121537,60.0635065 59.7863636,68.0892966 59.7863636,77.9896104 C59.7863636,87.8899242 67.8121537,95.9157143 77.7124675,95.9157143 C87.6127813,95.9157143 95.6385714,87.8899242 95.6385714,77.9896104 C95.6281564,68.0936138 87.6084641,60.0739215 77.7124675,60.0635065 Z"/><polygon fill="#FFFFFF" points="85.076 89.201 75.558 78.494 80.471 69.285 83.249 70.765 79.369 78.04 87.431 87.104"/></g></svg>