<svg xmlns="http://www.w3.org/2000/svg" width="156" height="156" viewBox="0 0 156 156"><defs><linearGradient id="a" x1="21.464%" x2="74.528%" y1="18.364%" y2="74.165%"><stop stop-color="#000000" offset="0%"/><stop stop-color="#000000" stop-opacity="0" offset="100%"/></linearGradient></defs><g fill="none" fill-rule="evenodd"><path fill="url(#a)" fill-opacity=".17" d="M102.486968,59.1124026 C112.176231,71.8165762 110.548558,89.7838636 98.7326841,100.554555 C86.9168105,111.325246 68.8081227,111.348524 56.9643871,100.608247 L100.590194,143.842532 L144.500516,100.727922 L102.486968,59.1124026 Z"/><g fill="#FFFFFF" transform="translate(47 47)"><polygon points="47.451 43.285 31.012 32.589 14.574 43.285 14.574 6.299 17.735 6.299 17.735 37.471 31.012 28.829 44.29 37.471 44.29 6.299 47.451 6.299"/><polygon points="42.393 33.622 31.012 26.184 19.632 33.622 19.632 4.409 22.793 4.409 22.793 27.79 31.012 22.417 39.232 27.79 39.232 4.409 42.393 4.409"/><path d="M31.3536774,61.7272727 C14.2435396,61.7272727 0.373032258,47.9091521 0.373032258,30.8636364 C0.373032258,13.8181207 14.2435396,-1.43245416e-13 31.3536774,-1.43245416e-13 C48.4638153,-1.43245416e-13 62.3343226,13.8181207 62.3343226,30.8636364 C62.3134204,47.9005193 48.4551498,61.7064495 31.3536774,61.7272727 L31.3536774,61.7272727 Z M31.3536774,3.77922078 C20.3575232,3.77922078 10.4441212,10.3781268 6.23607516,20.4988792 C2.02802913,30.6196317 4.35404173,42.2691217 12.1294969,50.0152103 C19.9049521,57.7612989 31.5986071,60.0785265 41.7577289,55.8863736 C51.9168507,51.6942206 58.5407742,41.8182599 58.5407742,30.8636364 C58.5407742,15.9053267 46.3686964,3.77922078 31.3536774,3.77922078 Z"/></g></g></svg>