<svg xmlns="http://www.w3.org/2000/svg" width="156" height="156" viewBox="0 0 156 156"><defs><linearGradient id="a" x1="21.464%" x2="74.528%" y1="18.364%" y2="74.165%"><stop stop-color="#000000" offset="0%"/><stop stop-color="#000000" stop-opacity="0" offset="100%"/></linearGradient></defs><g fill="none" fill-rule="evenodd"><path fill="url(#a)" fill-opacity=".17" d="M101.647532,59.1124026 C111.300201,71.8165762 109.678675,89.7838636 97.9074282,100.554555 C86.1361811,111.325246 68.0958868,111.348524 56.2968831,100.608247 L99.7579221,143.842532 L143.502403,100.727922 L101.647532,59.1124026 Z"/><path fill="#FFFFFF" d="M77.9721331,109.00106 C63.1845338,108.986475 50.4662653,98.5286228 47.5946035,84.0225253 C44.7229418,69.5164277 52.4975886,55.0017493 66.1643138,49.3542783 C79.8310391,43.7068073 95.5839269,48.4992541 103.790019,60.8010168 C111.99611,73.1027795 110.37017,89.4880576 99.9064667,99.9371831 C94.0985863,105.766074 86.2005363,109.029768 77.9721331,109.00106 L77.9721331,109.00106 Z M61.0099125,98.8212475 C69.0404984,105.384922 80.1307082,106.743185 89.5079387,102.311517 C98.8851692,97.8798484 104.876414,88.448909 104.903378,78.0772452 L72.6652395,92.5968069 L81.853109,80.2719185 L74.04156,80.4083106 L61.0099125,98.8212475 Z M55.1326518,92.1132348 C55.9674934,93.4687134 56.9219082,94.7467993 57.9844871,95.9322143 L68.8958571,80.4951056 L63.2789814,80.5942999 L55.1326518,92.1132348 Z M52.7147914,68.8521779 C50.4825559,75.0515992 50.5795016,81.8510131 52.9875756,87.9842732 L59.6831891,78.5236195 L52.7147914,68.8521779 Z M88.4619275,78.2880331 L85.4365021,82.2930018 L94.9591523,78.0028495 L85.1141207,73.6754994 L88.4619275,78.2880331 Z M104.853781,77.9036553 C104.795128,67.4119222 98.6404613,57.9121408 89.08899,53.5705629 C79.5375187,49.2289851 68.3332451,50.8383392 60.3899483,57.6928222 L73.8059737,76.2917483 L81.8159112,76.1553562 L72.6900381,63.7560721 L104.853781,77.9036553 Z M63.3285786,76.4653383 L68.7718643,76.3785433 L57.4389186,60.6438518 C56.4170851,61.8502184 55.5042298,63.1448131 54.7110761,64.5124284 L63.3285786,76.4653383 Z"/></g></svg>