<svg width="156" height="156" viewBox="0 0 156 156" xmlns="http://www.w3.org/2000/svg"><title>icon-large-clock</title><defs><linearGradient x1="21.464%" y1="18.364%" x2="74.528%" y2="74.165%" id="a"><stop offset="0%"/><stop stop-opacity="0" offset="100%"/></linearGradient></defs><g fill="none" fill-rule="evenodd"><path d="M88.76 20.23c15.325 20.17 12.75 48.695-5.938 65.795s-47.33 17.137-66.062.085l69 68.64 69.45-68.45-66.45-66.07z" fill-opacity=".15" fill="url(#a)"/><path d="M50.59 99.34c-27.062 0-49-21.938-49-49s21.938-49 49-49 49 21.938 49 49c-.033 27.048-21.952 48.967-49 49zm0-92c-23.748 0-43 19.252-43 43s19.252 43 43 43 43-19.252 43-43-19.252-43-43-43z" fill="#FFF"/><path d="M50.35 84a33.46 33.46 0 1 1 33.46-33.46C83.788 69.01 68.82 83.978 50.35 84zm0-61.92c-15.718 0-28.46 12.742-28.46 28.46S34.632 79 50.35 79s28.46-12.742 28.46-28.46c-.017-15.711-12.749-28.443-28.46-28.46z" fill="#FFF"/><path fill="#FFF" d="M62.04 68.34l-15.11-17 7.8-14.62 4.41 2.35-6.16 11.55 12.8 14.39z"/></g></svg>