<svg xmlns="http://www.w3.org/2000/svg" width="156" height="156" viewBox="0 0 156 156"><defs><linearGradient id="a" x1="21.464%" x2="74.528%" y1="18.364%" y2="74.165%"><stop stop-color="#000000" offset="0%"/><stop stop-color="#000000" stop-opacity="0" offset="100%"/></linearGradient></defs><g fill="none" fill-rule="evenodd"><path fill="url(#a)" fill-opacity=".17" d="M102.486968,59.1124026 C112.176231,71.8165762 110.548558,89.7838636 98.7326841,100.554555 C86.9168105,111.325246 68.8081227,111.348524 56.9643871,100.608247 L100.590194,143.842532 L144.500516,100.727922 L102.486968,59.1124026 Z"/><path fill="#FFFFFF" d="M83.9554839 92.9805195C82.5140682 92.9815005 81.2138114 92.1178849 80.6604032 90.7919649 80.106995 89.4660449 80.4092819 87.9386076 81.4264516 86.9211688L87.8122581 80.5594805C89.209004 79.1680099 91.4735766 79.1680099 92.8703226 80.5594805 94.2670685 81.9509512 94.2670685 84.2069709 92.8703226 85.5984416L86.4845161 91.9601299C85.8121995 92.6231993 84.9014793 92.9906479 83.9554839 92.9805195zM90.3412903 82.6695455C90.2341556 82.669696 90.1315984 82.7128344 90.0567742 82.7892208L83.6709677 89.1509091C83.5504865 89.2478159 83.4960835 89.4047229 83.5308437 89.5550494 83.5656038 89.7053759 83.6834311 89.8227582 83.8343275 89.8573871 83.9852239 89.892016 84.1427258 89.8378184 84.24 89.7177922L90.6258065 83.3561039C90.7401898 83.2408757 90.7741895 83.0686128 90.7121137 82.9188192 90.6500379 82.7690257 90.5039565 82.6708274 90.3412903 82.6695455L90.3412903 82.6695455zM68.3513548 77.4038312C66.9069367 77.4110052 65.6013697 76.5478984 65.046802 75.2192003 64.4922342 73.8905021 64.7986279 72.3596729 65.8223226 71.3444805L72.208129 64.9827922C73.604875 63.5913215 75.8694476 63.5913215 77.2661935 64.9827922 78.6629395 66.3742629 78.6629395 68.6302826 77.2661935 70.0217532L70.8803871 76.3834416C70.2080704 77.046511 69.2973503 77.4139596 68.3513548 77.4038312zM74.7371613 67.0928571C74.6300265 67.0930077 74.5274694 67.1361461 74.4526452 67.2125325L68.0668387 73.5742208C67.9109512 73.7312735 67.9109512 73.9840512 68.0668387 74.1411039 68.2244869 74.2964027 68.4782228 74.2964027 68.635871 74.1411039L75.0406452 67.7857143C75.1965327 67.6286615 75.1965327 67.3758839 75.0406452 67.2188312 74.9624094 67.1352671 74.8518108 67.0893583 74.7371613 67.0928571L74.7371613 67.0928571z"/><path fill="#FFFFFF" d="M78.3536774,108.815455 C61.2435396,108.815455 47.3730323,94.9973339 47.3730323,77.9518182 C47.3730323,60.9063025 61.2435396,47.0881818 78.3536774,47.0881818 C95.4638153,47.0881818 109.334323,60.9063025 109.334323,77.9518182 C109.31342,94.9887011 95.4551498,108.794631 78.3536774,108.815455 L78.3536774,108.815455 Z M78.3536774,50.8674026 C67.3575232,50.8674026 57.4441212,57.4663086 53.2360752,67.5870611 C49.0280291,77.7078135 51.3540417,89.3573035 59.1294969,97.1033921 C66.9049521,104.849481 78.5986071,107.166708 88.7577289,102.974555 C98.9168507,98.7824025 105.540774,88.9064417 105.540774,77.9518182 C105.540774,62.9935085 93.3686964,50.8674026 78.3536774,50.8674026 Z"/><path fill="#FFFFFF" d="M55.6017903,95.7921651 C57.5498016,98.2796881 59.9008786,100.438644 62.5572234,102.171604 C62.9498491,101.780182 63.3481356,101.384384 63.7738065,100.967273 C64.9308387,99.8335065 70.9246452,93.7993506 71.9931613,92.6907792 C72.8530323,91.7774675 73.927871,90.6437013 75.0659355,89.383961 C76.204,88.1242208 77.0954839,87.1227273 77.8668387,86.2346104 L78.1450323,85.9196753 C78.4988282,86.0065974 78.8617988,86.0510044 79.2261935,86.0519481 C80.4311081,86.0557299 81.5875384,85.5794835 82.4380645,84.7292208 L85.416,81.7625325 C87.1893014,79.9902135 87.1893014,77.1227735 85.416,75.3504545 L82.476,72.4215584 C81.6220898,71.5695916 80.4631666,71.0908537 79.2546452,71.0908537 C78.0461237,71.0908537 76.8872005,71.5695916 76.0332903,72.4215584 L73.0553548,75.3882468 C71.8068187,76.6432439 71.4023209,78.5057517 72.0184516,80.1626623 L71.8983226,80.2697403 C71.0131613,81.0381818 69.9383226,81.9892857 68.7370323,83.0726623 C67.5357419,84.156039 66.3344516,85.2772078 65.4113548,86.1401299 C64.3112258,87.1857143 58.2858065,93.1631818 57.1224516,94.2906494 C56.6067836,94.79041 56.0973268,95.2951209 55.6017903,95.7921651 L55.6017903,95.7921651 Z M57.69191,98.1781931 C58.4199773,98.9225174 59.1883384,99.6275367 59.9934831,100.289754 C60.5240069,99.7657488 61.0392175,99.2507964 61.5482581,98.7312338 C62.6926452,97.5848701 68.6611613,91.5885065 69.7043871,90.4988312 C70.5452903,89.6107143 71.6580645,88.4265584 72.7202581,87.2487013 C73.7824516,86.0708442 74.7181935,85.0252597 75.4832258,84.1434416 C75.8183226,83.7592208 76.1154839,83.3938961 76.4379355,83.0348701 L77.3104516,82.0081818 L78.4990968,82.6695455 C78.7184455,82.8016028 78.9699018,82.8713089 79.2261935,82.8711039 C79.5916951,82.8713 79.9421671,82.7261994 80.199871,82.467987 L83.1778065,79.5012987 C83.7204781,78.9602352 83.7204781,78.0834661 83.1778065,77.5424026 L80.2378065,74.6135065 C79.6865654,74.0928075 78.822725,74.0928075 78.2714839,74.6135065 L75.2935484,77.5801948 C74.7774415,78.0957056 74.7498207,78.9211996 75.2303226,79.4698052 L76.2672258,80.6728571 L74.9268387,81.8066234 L73.9658065,82.6254545 C73.0806452,83.3875974 72.0690323,84.2631169 70.836129,85.3842857 C69.6032258,86.5054545 68.4651613,87.5573377 67.5673548,88.4013636 C66.4925161,89.4280519 60.5050323,95.3299351 59.348,96.5140909 C58.7813634,97.0940108 58.226858,97.6467387 57.69191,98.1781931 L57.69191,98.1781931 Z"/></g></svg>