<svg width="106" height="26" viewBox="0 0 106 26" xmlns="http://www.w3.org/2000/svg"><title>logo-houston</title><path d="M74.925 9.102h1.588v7.454h-1.588V9.102zm-12.107 2.722l3.693 4.742h1.427V9.112h-1.657v4.595l-3.573-4.595h-1.547v7.454h1.657v-4.742zM9.786 13.58h3.094v2.996h1.677V9.122H12.88v2.927H9.786V9.122H8.109v7.454h1.677V13.58zm87.838 3.035h1.766v-1.708h-1.766v1.708zm-5.85.078a3.924 3.924 0 0 0 3.125-1.327l-1.068-1.054a2.824 2.824 0 0 1-1.997.868 2.289 2.289 0 0 1-1.61-.713 2.185 2.185 0 0 1-.596-1.628 2.176 2.176 0 0 1 .604-1.611 2.28 2.28 0 0 1 1.602-.701c.736.02 1.435.321 1.947.839l1.068-1.2a3.972 3.972 0 0 0-2.995-1.151 3.921 3.921 0 0 0-2.86 1.106 3.74 3.74 0 0 0-1.132 2.796 3.712 3.712 0 0 0 1.125 2.725 3.89 3.89 0 0 0 2.787 1.1v-.05zm-11.06-4.83l3.694 4.742h1.427V9.15h-1.657v4.595l-3.573-4.595h-1.547v7.454h1.597l.06-4.742zM2.04 4H105v18H2l.04-18zm1.657 16.38h99.686V5.61H3.657l.04 14.77zm26.6-3.687c2.057 0 3.345-1.103 3.345-3.366V9.122h-1.677v4.273c0 1.18-.62 1.785-1.647 1.785-1.028 0-1.647-.624-1.647-1.834V9.132h-1.717v4.253a2.886 2.886 0 0 0 .824 2.444 3.035 3.035 0 0 0 2.48.864h.04zm-13.594-3.815c0-2.188 1.814-3.96 4.052-3.96 2.239 0 4.053 1.772 4.053 3.96 0 2.188-1.814 3.961-4.053 3.961-2.238 0-4.052-1.773-4.052-3.961zm1.747 0a2.236 2.236 0 0 0 .653 1.645 2.342 2.342 0 0 0 3.308.005 2.206 2.206 0 0 0 .64-1.63 2.235 2.235 0 0 0-.646-1.648 2.342 2.342 0 0 0-1.66-.694c-.622 0-1.217.247-1.648.685a2.206 2.206 0 0 0-.637 1.637h-.01zm20.512 2.39a3.577 3.577 0 0 1-2.276-.907l-.998 1.161a4.927 4.927 0 0 0 3.234 1.19c1.647 0 2.795-.83 2.795-2.312 0-1.298-.849-1.834-2.396-2.234-1.317-.332-1.647-.488-1.647-.976 0-.36.33-.644.998-.644.726.04 1.423.295 1.997.732l.868-1.239a4.445 4.445 0 0 0-2.835-.976 2.423 2.423 0 0 0-1.837.55 2.312 2.312 0 0 0-.828 1.694c0 1.483.998 1.893 2.526 2.283 1.277.322 1.537.527 1.537.976 0 .43-.42.702-1.108.702h-.03zm12.008-2.36c0-2.188 1.814-3.962 4.052-3.962 2.238 0 4.053 1.774 4.053 3.961 0 2.188-1.815 3.961-4.053 3.961s-4.052-1.773-4.052-3.96zm1.756 0a2.235 2.235 0 0 0 .646 1.647 2.342 2.342 0 0 0 1.66.694c.62 0 1.214-.246 1.645-.682a2.206 2.206 0 0 0 .641-1.63 2.235 2.235 0 0 0-.646-1.648 2.342 2.342 0 0 0-1.66-.694c-.622 0-1.217.247-1.649.685a2.206 2.206 0 0 0-.637 1.637v-.01zm-7.186-2.206v5.942h1.677v-5.942h2.315V9.19h-6.318v1.512h2.326z" fill="#FFF" fill-rule="evenodd"/></svg>