<?xml version="1.0" encoding="UTF-8"?>
<svg width="106px" height="26px" viewBox="0 0 106 26" version="1.1" xmlns="http://www.w3.org/2000/svg" xmlns:xlink="http://www.w3.org/1999/xlink">
    <!-- Generator: Sketch 41.2 (35397) - http://www.bohemiancoding.com/sketch -->
    <title>logo-solita</title>
    <desc>Created with Sketch.</desc>
    <defs></defs>
    <g id="export" stroke="none" stroke-width="1" fill="none" fill-rule="evenodd">
        <g id="logo-solita" fill="#FFFFFF">
            <path d="M41.88,13.49 C41.88,18.44 39.03,19.64 35.96,19.64 C32.89,19.64 30.04,18.44 30.04,13.49 C30.04,8.54 32.89,7.34 35.96,7.34 C39.03,7.34 41.88,8.54 41.88,13.49 M44.88,13.49 C44.88,8.17 41.58,4.95 35.96,4.95 C30.34,4.95 27.04,8.17 27.04,13.49 C27.04,18.81 30.34,22.03 35.96,22.03 C41.58,22.03 44.88,18.81 44.88,13.49" id="Shape"></path>
            <path d="M63.39,21.81 L63.39,7.12 C63.39,5.17 61.97,5.25 60.47,5.25 C60.47,12.82 60.39,21.82 60.39,21.82 L63.39,21.81 Z" id="Shape"></path>
            <path d="M79.88,20.54 C79.6542641,21.4335609 78.7931419,22.0148183 77.88,21.89 L76.46,21.89 L83.58,5.4 L87.4,5.4 L94.52,21.82 L93.17,21.74 C91.82,21.74 91.37,21.52 90.92,20.47 L85.52,7.58 L85.22,7.58 L79.88,20.54 Z" id="Shape"></path>
            <path d="M49.9,19.56 L56.72,19.56 C57.2341517,19.5568152 57.725123,19.7736557 58.0690789,20.155829 C58.4130349,20.5380022 58.5771389,21.0490233 58.52,21.56 L46.9,21.56 L46.9,5.07 C48.4,5.07 49.9,5.07 49.9,7.02 L49.9,19.56 Z" id="Shape"></path>
            <path d="M25.61,16.79 C25.61,13.04 21.49,12.67 18.34,11.84 C16.84,11.47 15.34,10.84 15.34,9.29 C15.34,7.29 17.59,6.89 19.54,6.89 C20.37,6.89 21.26,7.12 22.16,7.19 C23.73,7.57 24.16,5.54 24.16,5.54 C22.7145933,5.03190391 21.1920645,4.77814912 19.66,4.79 C15.54,4.79 12.54,6.21 12.54,9.44 C12.54,13.44 16.36,13.79 19.74,14.69 C21.24,15.07 22.74,15.59 22.74,17.16 C22.74,18.96 21.02,19.71 18.74,19.71 C17.3731864,19.7914566 16.0056681,19.5623973 14.74,19.04 C12.94,18.36 11.97,20.54 11.97,20.54 C13.8308429,21.5532364 15.9213935,22.0698469 18.04,22.04 C24.19,22.04 25.61,18.82 25.61,16.79" id="Shape"></path>
            <path d="M70.21,7.57 L66.91,7.57 C64.96,7.57 65.11,5.4 65.11,5.4 L78,5.4 C78,5.4 78.23,7.65 76.2,7.65 L72.9,7.65 L72.9,21.89 L70.07,21.89 L70.21,7.57 Z" id="Shape"></path>
        </g>
    </g>
</svg>