<svg width="106" height="26" viewBox="0 0 106 26" xmlns="http://www.w3.org/2000/svg"><title>logo-gofore</title><path d="M64.3 4.4c-4.7 0-8.6 3.9-8.6 8.6 0 4.7 3.9 8.6 8.6 8.6 4.7 0 8.6-3.9 8.6-8.6 0-4.7-3.8-8.6-8.6-8.6zm0 13.8c-2.8 0-5.2-2.3-5.2-5.2 0-2.8 2.3-5.2 5.2-5.2 2.8 0 5.2 2.3 5.2 5.2 0 2.8-2.3 5.2-5.2 5.2zM29.6 4.4C24.9 4.4 21 8.3 21 13c0 4.7 3.9 8.6 8.6 8.6 4.7 0 8.6-3.9 8.6-8.6 0-4.7-3.9-8.6-8.6-8.6zm0 13.8c-2.8 0-5.2-2.3-5.2-5.2 0-2.8 2.3-5.2 5.2-5.2 2.8 0 5.2 2.3 5.2 5.2-.1 2.8-2.4 5.2-5.2 5.2zM42 21h3v-6.3h7.5v-3.4H45V8.4h7.7V5H42v16zm62.3-12.621V5H93.1v16h11.2v-3.379h-7.7V14.74h7.4V11.36h-7.4V8.478h7.7v-.1zm-15.1 2.584C89.2 7.683 86.5 5 83.1 5h-6.8v16h3.4v-4.075h2.9L85.1 21h4l-3-4.87c.5-.298.9-.596 1.3-.993 1.2-1.094 1.9-2.584 1.8-4.174zM85.1 12.8c-.5.5-1.1.8-1.8.8h-3.4V8.4h3.4c1.4 0 2.6 1.1 2.6 2.6-.1.6-.3 1.3-.8 1.8zm-69.8 2.6h-.5v1.3c-1 .9-2.2 1.4-3.5 1.4-1.4 0-2.7-.5-3.6-1.5-1-1-1.5-2.3-1.5-3.6 0-1.4.5-2.7 1.5-3.6 1-1 2.3-1.5 3.6-1.5 1.4 0 2.7.5 3.6 1.5L17.3 7c-1.6-1.6-3.8-2.5-6.1-2.5S6.7 5.4 5.1 7c-1.6 1.6-2.5 3.8-2.5 6.1s.9 4.5 2.5 6.1c1.6 1.6 3.8 2.5 6.1 2.5s4.5-.9 6.1-2.5c.2-.2.4-.4.6-.7 0-1.1-.5-3.1-2.6-3.1zm-.4-4.3h-4.1v3.4h4.6c1.3 0 2.3.6 2.9 1.6v-1.2c0-1.1-.3-2-.8-2.7-.7-.7-1.6-1.1-2.6-1.1z" fill="#FFF" fill-rule="evenodd"/></svg>