<svg width="106" height="26" viewBox="0 0 106 26" xmlns="http://www.w3.org/2000/svg"><title>logo-solita</title><g fill="#FFF" fill-rule="evenodd"><path d="M41.88 13.49c0 4.95-2.85 6.15-5.92 6.15s-5.92-1.2-5.92-6.15 2.85-6.15 5.92-6.15 5.92 1.2 5.92 6.15m3 0c0-5.32-3.3-8.54-8.92-8.54s-8.92 3.22-8.92 8.54c0 5.32 3.3 8.54 8.92 8.54s8.92-3.22 8.92-8.54M63.39 21.81V7.12c0-1.95-1.42-1.87-2.92-1.87 0 7.57-.08 16.57-.08 16.57l3-.01zM79.88 20.54a1.81 1.81 0 0 1-2 1.35h-1.42L83.58 5.4h3.82l7.12 16.42-1.35-.08c-1.35 0-1.8-.22-2.25-1.27l-5.4-12.89h-.3l-5.34 12.96zM49.9 19.56h6.82a1.8 1.8 0 0 1 1.8 2H46.9V5.07c1.5 0 3 0 3 1.95v12.54zM25.61 16.79c0-3.75-4.12-4.12-7.27-4.95-1.5-.37-3-1-3-2.55 0-2 2.25-2.4 4.2-2.4.83 0 1.72.23 2.62.3 1.57.38 2-1.65 2-1.65a13.26 13.26 0 0 0-4.5-.75c-4.12 0-7.12 1.42-7.12 4.65 0 4 3.82 4.35 7.2 5.25 1.5.38 3 .9 3 2.47 0 1.8-1.72 2.55-4 2.55a9.07 9.07 0 0 1-4-.67c-1.8-.68-2.77 1.5-2.77 1.5a12.33 12.33 0 0 0 6.07 1.5c6.15 0 7.57-3.22 7.57-5.25M70.21 7.57h-3.3c-1.95 0-1.8-2.17-1.8-2.17H78s.23 2.25-1.8 2.25h-3.3v14.24h-2.83l.14-14.32z"/></g></svg>