<svg width="106" height="26" viewBox="0 0 106 26" xmlns="http://www.w3.org/2000/svg"><title>logo-reaktor</title><path d="M20.15 10.208c0 1.051-.8 1.781-2.31 1.781h-2.23V8.465h2.27c1.51 0 2.31.692 2.31 1.743h-.04zm4.87 10.708l-4-6.483c1.756-.77 2.858-2.498 2.79-4.371C23.81 6.879 21.15 5 18 5h-6v15.916h3.61v-5.724h1.85l3.53 5.724h4.03zm9-6.882H28.8c.255-1.2 1.352-2.05 2.61-2.025 1.266-.05 2.378.812 2.61 2.025zm3.18 2.316c.05-.4.074-.803.07-1.207a5.651 5.651 0 0 0-1.683-4.232 5.973 5.973 0 0 0-4.317-1.715c-3.413.032-6.153 2.751-6.12 6.074.033 3.322 2.827 5.99 6.24 5.957 2.094-.028 4.043-1.049 5.22-2.735l-2.73-1.382a3.12 3.12 0 0 1-2.45 1.178c-1.25.082-2.366-.752-2.61-1.947l8.38.01zm9.33.224c.03.263-.026.53-.16.76a3.184 3.184 0 0 1-2.54 1.158c-.87 0-1.67-.273-1.67-1.07 0-1.023 1.26-1.247 2.2-1.451.94-.205 1.47-.292 2.17-.429v1.032zm0 4.342h3.27v-7.087c0-2.336-1.56-4.663-5.2-4.663-3.3 0-5 1.899-5.4 3.252l3.14.603a2.37 2.37 0 0 1 2.11-1.041c1.3 0 2.08.671 2.08 1.353-.69.087-3.41.535-4.12.671-2.08.4-3.69 1.538-3.69 3.7a3.643 3.643 0 0 0 1.275 2.565 3.846 3.846 0 0 0 2.775.91 4.805 4.805 0 0 0 3.59-1.45h.16l.01 1.187zm12.85-6.814l4.32-4.575h-4.23l-3.73 3.893V5.195h-3.37v15.72h3.24v-2.92l1.26-1.333 4.35 7.038h4l-5.84-9.598zm9.63 7.174a10.127 10.127 0 0 0 2.91-.448v-2.832a8.577 8.577 0 0 1-1.88.223c-1.1 0-1.58-.71-1.58-1.78v-4.216h3.15V9.527h-3.26v-2.92h-3.37v10.756a3.607 3.607 0 0 0 1.087 2.756 3.816 3.816 0 0 0 2.823 1.08l.12.077zm13.06-6.2c-.14 1.514-1.492 2.645-3.051 2.554-1.56-.09-2.762-1.371-2.716-2.891.046-1.52 1.325-2.73 2.887-2.73.807.014 1.573.35 2.117.93.545.58.82 1.352.763 2.136zm3.27 0c-.05-3.29-2.82-5.922-6.2-5.89-3.378.032-6.096 2.716-6.08 6.006.017 3.29 2.76 5.947 6.14 5.948a6.155 6.155 0 0 0 4.395-1.76 5.826 5.826 0 0 0 1.745-4.305zm8.8-2.551v-3.29a4.678 4.678 0 0 0-3.54 1.664V9.565h-3.36v11.35h3.37v-5.509c0-1.869 1.44-2.803 3.54-2.803l-.01-.078z" fill="#FFF" fill-rule="evenodd"/></svg>