<svg width="106" height="26" viewBox="0 0 106 26" xmlns="http://www.w3.org/2000/svg"><title>logo-exove</title><g fill="#FFF" fill-rule="evenodd"><path d="M22.33 7.54a1.77 1.77 0 0 0 0-3.54H11.77A1.77 1.77 0 0 0 10 5.77v14.4c0 .978.792 1.77 1.77 1.77h10.56a1.77 1.77 0 0 0 0-3.54h-8.79v-3.66h7.09a1.77 1.77 0 0 0 0-3.54h-7.09V7.55l8.79-.01zM93.33 18.39h-8.79v-3.66h7.09a1.77 1.77 0 0 0 0-3.54h-7.09V7.54h8.79a1.77 1.77 0 0 0 0-3.54H82.77A1.77 1.77 0 0 0 81 5.77v14.4c0 .978.792 1.77 1.77 1.77h10.56a1.77 1.77 0 0 0 0-3.54M36.61 12.861l5.72-5.85a1.771 1.771 0 0 0-2.53-2.48l-5.62 5.75-5.39-5.72a1.772 1.772 0 0 0-2.58 2.43l5.49 5.83-6 6.12a1.771 1.771 0 1 0 2.53 2.48l5.88-6 5.65 6a1.772 1.772 0 1 0 2.58-2.43l-5.73-6.13z"/><path d="M51.61 18.85a5.65 5.65 0 1 1 5.65-5.65 5.66 5.66 0 0 1-5.65 5.65m0-14.85a9.19 9.19 0 1 0 9.2 9.2 9.21 9.21 0 0 0-9.2-9.2M78.07 4.254a1.77 1.77 0 0 0-2.39.75l-6 11.41-6-11.42a1.77 1.77 0 1 0-3.13 1.65l7.61 14.4.12.19.12.14.16.14.13.09H70.45l.13-.09.16-.14.12-.14a1.62 1.62 0 0 0 .12-.19l7.53-14.4a1.77 1.77 0 0 0-.75-2.39"/></g></svg>