<svg width="106" height="26" viewBox="0 0 106 26" xmlns="http://www.w3.org/2000/svg"><title>logo-futurice</title><g fill="#FFF" fill-rule="evenodd"><path d="M24.29 8v7.48c0 1.84-.84 2.91-2.53 2.91s-2.53-1.08-2.53-2.91V8h-3.84v8.44c0 3.56 2.65 5.67 6.41 5.67 3.76 0 6.4-2.12 6.4-5.67V8h-3.91zM97.41 17.831a3.68 3.68 0 0 1-2.76 1.27 3.51 3.51 0 0 1-3.68-2.53h10.67v-1.39a7 7 0 0 0-7.14-7.18 7.21 7.21 0 0 0-7.22 7.22 7.08 7.08 0 0 0 7.29 7.22h.08a7.08 7.08 0 0 0 5.22-2.11l-2.46-2.5zm-2.91-6.49a3.19 3.19 0 0 1 3.3 2.18h-6.73a3.6 3.6 0 0 1 3.41-2.18h.02zM84.07 17.822a3.57 3.57 0 0 1-2.46 1h-.08a3.61 3.61 0 0 1 0-7.21h.08a3.5 3.5 0 0 1 2.57 1.15l2.61-2.61a7 7 0 0 0-5.22-2.15 7.18 7.18 0 0 0 0 14.35 7.2 7.2 0 0 0 5.07-2l-2.57-2.53zM7.95 7.053a1.86 1.86 0 0 1 1.88-2.07c.6-.002 1.16.299 1.49.8l2.3-2.3a5 5 0 0 0-4.29-2.18c-2.8 0-5.11 2.46-5.18 5.71v14.81h3.8v-10.56h4.91v-3.28H7.95v-.93zM50.95 8v7.48c0 1.84-.84 2.91-2.53 2.91s-2.53-1.08-2.53-2.91V8h-3.82v8.44c0 3.56 2.65 5.67 6.41 5.67 3.76 0 6.41-2.11 6.41-5.67V8h-3.94zM68.68 7.99h3.79v13.84h-3.79zM70.52 1.3a2.42 2.42 0 1 1 0 4.84 2.42 2.42 0 0 1 0-4.84M57.17 8v13.85h3.8V11.41h5.3V8h-5.3zM34.31 8.18V3h-3.8v13c0 4.53 1.46 6 5.83 6h3.26v-3.53h-2.72c-2.34 0-2.61-.34-2.61-2.5V11.6h5.33V8.18h-5.29"/></g></svg>