<svg width="382" height="25" viewBox="0 0 382 25" xmlns="http://www.w3.org/2000/svg"><title>squiggle</title><path d="M375.98 24c-7.67 0-11.58-4.58-14.44-7.93-2.58-3-3.7-4.07-6.08-4.07s-3.5 1.06-6.08 4.07c-2.86 3.34-6.78 7.93-14.44 7.93-7.66 0-11.58-4.58-14.44-7.92-2.58-3-3.7-4.08-6.08-4.08s-3.5 1.06-6.08 4.08c-2.86 3.34-6.78 7.92-14.44 7.92-7.66 0-11.58-4.58-14.44-7.92-2.58-3-3.7-4.08-6.08-4.08s-3.5 1.06-6.08 4.07c-2.86 3.34-6.78 7.93-14.44 7.93-7.66 0-11.58-4.58-14.44-7.93-2.58-3-3.7-4.07-6.08-4.07s-3.5 1.06-6.08 4.07c-2.86 3.34-6.78 7.93-14.44 7.93-7.66 0-11.58-4.58-14.44-7.92-2.58-3-3.7-4.08-6.08-4.08s-3.5 1.06-6.08 4.08c-2.86 3.34-6.78 7.92-14.44 7.92-7.66 0-11.58-4.58-14.44-7.92-2.58-3-3.7-4.08-6.08-4.08s-3.5 1.06-6.08 4.07c-2.86 3.34-6.78 7.93-14.44 7.93-7.66 0-11.58-4.58-14.45-7.92-2.58-3-3.7-4.08-6.09-4.08-2.39 0-3.5 1.06-6.09 4.08-2.86 3.34-6.78 7.92-14.45 7.92-7.67 0-11.58-4.58-14.45-7.92-2.58-3-3.7-4.08-6.09-4.08-2.39 0-3.5 1.06-6.09 4.08C59.17 19.42 55.25 24 47.58 24c-7.67 0-11.59-4.58-14.45-7.92-2.58-3-3.7-4.08-6.09-4.08-2.39 0-3.51 1.06-6.09 4.08C18.09 19.42 14.17 24 6.5 24a5.5 5.5 0 0 1 0-11c2.39 0 3.51-1.06 6.09-4.08C15.45 5.58 19.37 1 27.04 1c7.67 0 11.58 4.58 14.45 7.92 2.58 3 3.7 4.08 6.09 4.08 2.39 0 3.5-1.06 6.09-4.08C56.53 5.58 60.45 1 68.12 1c7.67 0 11.58 4.58 14.45 7.92 2.58 3 3.7 4.08 6.09 4.08 2.39 0 3.5-1.06 6.09-4.08C97.61 5.58 101.53 1 109.2 1c7.67 0 11.58 4.58 14.45 7.92 2.58 3 3.7 4.08 6.09 4.08 2.39 0 3.5-1.06 6.08-4.08C138.68 5.58 142.6 1 150.26 1c7.66 0 11.58 4.58 14.44 7.92 2.58 3 3.7 4.08 6.08 4.08s3.5-1.06 6.08-4.07C179.72 5.59 183.64 1 191.3 1c7.66 0 11.58 4.58 14.44 7.92 2.58 3 3.7 4.08 6.08 4.08s3.5-1.06 6.08-4.08C220.76 5.58 224.68 1 232.34 1c7.66 0 11.58 4.58 14.44 7.92 2.58 3 3.7 4.08 6.08 4.08s3.5-1.06 6.08-4.07C261.8 5.59 265.72 1 273.38 1c7.66 0 11.58 4.58 14.44 7.92 2.58 3 3.7 4.08 6.08 4.08s3.5-1.06 6.08-4.07C302.84 5.59 306.76 1 314.42 1c7.66 0 11.58 4.58 14.44 7.93 2.58 3 3.7 4.07 6.08 4.07s3.5-1.06 6.08-4.08C343.88 5.58 347.8 1 355.46 1c7.66 0 11.58 4.58 14.44 7.93 2.58 3 3.7 4.07 6.08 4.07a5.5 5.5 0 0 1 0 11z" fill="#FFF" fill-rule="evenodd"/></svg>