<?xml version="1.0" standalone="no"?>
<!DOCTYPE svg PUBLIC "-//W3C//DTD SVG 20010904//EN"
 "http://www.w3.org/TR/2001/REC-SVG-20010904/DTD/svg10.dtd">
<svg version="1.0" xmlns="http://www.w3.org/2000/svg"
 width="500.000000pt" height="500.000000pt" viewBox="0 0 500.000000 500.000000"
 preserveAspectRatio="xMidYMid meet">
<metadata>
Created by potrace 1.11, written by Peter Selinger 2001-2013
</metadata>
<g transform="translate(0.000000,500.000000) scale(0.100000,-0.100000)"
fill="#000000" stroke="none">
<path d="M2319 4986 c-2 -2 -36 -7 -75 -10 -39 -4 -82 -9 -95 -11 -13 -3 -41
-7 -64 -11 -221 -32 -530 -137 -753 -256 -733 -392 -1221 -1116 -1309 -1943
-15 -138 -8 -499 11 -602 2 -10 7 -38 11 -63 38 -244 150 -568 269 -778 20
-35 36 -66 36 -68 0 -2 21 -36 46 -76 297 -464 737 -818 1253 -1007 113 -42
291 -90 406 -110 61 -11 85 -15 210 -31 70 -9 457 -6 505 3 14 3 43 8 65 11
284 37 582 133 832 266 643 344 1109 956 1262 1659 17 77 25 122 46 266 10 68
14 436 5 505 -5 36 -11 83 -14 105 -62 505 -315 1026 -678 1396 -414 422 -893
658 -1508 744 -49 7 -455 16 -461 11z m435 -346 c92 -12 110 -15 156 -25 14
-3 34 -7 45 -9 211 -42 455 -140 657 -262 151 -91 275 -190 409 -323 209 -210
344 -410 480 -716 36 -80 103 -318 124 -440 20 -111 39 -355 29 -355 -2 0 -86
37 -186 81 -101 45 -232 103 -293 129 -60 26 -265 116 -455 200 -190 83 -525
230 -745 327 -220 96 -433 190 -473 209 -41 19 -75 34 -77 34 -2 0 -32 13 -67
29 -35 16 -103 46 -153 67 -49 20 -96 42 -103 47 -33 25 -13 -8 71 -124 229
-312 564 -768 595 -808 18 -24 31 -46 28 -48 -4 -5 -99 -7 -501 -14 l-130 -2
-98 134 c-53 74 -121 167 -150 207 -28 40 -84 117 -122 170 -39 53 -145 200
-235 326 -91 125 -234 323 -317 440 -84 116 -153 214 -153 217 0 10 146 120
241 182 179 117 464 239 655 282 119 26 239 46 315 51 52 4 95 7 96 8 8 7 279
-4 357 -14z m-1838 -838 c33 -48 148 -208 255 -357 108 -148 284 -393 392
-542 l196 -273 -97 -1 c-53 0 -150 -2 -216 -3 -93 -1 -122 1 -133 13 -8 8 -63
81 -122 163 -133 187 -238 334 -412 575 -74 103 -138 193 -142 199 -10 17 191
315 212 314 3 -1 33 -40 67 -88z m-137 -998 c159 -223 237 -330 244 -335 5 -4
-11 -34 -35 -68 -23 -34 -144 -205 -268 -380 -133 -189 -228 -314 -232 -307
-26 38 -106 332 -122 441 -22 157 -29 445 -14 570 16 123 18 141 24 165 3 14
8 36 10 50 9 49 57 226 71 258 l14 33 136 -188 c75 -103 152 -211 172 -239z
m2518 -55 c114 -50 235 -103 268 -118 33 -15 111 -49 173 -76 61 -27 112 -52
112 -56 0 -4 -17 -14 -37 -22 -21 -8 -63 -26 -93 -40 -89 -41 -201 -92 -260
-118 -30 -13 -120 -54 -200 -90 -80 -37 -147 -65 -149 -63 -3 2 82 118 221
300 5 8 -30 65 -100 160 -141 195 -154 214 -148 214 3 0 99 -41 213 -91z
m1359 -371 c-7 -118 -8 -128 -32 -271 -41 -243 -158 -540 -302 -767 -104 -164
-305 -391 -442 -501 -30 -24 -57 -47 -60 -50 -3 -3 -52 -38 -110 -76 -124 -83
-263 -158 -375 -203 -44 -18 -89 -36 -100 -41 -70 -29 -270 -82 -375 -98 -36
-6 -81 -13 -100 -17 -59 -10 -401 -12 -470 -4 -36 5 -84 11 -107 14 -254 33
-584 154 -818 301 -129 81 -227 156 -222 169 3 7 89 131 192 276 104 146 209
294 234 330 24 36 63 90 85 122 23 31 47 64 54 75 7 10 54 77 105 148 50 72
155 218 231 327 l139 196 161 2 c88 1 227 3 309 4 114 3 147 0 147 -10 0 -7
-4 -14 -8 -16 -5 -1 -56 -68 -115 -148 -59 -79 -116 -156 -127 -170 -10 -14
-88 -117 -171 -230 -84 -113 -186 -249 -226 -304 -41 -54 -73 -99 -71 -101 3
-2 142 59 288 127 25 11 358 161 740 333 382 172 772 348 865 390 162 73 214
96 225 100 3 1 45 20 94 43 49 23 90 42 92 42 3 0 163 72 219 99 22 11 44 20
49 20 4 1 6 -49 2 -111z m-2896 -84 c0 -5 -164 -241 -306 -439 -25 -35 -235
-333 -401 -567 l-160 -226 -24 26 c-44 48 -96 115 -151 198 l-55 80 116 165
c64 90 137 193 162 229 182 258 373 526 379 530 11 7 440 11 440 4z"/>
</g>
</svg>
